<svg width="368" height="440" viewBox="0 0 368 440" fill="none" xmlns="http://www.w3.org/2000/svg">
<path d="M221.538 21.9999C221.538 9.8497 211.206 0 198.461 0H152.307C139.562 0 129.23 9.8497 129.23 21.9999V417.999C129.23 430.149 139.562 439.999 152.307 439.999H336.922C349.667 439.999 359.999 430.149 359.999 417.999V197.999C359.999 185.849 349.667 175.999 336.922 175.999H290.768C278.023 175.999 267.691 185.849 267.691 197.999V329.999C267.691 342.149 257.36 351.999 244.615 351.999C231.87 351.999 221.538 342.149 221.538 329.999V21.9999Z" fill="#FB923C"/>
<path d="M0 153.999C0 141.849 10.3318 132 23.0768 132H69.2305C81.9755 132 92.3074 141.849 92.3074 153.999V417.999C92.3074 430.149 81.9755 439.999 69.2305 439.999H23.0768C10.3319 439.999 0 430.149 0 417.999V153.999Z" fill="#FB923C"/>
<path d="M368 86.7929C368 116.846 343.638 141.208 313.585 141.208C283.532 141.208 259.17 116.846 259.17 86.7929C259.17 56.7402 283.532 32.3777 313.585 32.3777C343.638 32.3777 368 56.7402 368 86.7929Z" fill="#EA580C"/>
</svg>
