<svg width="1068" height="178" viewBox="0 0 1068 178" fill="none" xmlns="http://www.w3.org/2000/svg">
<path d="M1024.43 138.613C1015.65 138.613 1007.86 136.593 1001.06 132.553C994.264 128.387 988.887 122.643 984.931 115.321C981.099 107.999 979.183 99.3519 979.183 89.3788C979.183 79.532 981.099 70.9476 984.931 63.6256C988.763 56.1774 994.079 50.4334 1000.88 46.3937C1007.8 42.2278 1015.77 40.1448 1024.8 40.1448C1033.7 40.1448 1041.36 42.2278 1047.79 46.3937C1054.34 50.4334 1059.35 55.7987 1062.81 62.4895C1066.27 69.1802 1068 76.376 1068 84.0767C1068 85.4653 1067.94 86.854 1067.81 88.2427C1067.81 89.6313 1067.81 91.2093 1067.81 92.9767H994.573C994.944 100.172 996.551 106.169 999.394 110.966C1002.36 115.637 1006.01 119.172 1010.33 121.57C1014.78 123.969 1019.48 125.168 1024.43 125.168C1030.85 125.168 1036.23 123.653 1040.56 120.624C1044.88 117.594 1048.04 113.491 1050.01 108.315H1065.4C1062.93 117.026 1058.17 124.284 1051.13 130.092C1044.2 135.772 1035.3 138.613 1024.43 138.613ZM1024.43 53.5895C1017.01 53.5895 1010.4 55.9249 1004.59 60.5958C998.9 65.1405 995.624 71.8313 994.759 80.6682H1052.61C1052.24 72.21 1049.4 65.5824 1044.08 60.7852C1038.77 55.988 1032.21 53.5895 1024.43 53.5895Z" fill="#0C0A09"/>
<path d="M923.574 136.34L888.714 42.4169H905.031L932.659 121.002L960.473 42.4169H976.419L941.56 136.34H923.574Z" fill="#0C0A09"/>
<path d="M838.194 138.613C830.53 138.613 824.164 137.287 819.096 134.636C814.028 131.985 810.257 128.45 807.785 124.032C805.313 119.614 804.077 114.816 804.077 109.641C804.077 100.046 807.661 92.6611 814.831 87.4852C822.001 82.3093 831.766 79.7214 844.128 79.7214H868.974V78.5852C868.974 70.3795 866.873 64.1937 862.67 60.0278C858.467 55.7356 852.843 53.5895 845.797 53.5895C839.739 53.5895 834.486 55.1675 830.036 58.3235C825.709 61.3533 822.99 65.8348 821.877 71.7682H805.931C806.549 64.9512 808.774 59.2072 812.606 54.5363C816.562 49.8653 821.445 46.3306 827.254 43.932C833.064 41.4072 839.245 40.1448 845.797 40.1448C858.653 40.1448 868.294 43.6795 874.722 50.749C881.274 57.6923 884.55 66.971 884.55 78.5852V136.341H870.643L869.716 119.487C867.12 124.789 863.288 129.334 858.22 133.121C853.275 136.782 846.6 138.613 838.194 138.613ZM840.605 125.168C846.538 125.168 851.606 123.59 855.809 120.434C860.136 117.278 863.412 113.175 865.637 108.126C867.862 103.076 868.974 97.7739 868.974 92.2192V92.0299H845.426C836.278 92.0299 829.789 93.671 825.956 96.9533C822.248 100.109 820.394 104.086 820.394 108.883C820.394 113.806 822.124 117.783 825.586 120.813C829.17 123.716 834.177 125.168 840.605 125.168Z" fill="#0C0A09"/>
<path d="M781.756 21.5872C778.789 21.5872 776.255 20.5773 774.154 18.5574C772.052 16.4113 771.001 13.7603 771.001 10.6043C771.001 7.57447 772.052 5.04964 774.154 3.02978C776.255 1.00993 778.789 0 781.756 0C784.723 0 787.195 1.00993 789.173 3.02978C791.274 5.04964 792.325 7.57447 792.325 10.6043C792.325 13.7603 791.274 16.4113 789.173 18.5574C787.195 20.5773 784.723 21.5872 781.756 21.5872ZM753.572 178V164.366H760.803C765.377 164.366 768.653 163.356 770.631 161.336C772.732 159.443 773.783 156.16 773.783 151.489V42.417H789.358V151.868C789.358 160.957 787.133 167.585 782.683 171.751C778.233 175.917 771.743 178 763.214 178H753.572Z" fill="#0C0A09"/>
<path d="M712.596 138.613C703.943 138.613 696.155 136.593 689.233 132.553C682.31 128.514 676.81 122.833 672.73 115.511C668.775 108.063 666.797 99.3519 666.797 89.3788C666.797 79.4058 668.837 70.7583 672.916 63.4363C676.995 55.988 682.496 50.2441 689.418 46.2044C696.464 42.1646 704.314 40.1448 712.967 40.1448C721.62 40.1448 729.408 42.1646 736.33 46.2044C743.253 50.2441 748.692 55.988 752.647 63.4363C756.726 70.7583 758.766 79.4058 758.766 89.3788C758.766 99.3519 756.726 108.063 752.647 115.511C748.568 122.833 743.005 128.514 735.959 132.553C729.037 136.593 721.249 138.613 712.596 138.613ZM712.596 124.979C717.911 124.979 722.856 123.653 727.43 121.002C732.004 118.351 735.712 114.375 738.555 109.072C741.398 103.77 742.82 97.2058 742.82 89.3788C742.82 81.5519 741.398 74.9873 738.555 69.6852C735.836 64.3831 732.189 60.4065 727.615 57.7554C723.042 55.1043 718.159 53.7788 712.967 53.7788C707.652 53.7788 702.707 55.1043 698.133 57.7554C693.559 60.4065 689.851 64.3831 687.008 69.6852C684.165 74.9873 682.743 81.5519 682.743 89.3788C682.743 97.2058 684.165 103.77 687.008 109.072C689.851 114.375 693.498 118.351 697.948 121.002C702.521 123.653 707.404 124.979 712.596 124.979Z" fill="#0C0A09"/>
<path d="M526.388 136.341V3.78735H544.559L591.285 96.1959L637.641 3.78735H655.998V136.341H640.422V32.1916L597.033 117.404H585.352L541.963 32.381V136.341H526.388Z" fill="#0C0A09"/>
<path d="M448.023 138.613C439.37 138.613 431.582 136.593 424.66 132.553C417.737 128.514 412.236 122.833 408.157 115.511C404.201 108.063 402.224 99.3519 402.224 89.3788C402.224 79.4058 404.263 70.7583 408.343 63.4363C412.422 55.988 417.923 50.2441 424.845 46.2044C431.891 42.1646 439.741 40.1448 448.394 40.1448C457.047 40.1448 464.834 42.1646 471.757 46.2044C478.679 50.2441 484.118 55.988 488.074 63.4363C492.153 70.7583 494.193 79.4058 494.193 89.3788C494.193 99.3519 492.153 108.063 488.074 115.511C483.995 122.833 478.432 128.514 471.386 132.553C464.464 136.593 456.676 138.613 448.023 138.613ZM448.023 124.979C453.338 124.979 458.283 123.653 462.857 121.002C467.43 118.351 471.139 114.375 473.982 109.072C476.825 103.77 478.247 97.2058 478.247 89.3788C478.247 81.5519 476.825 74.9873 473.982 69.6852C471.262 64.3831 467.616 60.4065 463.042 57.7554C458.468 55.1043 453.585 53.7788 448.394 53.7788C443.078 53.7788 438.134 55.1043 433.56 57.7554C428.986 60.4065 425.278 64.3831 422.435 69.6852C419.591 74.9873 418.17 81.5519 418.17 89.3788C418.17 97.2058 419.591 103.77 422.435 109.072C425.278 114.375 428.924 118.351 433.375 121.002C437.948 123.653 442.831 124.979 448.023 124.979Z" fill="#0C0A09"/>
<path d="M380.076 21.5872C376.985 21.5872 374.389 20.5773 372.288 18.5574C370.31 16.4113 369.321 13.7603 369.321 10.6043C369.321 7.57447 370.31 5.04964 372.288 3.02978C374.389 1.00993 376.985 0 380.076 0C383.043 0 385.577 1.00993 387.678 3.02978C389.78 5.04964 390.83 7.57447 390.83 10.6043C390.83 13.7603 389.78 16.4113 387.678 18.5574C385.577 20.5773 383.043 21.5872 380.076 21.5872ZM372.288 136.34V42.417H387.863V136.34H372.288Z" fill="#0C0A09"/>
<path d="M303.324 138.613C294.176 138.613 286.141 136.467 279.219 132.174C272.42 127.882 267.105 122.012 263.273 114.564C259.564 107.116 257.71 98.6574 257.71 89.1894C257.71 79.7213 259.626 71.3262 263.458 64.0042C267.29 56.556 272.606 50.7489 279.404 46.583C286.203 42.2908 294.238 40.1447 303.509 40.1447C311.05 40.1447 317.725 41.7227 323.535 44.8787C329.345 48.0347 333.857 52.4532 337.071 58.134V0H352.646V136.34H338.554L337.071 120.813C334.104 125.357 329.839 129.46 324.276 133.121C318.714 136.782 311.73 138.613 303.324 138.613ZM304.993 124.789C311.173 124.789 316.612 123.338 321.31 120.434C326.131 117.404 329.839 113.238 332.435 107.936C335.155 102.634 336.514 96.4482 336.514 89.3787C336.514 82.3092 335.155 76.1234 332.435 70.8213C329.839 65.5191 326.131 61.4163 321.31 58.5128C316.612 55.483 311.173 53.9681 304.993 53.9681C298.935 53.9681 293.496 55.483 288.675 58.5128C283.978 61.4163 280.27 65.5191 277.55 70.8213C274.954 76.1234 273.656 82.3092 273.656 89.3787C273.656 96.4482 274.954 102.634 277.55 107.936C280.27 113.238 283.978 117.404 288.675 120.434C293.496 123.338 298.935 124.789 304.993 124.789Z" fill="#0C0A09"/>
<path d="M199.369 138.613C188.491 138.613 179.838 135.267 173.41 128.576C166.982 121.759 163.768 111.345 163.768 97.3318V42.4169H179.344V95.6275C179.344 115.195 187.193 124.979 202.892 124.979C210.927 124.979 217.54 122.075 222.732 116.268C228.048 110.335 230.705 101.94 230.705 91.0828V42.4169H246.281V136.34H232.189L231.076 119.487C228.233 125.42 223.968 130.091 218.282 133.5C212.719 136.908 206.415 138.613 199.369 138.613Z" fill="#0C0A09"/>
<path d="M136.412 136.34C128.007 136.34 121.393 134.257 116.572 130.091C111.751 125.925 109.341 118.414 109.341 107.557V55.8615H93.3945V42.4169H109.341L111.38 19.8828H124.916V42.4169H151.988V55.8615H124.916V107.557C124.916 113.491 126.091 117.53 128.439 119.676C130.788 121.696 134.929 122.706 140.863 122.706H150.504V136.34H136.412Z" fill="#0C0A09"/>
<path d="M46.9118 138.613C37.3934 138.613 29.1113 136.845 22.0652 133.31C15.0192 129.776 9.58014 124.852 5.74808 118.54C1.91603 112.228 0 104.906 0 96.5743H16.3171C16.3171 101.75 17.4915 106.547 19.8402 110.966C22.1888 115.258 25.5882 118.73 30.0384 121.381C34.6121 123.906 40.2366 125.168 46.9118 125.168C55.6884 125.168 62.4872 123.022 67.3082 118.73C72.1291 114.437 74.5396 109.072 74.5396 102.634C74.5396 97.3318 73.4271 93.1027 71.202 89.9467C68.977 86.6644 65.9484 84.0133 62.1164 81.9935C58.4079 79.9736 54.0814 78.2062 49.1368 76.6913C44.3159 75.1764 39.2477 73.4722 33.9322 71.5786C23.9194 68.0438 16.5026 63.6885 11.6816 58.5126C6.86061 53.2105 4.45013 46.3304 4.45013 37.8722C4.32651 30.8027 5.9335 24.5538 9.2711 19.1254C12.6087 13.5708 17.3061 9.27859 23.3632 6.24881C29.5439 3.09278 36.8372 1.51477 45.243 1.51477C53.5251 1.51477 60.6948 3.09278 66.7519 6.24881C72.9326 9.40483 77.6918 13.7602 81.0294 19.3148C84.4906 24.8694 86.283 31.1814 86.4066 38.2509H70.0895C70.0895 34.5899 69.1624 30.9921 67.3082 27.4573C65.454 23.7963 62.6108 20.8297 58.7788 18.5573C55.0703 16.285 50.373 15.1488 44.6867 15.1488C37.6407 15.0226 31.8308 16.8531 27.257 20.6403C22.8069 24.4275 20.5818 29.6665 20.5818 36.3573C20.5818 42.0382 22.127 46.3935 25.2174 49.4233C28.4314 52.4531 32.8815 54.9779 38.5678 56.9977C44.254 58.8914 50.8056 61.1006 58.2225 63.6254C64.4032 65.8977 69.9659 68.5488 74.9105 71.5786C79.8551 74.6084 83.6871 78.5219 86.4066 83.319C89.2498 88.1162 90.6714 94.2389 90.6714 101.687C90.6714 107.999 89.0644 113.996 85.8504 119.676C82.6364 125.231 77.7536 129.776 71.202 133.31C64.7741 136.845 56.6773 138.613 46.9118 138.613Z" fill="#0C0A09"/>
</svg>
