<svg width="2000" height="2000" viewBox="0 0 2000 2000" fill="none" xmlns="http://www.w3.org/2000/svg">
<rect width="2000" height="2000" fill="#274AFF"/>
<path fill-rule="evenodd" clip-rule="evenodd" d="M1085.52 1099.3H821.491L942.304 956.333C975.863 916.733 1003.55 882.503 1025.36 853.642C1047.51 824.446 1064.29 799.276 1075.7 778.134C1098.19 737.527 1109.43 696.082 1109.43 653.797C1109.43 587.35 1085.27 531.642 1036.94 486.673C988.951 441.703 929.551 419.219 858.741 419.219C712.088 419.219 629.365 501.103 610.571 664.872H727.357C738.767 571.913 783.737 525.433 862.265 525.433C899.851 525.433 931.397 537.683 956.902 562.181C982.407 586.679 995.159 617.05 995.159 653.294C995.159 678.463 985.595 706.821 966.466 738.366C957.07 754.475 943.311 774.442 925.189 798.269C907.402 822.096 885.253 850.286 858.741 882.838L588.926 1209.54H1009.65L830.55 1469.79H1212.12V1580.03H1329.41V1469.79H1411.96V1363.07H1329.41V744.91L1085.52 1099.3ZM1212.12 1102.82V1363.07H1032.91L1212.12 1102.82Z" fill="white"/>
<path d="M977.456 1020.77L985.188 1009.69L1027.46 1022.42C1030.15 1023.25 1033.88 1024.48 1038.65 1026.13C1043.42 1027.77 1046.01 1028.67 1046.41 1028.85L1046.56 1028.64C1045.06 1026.85 1042.83 1024.08 1039.86 1020.32C1036.94 1016.48 1035.04 1013.99 1034.15 1012.84L1007.57 977.649L1015.23 966.683L1059.17 1028.73L1050.91 1040.55L977.456 1020.77Z" fill="white"/>
<path d="M1046.94 982.968C1037.71 976.524 1032.02 968.8 1029.86 959.795C1027.7 950.791 1029.37 942.349 1034.87 934.471C1040.37 926.593 1047.56 922.27 1056.44 921.501C1065.37 920.662 1074.2 923.291 1082.93 929.387C1084.07 930.18 1085.58 931.342 1087.47 932.872L1057.72 975.456C1063.12 979.224 1068.83 980.944 1074.87 980.619C1080.88 980.172 1085.77 977.252 1089.54 971.858C1094.6 964.619 1095.17 957.15 1091.25 949.453L1099.78 942.901C1102.83 947.77 1104.3 953.289 1104.22 959.46C1104.11 965.509 1101.93 971.586 1097.66 977.69C1091.96 985.852 1084.48 990.445 1075.21 991.469C1065.87 992.444 1056.45 989.61 1046.94 982.968ZM1050.53 970.113L1073.2 937.642C1067.88 933.925 1062.38 932.197 1056.71 932.458C1051.04 932.72 1046.49 935.299 1043.07 940.196C1039.6 945.165 1038.74 950.477 1040.49 956.135C1042.17 961.743 1045.52 966.402 1050.53 970.113Z" fill="white"/>
<path d="M1122.14 938.558L1063.48 897.59L1070.32 887.795L1079.48 894.19L1079.55 894.083C1077.57 891.326 1076.5 887.569 1076.34 882.81C1076.15 877.931 1077.67 873.185 1080.9 868.571C1084.81 862.965 1089.72 859.637 1095.63 858.588C1101.59 857.468 1108.64 859.758 1116.81 865.458L1154.71 891.927L1147.64 902.041L1111.34 876.687C1100.76 869.302 1092.9 869.3 1087.74 876.681C1084.82 880.868 1084.03 885.703 1085.38 891.183C1086.7 896.543 1089.78 900.909 1094.6 904.279L1129.2 928.444L1122.14 938.558Z" fill="white"/>
<path d="M1110.63 847.997L1102.22 842.123L1109.13 832.222L1090.82 819.434L1097.81 809.427L1116.12 822.215L1126.38 807.523L1134.79 813.397L1124.53 828.089L1157 850.766C1160.34 853.096 1163.16 854.117 1165.47 853.831C1167.79 853.545 1169.91 852.018 1171.84 849.25L1176.6 842.436L1185.12 848.385L1179.47 856.476C1171.68 867.619 1162.15 869.249 1150.87 861.368L1117.54 838.096L1110.63 847.997Z" fill="white"/>
<path d="M1171.69 823.165L1133.89 796.771L1140.88 786.763L1176.97 811.968C1187.69 819.453 1195.75 819.327 1201.15 811.591C1204.42 806.907 1205.07 801.974 1203.09 796.791C1201.12 791.609 1197.57 787.234 1192.46 783.665L1159.25 760.467L1166.16 750.566L1224.82 791.534L1218.13 801.116L1209.61 795.167L1209.54 795.274C1211.33 797.69 1212.41 801.136 1212.77 805.611C1213.06 810.036 1211.47 814.732 1208 819.701C1204.13 825.237 1199.07 828.561 1192.8 829.674C1186.46 830.738 1179.42 828.568 1171.69 823.165Z" fill="white"/>
<path d="M1236.12 775.352L1177.46 734.384L1184.15 724.803L1191.92 730.23C1190.23 727.36 1189.31 723.918 1189.16 719.904C1189.01 715.89 1190.29 711.931 1193.02 708.027C1195.1 705.046 1197.48 702.696 1200.16 700.977L1209.21 707.297C1206.43 709.158 1204.05 711.508 1202.07 714.347C1198.75 719.102 1197.98 724.057 1199.76 729.211C1201.6 734.294 1205.5 738.918 1211.46 743.081L1243.19 765.238L1236.12 775.352Z" fill="white"/>
<path d="M1232.37 717.453C1223.14 711.009 1217.45 703.285 1215.29 694.28C1213.13 685.275 1214.8 676.834 1220.3 668.956C1225.81 661.078 1233 656.754 1241.88 655.986C1250.8 655.146 1259.63 657.775 1268.36 663.872C1269.5 664.665 1271.01 665.827 1272.9 667.356L1243.16 709.941C1248.55 713.708 1254.27 715.429 1260.3 715.103C1266.31 714.657 1271.2 711.737 1274.97 706.343C1280.03 699.103 1280.6 691.635 1276.68 683.937L1285.22 677.385C1288.26 682.254 1289.74 687.774 1289.65 693.944C1289.54 699.994 1287.36 706.071 1283.1 712.174C1277.39 720.336 1269.91 724.93 1260.64 725.954C1251.3 726.928 1241.88 724.095 1232.37 717.453ZM1235.96 704.598L1258.64 672.127C1253.31 668.409 1247.82 666.681 1242.14 666.943C1236.47 667.204 1231.92 669.784 1228.5 674.681C1225.03 679.649 1224.17 684.962 1225.92 690.62C1227.6 696.228 1230.95 700.887 1235.96 704.598Z" fill="white"/>
<path d="M1292.56 669.367L1293.43 659.047C1302.81 659.37 1309.96 656.019 1314.87 648.992C1317.64 645.018 1319.13 641.303 1319.32 637.849C1319.52 634.395 1318.27 631.726 1315.57 629.843C1314.58 629.149 1313.53 628.682 1312.43 628.442C1311.38 628.131 1310.15 628.224 1308.75 628.722C1307.32 629.1 1306.15 629.495 1305.23 629.907C1304.29 630.199 1302.85 631.044 1300.92 632.444C1299.05 633.772 1297.64 634.798 1296.71 635.523C1295.84 636.176 1294.16 637.437 1291.7 639.305C1289.13 641.314 1286.84 642.934 1284.82 644.163C1282.78 645.272 1280.42 646.373 1277.76 647.468C1275.07 648.443 1272.39 648.733 1269.71 648.339C1267.03 647.945 1264.41 646.855 1261.85 645.071C1256.88 641.601 1254.29 636.778 1254.06 630.601C1253.81 624.303 1256.02 617.819 1260.68 611.147C1264.05 606.321 1268.45 602.742 1273.88 600.41C1279.24 598.028 1284.37 597.178 1289.28 597.861L1288.85 607.542C1285.23 607.44 1281.62 608.142 1278.04 609.65C1274.38 611.108 1271.39 613.504 1269.06 616.84C1266.28 620.815 1264.93 624.412 1265 627.632C1265.06 630.731 1266.4 633.197 1269.02 635.031C1270.58 636.122 1272.28 636.723 1274.1 636.834C1275.9 636.825 1277.94 636.245 1280.22 635.094C1282.44 633.893 1284.24 632.827 1285.63 631.896C1287.06 630.895 1289.07 629.389 1291.63 627.379C1294.25 625.299 1296.65 623.597 1298.84 622.276C1301.08 620.883 1303.62 619.593 1306.45 618.406C1309.29 617.219 1312.09 616.751 1314.87 617.003C1317.7 617.185 1320.33 618.118 1322.74 619.803C1327.42 623.075 1329.96 627.909 1330.35 634.305C1330.67 640.652 1328.3 647.446 1323.25 654.685C1319.48 660.079 1314.93 664.027 1309.59 666.529C1304.25 669.032 1298.57 669.977 1292.56 669.367Z" fill="white"/>
</svg>
