<svg width="2000" height="2000" viewBox="0 0 2000 2000" fill="none" xmlns="http://www.w3.org/2000/svg">
<rect width="2000" height="2000" fill="#1C1917"/>
<path d="M1423.77 816.631H1332.73V679.234H1586V1303.31H1423.77V816.631Z" fill="white"/>
<path d="M1261.09 679.234L1083.97 882.846H1087.28C1102.73 873.466 1115.42 867.948 1125.35 866.293C1135.28 864.085 1144.11 862.982 1151.84 862.982C1182.19 862.982 1210.05 868.776 1235.44 880.363C1260.82 891.951 1282.89 907.953 1301.65 928.369C1320.41 948.234 1335.03 971.685 1345.52 998.723C1356 1025.76 1361.24 1054.73 1361.24 1085.63C1361.24 1118.74 1355.17 1149.64 1343.03 1178.33C1330.9 1206.47 1313.24 1231.3 1290.06 1252.82C1267.44 1273.79 1239.85 1290.35 1207.29 1302.49C1174.74 1314.62 1138.04 1320.69 1097.21 1320.69C1055.83 1320.69 1018.86 1314.62 986.3 1302.49C953.744 1290.35 925.879 1273.79 902.703 1252.82C880.08 1231.86 862.698 1207.58 850.559 1179.99C838.419 1151.85 832.35 1122.05 832.35 1090.6C832.35 1055.28 840.075 1017.21 855.525 976.375C871.527 934.991 895.806 894.434 928.362 854.705L1073.21 679.234H1261.09ZM992.922 1088.94C992.922 1103.29 995.681 1116.81 1001.2 1129.5C1006.72 1141.64 1014.17 1152.4 1023.55 1161.78C1032.93 1171.16 1043.69 1178.61 1055.83 1184.13C1068.52 1189.64 1082.04 1192.4 1096.38 1192.4C1110.73 1192.4 1123.97 1189.64 1136.11 1184.13C1148.8 1178.61 1159.84 1171.16 1169.22 1161.78C1178.6 1152.4 1186.05 1141.64 1191.57 1129.5C1197.09 1116.81 1199.84 1103.29 1199.84 1088.94C1199.84 1074.59 1197.09 1061.35 1191.57 1049.21C1186.05 1036.52 1178.6 1025.49 1169.22 1016.1C1159.84 1006.72 1148.8 999.275 1136.11 993.757C1123.97 988.239 1110.73 985.48 1096.38 985.48C1082.04 985.48 1068.52 988.239 1055.83 993.757C1043.69 999.275 1032.93 1006.72 1023.55 1016.1C1014.17 1025.49 1006.72 1036.52 1001.2 1049.21C995.681 1061.35 992.922 1074.59 992.922 1088.94Z" fill="white"/>
<path d="M698.282 816.631H437.56V679.234H949.9L592.338 1303.31H413.557L698.282 816.631Z" fill="white"/>
</svg>
