<svg width="2000" height="2000" viewBox="0 0 2000 2000" fill="none" xmlns="http://www.w3.org/2000/svg">
<rect width="2000" height="2000" fill="#F5EFBD"/>
<path fill-rule="evenodd" clip-rule="evenodd" d="M619.418 756.296C651.14 756.296 676.855 782.012 676.855 813.734V928.609C676.855 960.33 702.571 986.046 734.293 986.046H849.168C880.89 986.046 906.605 1011.76 906.605 1043.48V1187.08C906.605 1218.8 880.89 1244.51 849.168 1244.51H705.574C673.852 1244.51 648.137 1218.8 648.137 1187.08V1072.2C648.137 1040.48 622.421 1014.76 590.699 1014.76H475.824C444.102 1014.76 418.387 989.049 418.387 957.327V813.734C418.387 782.012 444.102 756.296 475.824 756.296H619.418ZM1136.36 756.296C1168.08 756.296 1193.79 782.012 1193.79 813.734V986.046V1014.76V1187.08C1193.79 1218.8 1168.08 1244.51 1136.36 1244.51H992.761C961.04 1244.51 935.324 1218.8 935.324 1187.08V1014.76V986.046V813.734C935.324 782.012 961.04 756.296 992.761 756.296H1136.36Z" fill="#111111"/>
<path d="M1541.92 1129.86C1550.82 1129.86 1557.77 1127.4 1562.78 1122.46C1567.79 1117.45 1570.3 1111.5 1570.3 1104.62C1570.3 1098.64 1567.9 1093.14 1563.12 1088.13C1558.33 1083.12 1551.04 1080.62 1541.24 1080.62C1531.52 1080.62 1524.49 1083.12 1520.15 1088.13C1515.81 1093.14 1513.65 1099.01 1513.65 1105.74C1513.65 1113.3 1516.45 1119.21 1522.06 1123.47C1527.67 1127.73 1534.29 1129.86 1541.92 1129.86ZM1543.15 1209.4C1552.5 1209.4 1560.24 1206.9 1566.37 1201.89C1572.58 1196.8 1575.68 1189.25 1575.68 1179.22C1575.68 1168.83 1572.5 1160.94 1566.15 1155.55C1559.79 1150.17 1551.64 1147.48 1541.69 1147.48C1532.04 1147.48 1524.15 1150.24 1518.02 1155.78C1511.96 1161.24 1508.93 1168.83 1508.93 1178.55C1508.93 1186.93 1511.7 1194.18 1517.24 1200.31C1522.84 1206.37 1531.48 1209.4 1543.15 1209.4ZM1514.43 1137.6C1508.82 1135.21 1504.45 1132.41 1501.31 1129.19C1495.4 1123.21 1492.44 1115.43 1492.44 1105.86C1492.44 1093.89 1496.78 1083.61 1505.46 1075.01C1514.13 1066.41 1526.43 1062.11 1542.36 1062.11C1557.77 1062.11 1569.85 1066.18 1578.6 1074.33C1587.35 1082.41 1591.72 1091.87 1591.72 1102.72C1591.72 1112.74 1589.18 1120.85 1584.1 1127.06C1581.25 1130.57 1576.84 1134.01 1570.86 1137.38C1577.51 1140.45 1582.75 1143.96 1586.56 1147.93C1593.67 1155.4 1597.22 1165.13 1597.22 1177.09C1597.22 1191.23 1592.47 1203.23 1582.97 1213.1C1573.48 1222.9 1560.05 1227.8 1542.7 1227.8C1527.07 1227.8 1513.83 1223.57 1502.99 1215.12C1492.22 1206.6 1486.83 1194.26 1486.83 1178.1C1486.83 1168.6 1489.15 1160.42 1493.79 1153.53C1498.43 1146.58 1505.31 1141.27 1514.43 1137.6Z" fill="#111111"/>
<path d="M1390.62 1164.53C1390.62 1177.39 1393.35 1188.16 1398.81 1196.84C1404.27 1205.51 1413.02 1209.85 1425.06 1209.85C1434.41 1209.85 1442.08 1205.85 1448.06 1197.85C1454.12 1189.77 1457.15 1178.21 1457.15 1163.18C1457.15 1148 1454.04 1136.78 1447.84 1129.53C1441.63 1122.2 1433.96 1118.53 1424.84 1118.53C1414.67 1118.53 1406.4 1122.42 1400.05 1130.2C1393.76 1137.98 1390.62 1149.42 1390.62 1164.53ZM1421.02 1100.92C1430.22 1100.92 1437.93 1102.87 1444.13 1106.75C1447.72 1109 1451.8 1112.92 1456.36 1118.53V1057.84H1475.77V1223.2H1457.6V1206.48C1452.88 1213.89 1447.31 1219.24 1440.88 1222.53C1434.45 1225.82 1427.08 1227.46 1418.78 1227.46C1405.39 1227.46 1393.8 1221.85 1384 1210.64C1374.21 1199.34 1369.31 1184.35 1369.31 1165.65C1369.31 1148.15 1373.76 1133.01 1382.66 1120.22C1391.63 1107.35 1404.42 1100.92 1421.02 1100.92Z" fill="#111111"/>
<path d="M1277.14 1184.38C1277.74 1195.53 1282.04 1203.23 1290.04 1207.49C1294.16 1209.74 1298.79 1210.86 1303.95 1210.86C1313.6 1210.86 1321.83 1206.86 1328.63 1198.86C1335.44 1190.78 1340.26 1174.44 1343.11 1149.83C1338.62 1156.94 1333.05 1161.95 1326.39 1164.86C1319.81 1167.71 1312.7 1169.13 1305.08 1169.13C1289.59 1169.13 1277.33 1164.3 1268.28 1154.66C1259.31 1145.01 1254.82 1132.59 1254.82 1117.41C1254.82 1102.83 1259.27 1090 1268.17 1078.93C1277.07 1067.86 1290.19 1062.33 1307.54 1062.33C1330.95 1062.33 1347.11 1072.88 1356.01 1093.97C1360.94 1105.56 1363.41 1120.07 1363.41 1137.49C1363.41 1157.16 1360.46 1174.59 1354.55 1189.77C1344.75 1215.05 1328.15 1227.69 1304.74 1227.69C1289.03 1227.69 1277.11 1223.57 1268.95 1215.35C1260.8 1207.12 1256.73 1196.8 1256.73 1184.38H1277.14ZM1307.77 1151.4C1315.77 1151.4 1323.06 1148.79 1329.64 1143.55C1336.3 1138.24 1339.63 1129 1339.63 1115.84C1339.63 1104.02 1336.64 1095.24 1330.65 1089.48C1324.75 1083.64 1317.19 1080.73 1307.99 1080.73C1298.12 1080.73 1290.27 1084.06 1284.43 1090.71C1278.68 1097.29 1275.8 1106.12 1275.8 1117.19C1275.8 1127.66 1278.34 1136 1283.42 1142.2C1288.51 1148.34 1296.63 1151.4 1307.77 1151.4Z" fill="#111111"/>
</svg>
