<svg width="2000" height="2000" viewBox="0 0 2000 2000" fill="none" xmlns="http://www.w3.org/2000/svg">
<rect width="2000" height="2000" fill="white"/>
<path fill-rule="evenodd" clip-rule="evenodd" d="M1071.05 604.769C1170.76 589.058 1265.26 629.318 1317.76 709.316L1317.76 709.316C1350.11 758.738 1411.26 896.53 1278.63 1107.03C1164.33 1289 1033.18 1392.95 909.454 1399.72L900.742 1399.87C828.222 1401.16 762.921 1367.35 711.348 1302.92C632.57 1203.12 615.666 1036.01 670.594 896.594C732.812 738.206 875.513 634.488 1071.05 604.769ZM735.122 1265.23C737.995 1269.38 740.992 1273.43 744.116 1277.39L744.118 1277.39C758.642 1295.84 775.73 1312.11 794.859 1325.72C745.546 1168.75 869.109 1013.48 932.087 934.341L932.451 933.884L944.498 919.186C990.719 859.984 987.673 798.606 984.964 744.192C982.415 718.053 983.416 691.694 987.932 665.823C955.774 675.747 925.724 688.164 897.973 702.943C893.87 711.23 892.823 720.327 893.21 732.966C893.332 736.959 893.649 741.756 894.001 747.07C894.7 757.644 895.535 770.265 895.237 782.667C894.251 823.639 881.942 874.204 826.746 942.506C737.194 1053.32 736.209 1155.91 735.353 1245.18C735.288 1251.94 735.224 1258.62 735.122 1265.23ZM702.045 1199.98C704.815 1118.63 718.676 1022.09 800.276 921.115C851.209 858.088 860.425 814.626 861.214 781.849C861.484 770.597 860.849 761.461 860.201 752.141L860.201 752.139C859.799 746.351 859.391 740.49 859.193 734.007C859.114 731.424 859.078 728.814 859.115 726.182C790.499 772.109 739.243 834.726 709.089 911.487C676.855 993.653 668.788 1107.02 702.045 1199.98ZM907.521 1358.58L907.524 1358.58L907.518 1358.26C999.467 1353.14 1101.55 1280.53 1194.66 1156.78C1177.17 1128.88 1140.02 1054.27 1181.64 975.436C1219.68 902.984 1280.83 899.392 1316.17 902.251C1328.15 816.425 1300.67 759.183 1283.09 732.373C1239.65 666.049 1160.75 633.027 1077.32 645.399C1064.28 647.371 1051.69 649.771 1039.21 652.499C1023.11 672.063 1024.53 703.084 1026.43 742.151L1026.44 742.418C1029.32 800.813 1032.91 873.505 976.543 945.197L964.825 959.998L964.769 960.068C901.244 1039.86 769.967 1204.76 851.324 1352.93C869.645 1357.75 888.61 1359.66 907.521 1358.58ZM1221.23 1119.49C1228.87 1108.24 1236.51 1096.78 1244.03 1084.77L1244.03 1084.78C1272.32 1041.01 1293.73 993.17 1307.52 942.921C1275.36 941.205 1241.94 948.332 1217.81 994.29C1198.3 1034.05 1199.58 1080.86 1221.23 1119.49Z" fill="#111111"/>
</svg>
