<svg width="2000" height="2000" viewBox="0 0 2000 2000" fill="none" xmlns="http://www.w3.org/2000/svg">
<rect width="2000" height="2000" fill="#F5F5F5"/>
<path d="M1503.97 985.304L1503.95 738.618C1503.97 705.597 1475.19 676.836 1442.16 676.889L1343.6 676.889C1310.37 676.889 1272.09 716.899 1254.61 770.006L1212.9 896.843C1211.91 899.908 1210.64 902.74 1209.47 905.676V738.616C1209.47 704.581 1181.8 676.886 1147.73 676.887C1147.73 676.887 1147.71 676.861 1147.68 676.887L1049.12 676.887C1016.38 676.861 977.324 717.806 960.159 770.029L918.421 896.84C917.458 899.88 916.184 902.66 915.04 905.57V738.616C915.014 704.607 887.371 676.886 853.305 676.887C853.305 676.887 853.279 676.861 853.253 676.887L754.696 676.887C721.956 676.861 682.896 717.806 665.731 770.029L623.993 896.84C623.005 899.906 621.704 902.712 620.586 905.596L620.506 689.358C620.506 682.447 614.889 676.835 607.998 676.861L509.441 676.861C506.086 676.887 502.914 678.186 500.547 680.551C498.207 682.889 496.88 686.085 496.854 689.384L496.881 936.07C496.855 952.568 503.278 968.078 514.98 979.769C526.656 991.434 542.181 997.851 558.694 997.825L657.251 997.825C689.991 997.851 729.051 956.906 746.216 904.682L787.954 777.872C788.942 774.858 790.191 772.052 791.309 769.168V936.069C791.283 952.566 797.706 968.077 809.382 979.742C821.058 991.407 836.582 997.824 853.122 997.824L951.679 997.824C984.419 997.85 1023.48 956.904 1040.64 904.681L1082.38 777.87C1083.34 774.831 1084.62 772.051 1085.76 769.141V936.095C1085.76 953.085 1092.68 968.57 1103.86 979.742C1115.04 990.913 1130.49 997.876 1147.55 997.824L1246.11 997.824C1278.82 997.824 1317.93 956.93 1335.1 904.707L1376.81 777.87C1377.82 774.779 1379.1 771.999 1380.27 769.063V985.327C1380.27 988.808 1381.7 991.9 1383.96 994.16C1386.22 996.421 1389.34 997.824 1392.8 997.85H1491.36C1494.69 997.85 1497.86 996.499 1500.2 994.16C1502.67 991.796 1503.97 988.627 1503.97 985.301L1503.97 985.304ZM521.929 936.047L521.909 701.885L595.45 701.885L595.45 948.438C582.604 963.663 568.874 972.807 558.653 972.834C539.071 972.808 521.961 955.66 521.935 936.046L521.929 936.047ZM722.504 896.839C707.811 941.604 676.346 972.78 657.314 972.777H607.125C610.22 969.633 613.21 966.022 616.148 962.411C616.773 961.84 617.319 961.19 617.813 960.489C630.087 945.004 640.723 925.805 647.692 904.605L689.43 777.794C704.123 733.029 735.589 701.853 754.621 701.856L804.81 701.856C801.663 705.052 798.647 708.689 795.682 712.327C795.11 712.846 794.616 713.444 794.174 714.041C781.874 729.551 771.212 748.777 764.242 769.977L722.504 896.839ZM816.434 936.07L816.414 726.277C829.261 711.053 842.991 701.908 853.211 701.881C873.443 701.881 889.982 718.353 889.982 738.618V948.43C877.135 963.655 863.405 972.8 853.185 972.826C833.577 972.774 816.388 955.705 816.44 936.064L816.434 936.07ZM1016.96 896.862C1002.26 941.627 970.798 972.804 951.765 972.8L901.577 972.8C904.671 969.657 907.662 966.046 910.6 962.434C911.224 961.863 911.77 961.213 912.264 960.512C924.538 945.028 935.174 925.828 942.144 904.628L983.882 777.817C998.575 733.053 1030.04 701.876 1049.07 701.879L1099.26 701.879C1096.14 705.049 1093.12 708.686 1090.16 712.324C1089.59 712.844 1089.12 713.415 1088.65 714.039C1076.33 729.523 1065.69 748.774 1058.67 770.026L1016.96 896.862ZM1110.91 936.068L1110.91 726.255C1123.73 711.056 1137.49 701.885 1147.71 701.859C1167.94 701.859 1184.48 718.383 1184.48 738.595L1184.43 948.461C1171.61 963.66 1157.85 972.831 1147.63 972.805C1127.4 972.805 1110.89 956.306 1110.91 936.068ZM1311.49 896.86C1296.77 941.599 1265.3 972.775 1246.3 972.798L1196.11 972.798C1199.2 969.654 1202.19 966.043 1205.16 962.406C1205.78 961.834 1206.3 961.211 1206.77 960.535C1219.1 945.051 1229.71 925.825 1236.7 904.651L1278.39 777.841C1293.11 733.051 1324.57 701.926 1343.58 701.903L1393.3 701.903C1376.71 718.635 1362.17 742.615 1353.12 770.05L1311.49 896.86ZM1405.39 972.802V726.249C1418.24 711.025 1431.97 701.88 1442.16 701.879C1461.82 701.879 1478.93 718.975 1478.91 738.59L1478.93 972.752L1405.39 972.802Z" fill="url(#paint0_linear_296_893)"/>
<path d="M492.189 1162.43C492.189 1145.83 495.474 1131.11 502.044 1118.27C508.812 1105.43 517.87 1095.55 529.218 1088.64C540.764 1081.72 553.605 1078.27 567.739 1078.27C580.082 1078.27 590.832 1080.74 599.99 1085.67C609.346 1090.61 616.812 1096.84 622.386 1104.34V1080.93H664.491V1245.11H622.386V1221.11C617.011 1228.81 609.545 1235.23 599.99 1240.37C590.633 1245.31 579.783 1247.78 567.441 1247.78C553.505 1247.78 540.764 1244.22 529.218 1237.11C517.87 1230 508.812 1220.02 502.044 1207.18C495.474 1194.14 492.189 1179.22 492.189 1162.43ZM622.386 1163.02C622.386 1152.95 620.395 1144.35 616.414 1137.24C612.432 1129.93 607.057 1124.4 600.288 1120.64C593.52 1116.69 586.253 1114.72 578.489 1114.72C570.725 1114.72 563.559 1116.59 556.989 1120.35C550.42 1124.1 545.044 1129.63 540.864 1136.94C536.882 1144.06 534.891 1152.55 534.891 1162.43C534.891 1172.31 536.882 1181 540.864 1188.51C545.044 1195.82 550.42 1201.45 556.989 1205.4C563.758 1209.35 570.924 1211.33 578.489 1211.33C586.253 1211.33 593.52 1209.45 600.288 1205.7C607.057 1201.74 612.432 1196.21 616.414 1189.1C620.395 1181.79 622.386 1173.1 622.386 1163.02Z" fill="#101323"/>
<path d="M910.769 1078.56C931.075 1078.56 947.399 1084.79 959.742 1097.23C972.284 1109.48 978.555 1126.67 978.555 1148.8V1245.11H936.749V1154.43C936.749 1141.59 933.464 1131.81 926.894 1125.09C920.325 1118.17 911.366 1114.72 900.019 1114.72C888.672 1114.72 879.614 1118.17 872.845 1125.09C866.275 1131.81 862.991 1141.59 862.991 1154.43V1245.11H821.185V1154.43C821.185 1141.59 817.9 1131.81 811.33 1125.09C804.761 1118.17 795.802 1114.72 784.455 1114.72C772.908 1114.72 763.751 1118.17 756.982 1125.09C750.413 1131.81 747.128 1141.59 747.128 1154.43V1245.11H705.322V1080.93H747.128V1100.79C752.503 1093.87 759.371 1088.44 767.732 1084.49C776.293 1080.54 785.649 1078.56 795.802 1078.56C808.742 1078.56 820.289 1081.33 830.442 1086.86C840.595 1092.19 848.458 1099.9 854.032 1109.98C859.407 1100.49 867.171 1092.89 877.324 1087.16C887.676 1081.43 898.825 1078.56 910.769 1078.56Z" fill="#101323"/>
<path d="M1060.03 1104.64C1065.41 1097.13 1072.77 1090.91 1082.13 1085.97C1091.69 1080.83 1102.54 1078.27 1114.68 1078.27C1128.81 1078.27 1141.55 1081.72 1152.9 1088.64C1164.45 1095.55 1173.51 1105.43 1180.08 1118.27C1186.84 1130.92 1190.23 1145.64 1190.23 1162.43C1190.23 1179.22 1186.84 1194.14 1180.08 1207.18C1173.51 1220.02 1164.45 1230 1152.9 1237.11C1141.55 1244.22 1128.81 1247.78 1114.68 1247.78C1102.54 1247.78 1091.79 1245.31 1082.43 1240.37C1073.27 1235.43 1065.81 1229.21 1060.03 1221.7V1323.35H1018.23V1080.93H1060.03V1104.64ZM1147.53 1162.43C1147.53 1152.55 1145.44 1144.06 1141.26 1136.94C1137.27 1129.63 1131.9 1124.1 1125.13 1120.35C1118.56 1116.59 1111.39 1114.72 1103.63 1114.72C1096.07 1114.72 1088.9 1116.69 1082.13 1120.64C1075.56 1124.4 1070.19 1129.93 1066.01 1137.24C1062.02 1144.55 1060.03 1153.14 1060.03 1163.02C1060.03 1172.9 1062.02 1181.49 1066.01 1188.8C1070.19 1196.11 1075.56 1201.74 1082.13 1205.7C1088.9 1209.45 1096.07 1211.33 1103.63 1211.33C1111.39 1211.33 1118.56 1209.35 1125.13 1205.4C1131.9 1201.45 1137.27 1195.82 1141.26 1188.51C1145.44 1181.2 1147.53 1172.51 1147.53 1162.43Z" fill="#101323"/>
<path d="M1259.62 1106.42C1264.99 1097.73 1271.96 1090.91 1280.52 1085.97C1289.28 1081.03 1299.23 1078.56 1310.38 1078.56V1122.13H1299.33C1286.19 1122.13 1276.24 1125.19 1269.47 1131.31C1262.9 1137.44 1259.62 1148.11 1259.62 1163.32V1245.11H1217.81V1080.93H1259.62V1106.42Z" fill="#101323"/>
<path d="M1508 1080.93L1405.58 1322.75H1361.08L1396.92 1240.96L1330.62 1080.93H1377.51L1420.21 1195.62L1463.51 1080.93H1508Z" fill="#101323"/>
<defs>
<linearGradient id="paint0_linear_296_893" x1="1503.97" y1="699.972" x2="1337.17" y2="1191.4" gradientUnits="userSpaceOnUse">
<stop stop-color="#000AFF"/>
<stop offset="1" stop-color="#474DDC"/>
</linearGradient>
</defs>
</svg>
