<svg width="2000" height="2000" viewBox="0 0 2000 2000" fill="none" xmlns="http://www.w3.org/2000/svg">
<rect width="2000" height="2000" fill="white"/>
<path fill-rule="evenodd" clip-rule="evenodd" d="M1558.38 760.782L1558.38 658L1455.6 658L1352.82 658V1069.13H1455.6L1455.6 966.345H1558.38L1558.38 863.563H1455.6V760.782H1558.38ZM1661.16 966.345V863.563V760.782L1558.38 760.782V863.563V966.345H1661.16ZM924.561 658H821.78V966.345H718.998V1069.13L821.78 1069.13H924.561V658ZM1130.13 760.275V658L924.563 658V760.782L1129.62 760.782L941.69 948.71L1014.37 1021.39L1232.91 802.85V906.389L1130.12 906.389V1009.17H1232.91V1069.13H1335.69V658H1232.91V658.506L1232.4 658L1130.13 760.275ZM616.216 658H718.997V1069.13H616.216V1009.17H513.434L513.434 906.389H616.216V802.85L397.678 1021.39L325 948.71L615.71 658L616.216 658.506V658Z" fill="#111111"/>
<path fill-rule="evenodd" clip-rule="evenodd" d="M1068.44 1177.95C1070.62 1180 1073.32 1181.03 1076.53 1181.03C1079.61 1181.03 1082.25 1180 1084.43 1177.95C1086.62 1175.76 1087.71 1173.06 1087.71 1169.85C1087.71 1166.77 1086.62 1164.2 1084.43 1162.14C1082.25 1160.09 1079.61 1159.06 1076.53 1159.06C1073.32 1159.06 1070.62 1160.09 1068.44 1162.14C1066.38 1164.2 1065.35 1166.77 1065.35 1169.85C1065.35 1173.06 1066.38 1175.76 1068.44 1177.95ZM1068.44 1202.23V1297.81H1084.62V1202.23H1068.44ZM1464.55 1181.03C1461.34 1181.03 1458.64 1180 1456.45 1177.95C1454.4 1175.76 1453.37 1173.06 1453.37 1169.85C1453.37 1166.77 1454.4 1164.2 1456.45 1162.14C1458.64 1160.09 1461.34 1159.06 1464.55 1159.06C1467.63 1159.06 1470.26 1160.09 1472.45 1162.14C1474.63 1164.2 1475.72 1166.77 1475.72 1169.85C1475.72 1173.06 1474.63 1175.76 1472.45 1177.95C1470.26 1180 1467.63 1181.03 1464.55 1181.03ZM1456.45 1297.81V1202.23H1472.64V1297.81H1456.45ZM1489.27 1202.23V1297.81H1505.45V1248.29C1505.45 1237.24 1508.15 1228.76 1513.55 1222.85C1519.07 1216.81 1525.95 1213.79 1534.17 1213.79C1550.61 1213.79 1558.83 1223.75 1558.83 1243.66V1297.81H1575.02V1241.93C1575.02 1227.67 1571.62 1217.13 1564.81 1210.32C1558.13 1203.38 1549.13 1199.91 1537.83 1199.91C1530.51 1199.91 1523.95 1201.65 1518.17 1205.12C1512.39 1208.59 1507.96 1213.34 1504.88 1219.38L1503.91 1202.23H1489.27ZM1610.92 1265.63C1615.41 1267.04 1620.36 1267.75 1625.76 1267.75C1633.85 1267.75 1640.66 1266.27 1646.18 1263.32C1651.84 1260.23 1656.14 1256.12 1659.09 1250.98C1662.18 1245.84 1663.72 1240.13 1663.72 1233.83C1663.72 1226.77 1661.86 1220.54 1658.13 1215.14L1676.05 1214.37V1202.23H1640.79C1636.29 1200.69 1631.28 1199.91 1625.76 1199.91C1617.66 1199.91 1610.79 1201.46 1605.14 1204.54C1599.48 1207.49 1595.18 1211.54 1592.22 1216.68C1589.27 1221.82 1587.79 1227.54 1587.79 1233.83C1587.79 1244.37 1591.58 1252.85 1599.16 1259.27L1582.78 1275.46V1279.89C1584.45 1281.56 1586.25 1283.1 1588.18 1284.52C1590.23 1285.8 1592.67 1287.02 1595.5 1288.18C1590.23 1291.9 1586.64 1295.82 1584.71 1299.93C1582.78 1304.17 1581.82 1308.09 1581.82 1311.69C1581.82 1318.62 1583.68 1324.34 1587.41 1328.84C1591.13 1333.46 1596.34 1336.87 1603.02 1339.05C1609.7 1341.36 1617.34 1342.52 1625.95 1342.52C1635.71 1342.52 1643.68 1340.92 1649.84 1337.7C1656.14 1334.49 1660.76 1330.38 1663.72 1325.37C1666.8 1320.36 1668.34 1315.09 1668.34 1309.57C1668.34 1301.47 1665.58 1294.92 1660.06 1289.91C1654.53 1284.9 1645.35 1281.95 1632.5 1281.05C1625.31 1280.4 1619.72 1279.83 1615.73 1279.31C1611.75 1278.67 1608.67 1278.03 1606.48 1277.38C1604.43 1276.61 1602.69 1275.71 1601.28 1274.69L1610.92 1265.63ZM1641.94 1249.25C1637.96 1252.72 1632.56 1254.45 1625.76 1254.45C1618.82 1254.45 1613.29 1252.72 1609.18 1249.25C1605.2 1245.65 1603.21 1240.51 1603.21 1233.83C1603.21 1227.28 1605.2 1222.27 1609.18 1218.8C1613.29 1215.2 1618.82 1213.4 1625.76 1213.4C1632.56 1213.4 1637.96 1215.2 1641.94 1218.8C1646.05 1222.27 1648.11 1227.28 1648.11 1233.83C1648.11 1240.51 1646.05 1245.65 1641.94 1249.25ZM1605.71 1324.41C1600.32 1321.32 1597.62 1316.57 1597.62 1310.15C1597.62 1307.58 1598.45 1304.62 1600.13 1301.28C1601.8 1298.07 1605.26 1295.05 1610.53 1292.22C1615.67 1292.99 1621.77 1293.64 1628.84 1294.15C1637.83 1294.66 1644 1296.4 1647.34 1299.35C1650.68 1302.44 1652.35 1306.03 1652.35 1310.15C1652.35 1315.93 1649.91 1320.55 1645.03 1324.02C1640.27 1327.49 1633.91 1329.22 1625.95 1329.22C1617.85 1329.22 1611.11 1327.62 1605.71 1324.41ZM1396.27 1202.23V1297.81H1412.46V1249.63C1412.46 1241.28 1413.87 1234.73 1416.7 1229.98C1419.53 1225.22 1423.32 1221.88 1428.07 1219.96C1432.82 1217.9 1438.03 1216.87 1443.68 1216.87H1448.11V1199.91C1439.25 1199.91 1431.8 1201.78 1425.76 1205.5C1419.72 1209.23 1415.22 1214.24 1412.27 1220.54L1410.92 1202.23H1396.27ZM1341.09 1300.12C1331.97 1300.12 1323.88 1298.07 1316.81 1293.96C1309.75 1289.72 1304.16 1283.87 1300.05 1276.42C1296.06 1268.97 1294.07 1260.17 1294.07 1250.02C1294.07 1240 1296.06 1231.26 1300.05 1223.81C1304.03 1216.23 1309.55 1210.39 1316.62 1206.27C1323.81 1202.03 1332.1 1199.91 1341.48 1199.91C1350.73 1199.91 1358.7 1202.03 1365.38 1206.27C1372.19 1210.39 1377.39 1215.85 1380.99 1222.65C1384.58 1229.46 1386.38 1236.79 1386.38 1244.62C1386.38 1246.04 1386.32 1247.45 1386.19 1248.86V1253.68H1310.07C1310.45 1261 1312.12 1267.11 1315.08 1271.99C1318.16 1276.74 1321.95 1280.34 1326.45 1282.78C1331.07 1285.22 1335.96 1286.44 1341.09 1286.44C1347.78 1286.44 1353.36 1284.9 1357.86 1281.82C1362.36 1278.73 1365.63 1274.56 1367.69 1269.29H1383.68C1381.11 1278.16 1376.17 1285.54 1368.84 1291.45C1361.65 1297.23 1352.4 1300.12 1341.09 1300.12ZM1341.09 1213.6C1333.39 1213.6 1326.51 1215.97 1320.47 1220.73C1314.56 1225.35 1311.16 1232.16 1310.26 1241.16H1370.39C1370 1232.55 1367.05 1225.8 1361.52 1220.92C1356 1216.04 1349.19 1213.6 1341.09 1213.6ZM1218.66 1293.96C1225.72 1298.07 1233.82 1300.12 1242.94 1300.12C1254.24 1300.12 1263.49 1297.23 1270.69 1291.45C1278.01 1285.54 1282.96 1278.16 1285.53 1269.29H1269.53C1267.48 1274.56 1264.2 1278.73 1259.7 1281.82C1255.21 1284.9 1249.62 1286.44 1242.94 1286.44C1237.8 1286.44 1232.92 1285.22 1228.29 1282.78C1223.8 1280.34 1220.01 1276.74 1216.92 1271.99C1213.97 1267.11 1212.3 1261 1211.91 1253.68H1288.03V1248.86C1288.16 1247.45 1288.23 1246.04 1288.23 1244.62C1288.23 1236.79 1286.43 1229.46 1282.83 1222.65C1279.23 1215.85 1274.03 1210.39 1267.22 1206.27C1260.54 1202.03 1252.57 1199.91 1243.32 1199.91C1233.94 1199.91 1225.66 1202.03 1218.46 1206.27C1211.4 1210.39 1205.87 1216.23 1201.89 1223.81C1197.91 1231.26 1195.92 1240 1195.92 1250.02C1195.92 1260.17 1197.91 1268.97 1201.89 1276.42C1206 1283.87 1211.59 1289.72 1218.66 1293.96ZM1222.32 1220.73C1228.36 1215.97 1235.23 1213.6 1242.94 1213.6C1251.03 1213.6 1257.84 1216.04 1263.37 1220.92C1268.89 1225.8 1271.84 1232.55 1272.23 1241.16H1212.1C1213 1232.16 1216.41 1225.35 1222.32 1220.73ZM1101.25 1297.81V1202.23H1115.89L1116.86 1219.38C1119.94 1213.34 1124.37 1208.59 1130.15 1205.12C1135.93 1201.65 1142.49 1199.91 1149.81 1199.91C1161.11 1199.91 1170.11 1203.38 1176.79 1210.32C1183.6 1217.13 1187 1227.67 1187 1241.93V1297.81H1170.81V1243.66C1170.81 1223.75 1162.59 1213.79 1146.15 1213.79C1137.92 1213.79 1131.05 1216.81 1125.53 1222.85C1120.13 1228.76 1117.43 1237.24 1117.43 1248.29V1297.81H1101.25ZM1009.7 1267.75C1004.31 1267.75 999.362 1267.04 994.866 1265.63L985.23 1274.69C986.643 1275.71 988.378 1276.61 990.433 1277.38C992.618 1278.03 995.701 1278.67 999.684 1279.31C1003.67 1279.83 1009.25 1280.4 1016.45 1281.05C1029.3 1281.95 1038.48 1284.9 1044.01 1289.91C1049.53 1294.92 1052.29 1301.47 1052.29 1309.57C1052.29 1315.09 1050.75 1320.36 1047.67 1325.37C1044.71 1330.38 1040.09 1334.49 1033.79 1337.7C1027.63 1340.92 1019.66 1342.52 1009.9 1342.52C1001.29 1342.52 993.645 1341.36 986.965 1339.05C980.284 1336.87 975.081 1333.46 971.355 1328.84C967.629 1324.34 965.766 1318.62 965.766 1311.69C965.766 1308.09 966.73 1304.17 968.657 1299.93C970.584 1295.82 974.181 1291.9 979.449 1288.18C976.623 1287.02 974.181 1285.8 972.126 1284.52C970.199 1283.1 968.4 1281.56 966.73 1279.89V1275.46L983.11 1259.27C975.53 1252.85 971.74 1244.37 971.74 1233.83C971.74 1227.54 973.218 1221.82 976.173 1216.68C979.128 1211.54 983.432 1207.49 989.084 1204.54C994.737 1201.46 1001.61 1199.91 1009.7 1199.91C1015.23 1199.91 1020.24 1200.69 1024.74 1202.23H1060V1214.37L1042.08 1215.14C1045.81 1220.54 1047.67 1226.77 1047.67 1233.83C1047.67 1240.13 1046.13 1245.84 1043.04 1250.98C1040.09 1256.12 1035.78 1260.23 1030.13 1263.32C1024.61 1266.27 1017.8 1267.75 1009.7 1267.75ZM1009.7 1254.45C1016.51 1254.45 1021.91 1252.72 1025.89 1249.25C1030 1245.65 1032.06 1240.51 1032.06 1233.83C1032.06 1227.28 1030 1222.27 1025.89 1218.8C1021.91 1215.2 1016.51 1213.4 1009.7 1213.4C1002.77 1213.4 997.243 1215.2 993.131 1218.8C989.149 1222.27 987.157 1227.28 987.157 1233.83C987.157 1240.51 989.149 1245.65 993.131 1249.25C997.243 1252.72 1002.77 1254.45 1009.7 1254.45ZM981.569 1310.15C981.569 1316.57 984.267 1321.32 989.663 1324.41C995.058 1327.62 1001.8 1329.22 1009.9 1329.22C1017.86 1329.22 1024.22 1327.49 1028.98 1324.02C1033.86 1320.55 1036.3 1315.93 1036.3 1310.15C1036.3 1306.03 1034.63 1302.44 1031.29 1299.35C1027.95 1296.4 1021.78 1294.66 1012.79 1294.15C1005.72 1293.64 999.619 1292.99 994.48 1292.22C989.213 1295.05 985.744 1298.07 984.074 1301.28C982.404 1304.62 981.569 1307.58 981.569 1310.15ZM873.215 1202.23V1297.81H889.402V1248.29C889.402 1237.24 892.1 1228.76 897.496 1222.85C903.021 1216.81 909.894 1213.79 918.116 1213.79C934.561 1213.79 942.783 1223.75 942.783 1243.66V1297.81H958.971V1241.93C958.971 1227.67 955.567 1217.13 948.758 1210.32C942.077 1203.38 933.084 1199.91 921.778 1199.91C914.455 1199.91 907.903 1201.65 902.121 1205.12C896.34 1208.59 891.908 1213.34 888.824 1219.38L887.861 1202.23H873.215ZM818.037 1300.12C808.916 1300.12 800.822 1298.07 793.756 1293.96C786.69 1289.72 781.101 1283.87 776.99 1276.42C773.007 1268.97 771.016 1260.17 771.016 1250.02C771.016 1240 773.007 1231.26 776.99 1223.81C780.973 1216.23 786.497 1210.39 793.563 1206.27C800.758 1202.03 809.044 1199.91 818.423 1199.91C827.673 1199.91 835.638 1202.03 842.319 1206.27C849.128 1210.39 854.331 1215.85 857.929 1222.65C861.526 1229.46 863.324 1236.79 863.324 1244.62C863.324 1246.04 863.26 1247.45 863.132 1248.86V1253.68H787.011C787.396 1261 789.066 1267.11 792.021 1271.99C795.105 1276.74 798.895 1280.34 803.391 1282.78C808.016 1285.22 812.898 1286.44 818.037 1286.44C824.718 1286.44 830.307 1284.9 834.803 1281.82C839.3 1278.73 842.576 1274.56 844.631 1269.29H860.626C858.057 1278.16 853.111 1285.54 845.788 1291.45C838.593 1297.23 829.343 1300.12 818.037 1300.12ZM818.037 1213.6C810.329 1213.6 803.456 1215.97 797.417 1220.73C791.507 1225.35 788.103 1232.16 787.204 1241.16H847.329C846.944 1232.55 843.989 1225.8 838.465 1220.92C832.94 1216.04 826.131 1213.6 818.037 1213.6ZM746.48 1295.69C748.664 1297.75 751.362 1298.78 754.574 1298.78C757.657 1298.78 760.227 1297.75 762.283 1295.69C764.467 1293.51 765.559 1290.87 765.559 1287.79C765.559 1284.71 764.467 1282.14 762.283 1280.08C760.227 1277.9 757.657 1276.81 754.574 1276.81C751.362 1276.81 748.664 1277.9 746.48 1280.08C744.425 1282.14 743.397 1284.71 743.397 1287.79C743.397 1290.87 744.425 1293.51 746.48 1295.69ZM639.539 1340.21V1202.23H654.185L655.727 1218.03C658.81 1213.4 663.178 1209.23 668.831 1205.5C674.612 1201.78 681.935 1199.91 690.8 1199.91C700.307 1199.91 708.594 1202.1 715.66 1206.47C722.726 1210.84 728.186 1216.81 732.04 1224.39C736.023 1231.97 738.014 1240.58 738.014 1250.21C738.014 1259.85 736.023 1268.46 732.04 1276.04C728.186 1283.49 722.662 1289.4 715.467 1293.77C708.401 1298 700.114 1300.12 690.607 1300.12C682.77 1300.12 675.769 1298.52 669.602 1295.31C663.564 1292.1 658.938 1287.6 655.727 1281.82V1340.21H639.539ZM688.873 1286.06C695.297 1286.06 700.949 1284.58 705.831 1281.62C710.713 1278.54 714.568 1274.3 717.394 1268.91C720.221 1263.51 721.634 1257.21 721.634 1250.02C721.634 1242.83 720.221 1236.53 717.394 1231.13C714.568 1225.74 710.713 1221.56 705.831 1218.61C700.949 1215.52 695.297 1213.98 688.873 1213.98C682.449 1213.98 676.796 1215.52 671.914 1218.61C667.032 1221.56 663.178 1225.74 660.352 1231.13C657.525 1236.53 656.112 1242.83 656.112 1250.02C656.112 1257.21 657.525 1263.51 660.352 1268.91C663.178 1274.3 667.032 1278.54 671.914 1281.62C676.796 1284.58 682.449 1286.06 688.873 1286.06ZM558.787 1296.08C564.054 1298.78 570.67 1300.12 578.636 1300.12C587.372 1300.12 594.31 1298.26 599.449 1294.54C604.716 1290.68 608.699 1286.06 611.397 1280.66L612.36 1297.81H626.814V1239.04C626.814 1227.22 623.409 1217.77 616.6 1210.71C609.919 1203.51 599.898 1199.91 586.537 1199.91C579.728 1199.91 573.304 1201.2 567.266 1203.77C561.228 1206.21 556.153 1209.81 552.042 1214.56C548.059 1219.31 545.747 1225.16 545.104 1232.1H561.677C562.834 1226.06 565.66 1221.5 570.157 1218.42C574.782 1215.2 580.242 1213.6 586.537 1213.6C593.86 1213.6 599.706 1215.78 604.074 1220.15C608.442 1224.39 610.626 1230.68 610.626 1239.04V1240.19H584.803C571.955 1240.19 561.806 1242.83 554.354 1248.09C546.903 1253.36 543.177 1260.88 543.177 1270.64C543.177 1275.91 544.462 1280.79 547.031 1285.29C549.601 1289.78 553.519 1293.38 558.787 1296.08ZM596.943 1281.62C592.575 1284.84 587.308 1286.44 581.141 1286.44C574.46 1286.44 569.257 1284.96 565.532 1282.01C561.934 1278.93 560.136 1274.88 560.136 1269.87C560.136 1264.99 562.063 1260.94 565.917 1257.73C569.9 1254.39 576.645 1252.72 586.152 1252.72H610.626V1252.91C610.626 1258.56 609.47 1263.96 607.157 1269.1C604.845 1274.24 601.44 1278.41 596.943 1281.62ZM498.662 1300.12C487.228 1300.12 477.721 1297.23 470.141 1291.45C462.561 1285.67 458.129 1277.83 456.844 1267.94H473.417C474.445 1272.95 477.079 1277.32 481.318 1281.05C485.686 1284.64 491.532 1286.44 498.855 1286.44C505.664 1286.44 510.675 1285.03 513.886 1282.2C517.098 1279.25 518.704 1275.78 518.704 1271.8C518.704 1266.01 516.584 1262.16 512.345 1260.23C508.234 1258.31 502.388 1256.57 494.808 1255.03C489.669 1254 484.53 1252.53 479.391 1250.6C474.252 1248.67 469.948 1245.97 466.479 1242.5C463.011 1238.91 461.276 1234.22 461.276 1228.44C461.276 1220.09 464.36 1213.28 470.526 1208.01C476.822 1202.61 485.301 1199.91 495.964 1199.91C506.114 1199.91 514.4 1202.48 520.824 1207.62C527.376 1212.63 531.166 1219.83 532.194 1229.21H516.199C515.557 1224.33 513.437 1220.54 509.839 1217.84C506.371 1215.01 501.681 1213.6 495.772 1213.6C489.99 1213.6 485.494 1214.82 482.282 1217.26C479.198 1219.7 477.657 1222.91 477.657 1226.89C477.657 1230.75 479.648 1233.77 483.631 1235.95C487.742 1238.14 493.266 1240 500.204 1241.54C506.114 1242.83 511.702 1244.43 516.97 1246.36C522.366 1248.16 526.734 1250.92 530.074 1254.64C533.543 1258.24 535.277 1263.51 535.277 1270.45C535.406 1279.05 532.13 1286.19 525.449 1291.84C518.897 1297.36 509.968 1300.12 498.662 1300.12ZM381.299 1296.08C386.566 1298.78 393.183 1300.12 401.148 1300.12C409.885 1300.12 416.822 1298.26 421.961 1294.54C427.228 1290.68 431.211 1286.06 433.909 1280.66L434.873 1297.81H449.326V1239.04C449.326 1227.22 445.921 1217.77 439.112 1210.71C432.432 1203.51 422.411 1199.91 409.049 1199.91C402.24 1199.91 395.817 1201.2 389.778 1203.77C383.74 1206.21 378.665 1209.81 374.554 1214.56C370.571 1219.31 368.259 1225.16 367.617 1232.1H384.19C385.346 1226.06 388.172 1221.5 392.669 1218.42C397.294 1215.2 402.754 1213.6 409.049 1213.6C416.372 1213.6 422.218 1215.78 426.586 1220.15C430.954 1224.39 433.138 1230.68 433.138 1239.04V1240.19H407.315C394.468 1240.19 384.318 1242.83 376.867 1248.09C369.415 1253.36 365.689 1260.88 365.689 1270.64C365.689 1275.91 366.974 1280.79 369.544 1285.29C372.113 1289.78 376.032 1293.38 381.299 1296.08ZM419.456 1281.62C415.088 1284.84 409.82 1286.44 403.654 1286.44C396.973 1286.44 391.77 1284.96 388.044 1282.01C384.447 1278.93 382.648 1274.88 382.648 1269.87C382.648 1264.99 384.575 1260.94 388.429 1257.73C392.412 1254.39 399.157 1252.72 408.664 1252.72H433.138V1252.91C433.138 1258.56 431.982 1263.96 429.67 1269.1C427.357 1274.24 423.952 1278.41 419.456 1281.62Z" fill="#111111"/>
</svg>
