<svg width="2000" height="2000" viewBox="0 0 2000 2000" fill="none" xmlns="http://www.w3.org/2000/svg">
<rect width="2000" height="2000" fill="#121625"/>
<path fill-rule="evenodd" clip-rule="evenodd" d="M596.715 541.1C610.54 517.184 641.158 508.99 665.102 522.798L748.619 570.958C787.132 593.166 834.484 585.087 873.353 563.507C914.109 540.878 949.142 502.263 949.142 455.688L949.142 370.002C949.142 342.387 971.555 320 999.204 320C1026.85 320 1049.27 342.387 1049.27 370.002L1049.27 456.634C1049.27 502.772 1083.88 541.062 1124.26 563.465C1162.75 584.82 1209.63 592.725 1247.76 570.737L1330.9 522.798C1354.84 508.99 1385.46 517.184 1399.28 541.1C1413.11 565.015 1404.91 595.596 1380.96 609.404L1325.03 641.657C1275.36 670.298 1257.5 732.179 1257.5 789.461C1257.5 844.97 1275.3 904.32 1323.44 932.075L1380.96 965.246C1404.9 979.054 1413.11 1009.63 1399.28 1033.55C1385.46 1057.47 1354.84 1065.66 1330.9 1051.85L1252.55 1006.67C1213.29 984.035 1164.98 992.584 1125.47 1014.78C1084.52 1037.79 1049.27 1076.72 1049.27 1123.66L1049.27 1208C1049.27 1235.61 1026.85 1258 999.204 1258C971.555 1258 949.142 1235.61 949.142 1208L949.142 1124.6C949.142 1077.23 913.473 1037.98 872.148 1014.74C832.265 992.318 783.479 983.59 743.843 1006.45L665.102 1051.85C641.158 1065.66 610.54 1057.47 596.715 1033.55C582.891 1009.63 591.095 979.054 615.04 965.246L674.681 930.854C722.426 903.322 740.188 844.525 740.188 789.461C740.188 732.45 722.253 671.228 672.82 642.723L615.04 609.403C591.095 595.596 582.891 565.015 596.715 541.1ZM840.313 789.461C840.313 876.909 911.29 947.8 998.844 947.8C1086.4 947.8 1157.38 876.909 1157.38 789.461C1157.38 702.013 1086.4 631.122 998.844 631.122C911.29 631.122 840.313 702.013 840.313 789.461Z" fill="#F7F9FB"/>
<path d="M391 1657.6V1459.4H477.318C511.75 1459.4 531.118 1472.36 531.118 1507.87V1510.51C531.118 1534.26 521.315 1546.98 506.251 1552.74C523.945 1557.78 537.813 1572.9 537.813 1600.25V1603.13C537.813 1641.04 517.728 1657.6 479.949 1657.6H391ZM413.954 1637.44H477.797C502.664 1637.44 514.141 1628.81 514.141 1603.37V1598.09C514.141 1572.66 500.751 1564.5 476.84 1564.5H413.954V1637.44ZM413.954 1544.34H473.014C489.513 1544.34 507.446 1540.5 507.446 1512.67V1508.11C507.446 1482.2 493.817 1479.56 473.971 1479.56H413.954V1544.34Z" fill="#F7F9FB"/>
<path d="M668.355 1657.6V1631.69C660.704 1645.6 645.879 1660 618.86 1660C585.863 1660 566.734 1638.64 566.734 1601.45V1501.63H588.971V1599.53C588.971 1626.89 601.166 1641.04 625.555 1641.04C660.943 1641.04 668.355 1612.25 668.355 1596.89V1501.63H690.354V1657.6H668.355Z" fill="#F7F9FB"/>
<path d="M727.897 1501.63H749.656V1657.6H727.897V1501.63ZM723.354 1470.44C723.354 1462.76 728.854 1457 738.657 1457C748.461 1457 753.96 1462.76 753.96 1470.44C753.96 1477.64 748.461 1483.39 738.657 1483.39C728.854 1483.39 723.354 1477.64 723.354 1470.44Z" fill="#F7F9FB"/>
<path d="M787.441 1459.4H809.2V1657.6H787.441V1459.4Z" fill="#F7F9FB"/>
<path d="M949.085 1459.4H970.844V1657.6H949.085V1633.61C943.107 1644.64 928.043 1660 900.306 1660C862.288 1660 839.573 1633.13 839.573 1593.05V1565.7C839.573 1525.39 862.527 1499.23 900.067 1499.23C927.804 1499.23 942.39 1514.11 949.085 1524.67V1459.4ZM862.049 1592.33C862.049 1620.17 876.156 1640.8 905.089 1640.8C933.303 1640.8 949.085 1620.89 949.085 1592.57V1566.66C949.085 1538.58 933.782 1518.43 904.849 1518.43C875.678 1518.43 862.049 1538.82 862.049 1566.9V1592.33Z" fill="#F7F9FB"/>
<path d="M1001.16 1590.17V1568.82C1001.16 1525.63 1023.4 1499.23 1067.87 1499.23C1108.04 1499.23 1131.95 1521.79 1131.95 1566.9V1583.7H1023.87V1591.85C1023.87 1623.77 1038.46 1640.8 1067.87 1640.8C1092.02 1640.8 1104.69 1629.05 1106.84 1609.85L1107.08 1606.01H1130.52L1130.28 1608.41C1127.41 1638.88 1107.08 1660 1067.87 1660C1023.4 1660 1001.16 1633.61 1001.16 1590.17ZM1023.87 1566.9H1109.24L1109 1559.22C1107.8 1530.19 1092.02 1518.43 1067.63 1518.43C1038.7 1518.43 1024.11 1534.98 1023.87 1566.9Z" fill="#F7F9FB"/>
<path d="M1183.98 1501.63V1527.79C1189.96 1514.11 1205.26 1499.23 1229.17 1499.23C1257.63 1499.23 1271.97 1516.99 1271.97 1549.14V1563.06H1249.5V1551.3C1249.5 1531.87 1243.52 1518.43 1222.48 1518.43C1193.07 1518.43 1183.98 1546.5 1183.98 1561.62V1657.6H1161.98V1501.63H1183.98Z" fill="#F7F9FB"/>
<path d="M1416.27 1657.6L1335.93 1568.82H1321.82V1657.6H1298.87V1459.4H1321.82V1548.18H1335.93L1416.27 1459.4H1445.68L1354.1 1558.5L1445.68 1657.6H1416.27Z" fill="#F7F9FB"/>
<path d="M1466.01 1501.63H1487.77V1657.6H1466.01V1501.63ZM1461.46 1470.44C1461.46 1462.76 1466.96 1457 1476.77 1457C1486.57 1457 1492.07 1462.76 1492.07 1470.44C1492.07 1477.64 1486.57 1483.39 1476.77 1483.39C1466.96 1483.39 1461.46 1477.64 1461.46 1470.44Z" fill="#F7F9FB"/>
<path d="M1609 1501.63V1520.83H1565.24V1609.13C1565.24 1632.65 1567.39 1638.4 1584.37 1638.4H1609V1657.6H1578.39C1548.27 1657.6 1543.48 1642 1543.48 1613.21V1520.83H1509.05V1501.63H1519.09C1540.14 1500.19 1548.03 1484.11 1547.55 1459.4H1569.55C1569.55 1482.67 1561.42 1498.51 1550.9 1501.63H1609Z" fill="#F7F9FB"/>
</svg>
