<svg width="2000" height="2000" viewBox="0 0 2000 2000" fill="none" xmlns="http://www.w3.org/2000/svg">
<rect width="2000" height="2000" fill="white"/>
<path d="M1668.23 1090.84C1651.63 1090.84 1637.28 1087.39 1625.21 1080.49C1613.2 1073.52 1603.96 1063.67 1597.49 1050.94C1591.02 1038.14 1587.79 1023.08 1587.79 1005.75C1587.79 988.709 1591.02 973.754 1597.49 960.883C1604.03 947.941 1613.17 937.875 1624.88 930.685C1636.6 923.423 1650.37 919.792 1666.19 919.792C1676.39 919.792 1686.03 921.445 1695.09 924.753C1704.22 927.988 1712.27 933.022 1719.24 939.852C1726.29 946.683 1731.82 955.383 1735.85 965.952C1739.88 976.45 1741.89 988.961 1741.89 1003.48V1015.46H1606.12V989.141H1704.47C1704.4 981.663 1702.78 975.012 1699.62 969.188C1696.45 963.292 1692.03 958.654 1686.35 955.275C1680.74 951.896 1674.2 950.206 1666.72 950.206C1658.74 950.206 1651.74 952.147 1645.7 956.03C1639.66 959.841 1634.95 964.874 1631.57 971.129C1628.26 977.313 1626.57 984.107 1626.5 991.513V1014.49C1626.5 1024.12 1628.26 1032.39 1631.79 1039.29C1635.31 1046.12 1640.23 1051.37 1646.56 1055.04C1652.89 1058.63 1660.29 1060.43 1668.77 1060.43C1674.45 1060.43 1679.59 1059.64 1684.19 1058.06C1688.8 1056.4 1692.79 1054 1696.16 1050.83C1699.54 1047.67 1702.1 1043.75 1703.82 1039.08L1740.27 1043.17C1737.97 1052.81 1733.58 1061.22 1727.11 1068.41C1720.72 1075.53 1712.52 1081.07 1702.53 1085.02C1692.53 1088.9 1681.1 1090.84 1668.23 1090.84Z" fill="#111111"/>
<path d="M1482.73 1091.62C1469.72 1091.62 1458.07 1088.28 1447.79 1081.59C1437.51 1074.9 1429.39 1065.2 1423.42 1052.47C1417.45 1039.74 1414.47 1024.28 1414.47 1006.09C1414.47 987.686 1417.49 972.155 1423.53 959.501C1429.64 946.774 1437.87 937.175 1448.22 930.704C1458.57 924.161 1470.11 920.89 1482.84 920.89C1492.54 920.89 1500.52 922.543 1506.78 925.851C1513.03 929.086 1517.99 933.005 1521.66 937.607C1525.33 942.136 1528.17 946.414 1530.18 950.441H1531.8V867.826H1570.94V1088.71H1532.55V1062.61H1530.18C1528.17 1066.63 1525.25 1070.91 1521.44 1075.44C1517.63 1079.9 1512.6 1083.71 1506.35 1086.87C1500.09 1090.04 1492.22 1091.62 1482.73 1091.62ZM1493.62 1059.59C1501.89 1059.59 1508.94 1057.36 1514.76 1052.9C1520.58 1048.37 1525 1042.08 1528.02 1034.03C1531.04 1025.97 1532.55 1016.59 1532.55 1005.88C1532.55 995.164 1531.04 985.852 1528.02 977.943C1525.08 970.034 1520.69 963.886 1514.87 959.501C1509.12 955.115 1502.03 952.922 1493.62 952.922C1484.92 952.922 1477.66 955.186 1471.84 959.716C1466.02 964.246 1461.63 970.501 1458.68 978.482C1455.73 986.463 1454.26 995.595 1454.26 1005.88C1454.26 1016.23 1455.73 1025.47 1458.68 1033.59C1461.7 1041.65 1466.12 1048.01 1471.95 1052.68C1477.84 1057.29 1485.07 1059.59 1493.62 1059.59Z" fill="#111111"/>
<path d="M1309.99 1090.95C1299.5 1090.95 1290.04 1089.08 1281.63 1085.34C1273.29 1081.53 1266.68 1075.93 1261.79 1068.52C1256.97 1061.11 1254.56 1051.98 1254.56 1041.13C1254.56 1031.78 1256.29 1024.05 1259.74 1017.94C1263.19 1011.83 1267.9 1006.94 1273.87 1003.27C1279.83 999.602 1286.55 996.834 1294.03 994.965C1301.58 993.023 1309.38 991.621 1317.43 990.758C1327.14 989.752 1335.01 988.853 1341.05 988.062C1347.09 987.199 1351.47 985.905 1354.21 984.179C1357.01 982.382 1358.41 979.614 1358.41 975.875V975.228C1358.41 967.103 1356 960.811 1351.19 956.354C1346.37 951.896 1339.43 949.667 1330.37 949.667C1320.81 949.667 1313.23 951.752 1307.62 955.922C1302.08 960.092 1298.34 965.018 1296.4 970.698L1259.95 965.521C1262.83 955.455 1267.58 947.042 1274.19 940.284C1280.8 933.453 1288.89 928.348 1298.45 924.969C1308.01 921.517 1318.58 919.792 1330.16 919.792C1338.14 919.792 1346.08 920.726 1353.99 922.596C1361.9 924.465 1369.12 927.557 1375.67 931.871C1382.21 936.113 1387.46 941.901 1391.41 949.235C1395.44 956.569 1397.45 965.737 1397.45 976.738V1087.61H1359.92V1064.85H1358.63C1356.25 1069.45 1352.91 1073.77 1348.6 1077.79C1344.36 1081.75 1339 1084.95 1332.53 1087.39C1326.13 1089.77 1318.62 1090.95 1309.99 1090.95ZM1320.13 1062.26C1327.96 1062.26 1334.76 1060.72 1340.51 1057.63C1346.26 1054.46 1350.68 1050.29 1353.77 1045.12C1356.94 1039.94 1358.52 1034.29 1358.52 1028.18V1008.66C1357.3 1009.67 1355.21 1010.6 1352.26 1011.47C1349.39 1012.33 1346.15 1013.08 1342.56 1013.73C1338.96 1014.38 1335.41 1014.95 1331.88 1015.46C1328.36 1015.96 1325.3 1016.39 1322.72 1016.75C1316.89 1017.54 1311.68 1018.84 1307.08 1020.63C1302.48 1022.43 1298.85 1024.95 1296.19 1028.18C1293.53 1031.35 1292.2 1035.44 1292.2 1040.48C1292.2 1047.67 1294.82 1053.1 1300.07 1056.76C1305.32 1060.43 1312 1062.26 1320.13 1062.26Z" fill="#111111"/>
<path d="M1170.36 1090.84C1153.83 1090.84 1139.63 1087.21 1127.77 1079.95C1115.98 1072.69 1106.88 1062.66 1100.48 1049.86C1094.16 1036.99 1090.99 1022.18 1090.99 1005.43C1090.99 988.601 1094.23 973.754 1100.7 960.883C1107.17 947.941 1116.3 937.875 1128.09 930.685C1139.95 923.423 1153.97 919.792 1170.15 919.792C1183.59 919.792 1195.49 922.272 1205.84 927.234C1216.27 932.123 1224.57 939.061 1230.75 948.049C1236.94 956.965 1240.46 967.39 1241.32 979.326H1204.01C1202.5 971.345 1198.9 964.694 1193.23 959.373C1187.62 953.981 1180.1 951.284 1170.69 951.284C1162.71 951.284 1155.7 953.442 1149.66 957.756C1143.62 961.998 1138.91 968.109 1135.53 976.09C1132.22 984.071 1130.57 993.634 1130.57 1004.78C1130.57 1016.07 1132.22 1025.77 1135.53 1033.9C1138.84 1041.95 1143.48 1048.17 1149.44 1052.56C1155.48 1056.87 1162.56 1059.03 1170.69 1059.03C1176.44 1059.03 1181.58 1057.95 1186.11 1055.79C1190.71 1053.56 1194.56 1050.36 1197.65 1046.19C1200.74 1042.02 1202.86 1036.95 1204.01 1030.99H1241.32C1240.39 1042.71 1236.94 1053.1 1230.97 1062.16C1225 1071.14 1216.88 1078.19 1206.6 1083.3C1196.32 1088.33 1184.24 1090.84 1170.36 1090.84Z" fill="#111111"/>
<path d="M1077.81 965.737L1042.22 969.619C1041.21 966.024 1039.45 962.645 1036.93 959.481C1034.49 956.318 1031.18 953.765 1027.01 951.824C1022.84 949.882 1017.74 948.912 1011.7 948.912C1003.58 948.912 996.747 950.673 991.211 954.196C985.747 957.72 983.052 962.285 983.123 967.894C983.052 972.711 984.813 976.63 988.407 979.65C992.074 982.669 998.113 985.15 1006.52 987.091L1034.78 993.131C1050.45 996.51 1062.1 1001.87 1069.72 1009.2C1077.41 1016.53 1081.29 1026.13 1081.36 1038C1081.29 1048.42 1078.24 1057.63 1072.2 1065.61C1066.23 1073.52 1057.93 1079.7 1047.29 1084.16C1036.65 1088.62 1024.43 1090.84 1010.62 1090.84C990.349 1090.84 974.029 1086.6 961.664 1078.12C949.298 1069.56 941.929 1057.66 939.557 1042.42L977.624 1038.75C979.349 1046.23 983.016 1051.87 988.623 1055.69C994.231 1059.5 1001.53 1061.4 1010.51 1061.4C1019.79 1061.4 1027.23 1059.5 1032.84 1055.69C1038.52 1051.87 1041.36 1047.16 1041.36 1041.56C1041.36 1036.81 1039.52 1032.89 1035.86 1029.8C1032.26 1026.71 1026.65 1024.34 1019.03 1022.68L990.78 1016.75C974.892 1013.44 963.137 1007.87 955.517 1000.03C947.896 992.124 944.122 982.13 944.194 970.051C944.122 959.841 946.89 950.997 952.497 943.519C958.177 935.97 966.049 930.146 976.114 926.047C986.251 921.877 997.933 919.792 1011.16 919.792C1030.57 919.792 1045.85 923.926 1056.99 932.195C1068.21 940.463 1075.15 951.644 1077.81 965.737Z" fill="#111111"/>
<path d="M838.909 1090.95C828.413 1090.95 818.959 1089.08 810.548 1085.34C802.208 1081.53 795.594 1075.93 790.706 1068.52C785.889 1061.11 783.48 1051.98 783.48 1041.13C783.48 1031.78 785.206 1024.05 788.657 1017.94C792.108 1011.83 796.817 1006.94 802.784 1003.27C808.751 999.602 815.473 996.834 822.949 994.965C830.498 993.023 838.298 991.621 846.35 990.758C856.056 989.752 863.928 988.853 869.967 988.062C876.006 987.199 880.391 985.905 883.123 984.179C885.927 982.382 887.329 979.614 887.329 975.875V975.228C887.329 967.103 884.921 960.811 880.104 956.354C875.287 951.896 868.349 949.667 859.291 949.667C849.729 949.667 842.145 951.752 836.537 955.922C831.001 960.092 827.263 965.018 825.322 970.698L788.872 965.521C791.748 955.455 796.493 947.042 803.107 940.284C809.721 933.453 817.809 928.348 827.371 924.969C836.932 921.517 847.501 919.792 859.075 919.792C867.055 919.792 874.999 920.726 882.908 922.596C890.816 924.465 898.041 927.557 904.583 931.871C911.125 936.113 916.374 941.901 920.328 949.235C924.354 956.569 926.367 965.737 926.367 976.738V1087.61H888.839V1064.85H887.545C885.172 1069.45 881.829 1073.77 877.516 1077.79C873.274 1081.75 867.918 1084.95 861.448 1087.39C855.049 1089.77 847.537 1090.95 838.909 1090.95ZM849.046 1062.26C856.883 1062.26 863.676 1060.72 869.428 1057.63C875.179 1054.46 879.601 1050.29 882.692 1045.12C885.855 1039.94 887.437 1034.29 887.437 1028.18V1008.66C886.215 1009.67 884.13 1010.6 881.182 1011.47C878.307 1012.33 875.071 1013.08 871.477 1013.73C867.882 1014.38 864.323 1014.95 860.801 1015.46C857.278 1015.96 854.223 1016.39 851.634 1016.75C845.811 1017.54 840.599 1018.84 835.998 1020.63C831.397 1022.43 827.766 1024.95 825.106 1028.18C822.446 1031.35 821.116 1035.44 821.116 1040.48C821.116 1047.67 823.74 1053.1 828.988 1056.76C834.236 1060.43 840.922 1062.26 849.046 1062.26Z" fill="#111111"/>
<path d="M772.871 941.254H732.54C731.389 934.639 729.269 928.779 726.177 923.674C723.086 918.497 719.24 914.111 714.638 910.516C710.037 906.921 704.789 904.225 698.894 902.427C693.071 900.558 686.78 899.623 680.022 899.623C668.016 899.623 657.376 902.643 648.102 908.683C638.828 914.651 631.567 923.422 626.319 934.999C621.071 946.503 618.446 960.559 618.446 977.169C618.446 994.065 621.071 1008.3 626.319 1019.88C631.639 1031.38 638.9 1040.08 648.102 1045.98C657.376 1051.8 667.98 1054.71 679.914 1054.71C686.529 1054.71 692.711 1053.85 698.463 1052.13C704.286 1050.33 709.498 1047.7 714.099 1044.25C718.772 1040.8 722.69 1036.56 725.854 1031.53C729.089 1026.49 731.317 1020.74 732.54 1014.27L772.871 1014.49C771.362 1024.98 768.09 1034.83 763.058 1044.04C758.097 1053.24 751.591 1061.37 743.539 1068.41C735.487 1075.39 726.069 1080.85 715.285 1084.8C704.502 1088.69 692.532 1090.63 679.375 1090.63C659.964 1090.63 642.638 1086.14 627.397 1077.15C612.156 1068.16 600.15 1055.18 591.379 1038.21C582.608 1021.24 578.223 1000.9 578.223 977.169C578.223 953.369 582.644 933.021 591.487 916.125C600.33 899.156 612.372 886.178 627.613 877.19C642.854 868.202 660.108 863.708 679.375 863.708C691.669 863.708 703.1 865.434 713.668 868.885C724.236 872.337 733.654 877.406 741.922 884.093C750.189 890.707 756.983 898.832 762.303 908.467C767.695 918.03 771.218 928.959 772.871 941.254Z" fill="#111111"/>
<rect x="339.256" y="861.111" width="77.924" height="77.924" fill="#7CB0FF"/>
<rect x="339.256" y="1016.96" width="77.924" height="77.924" fill="#5A9CFF"/>
<rect x="261.332" y="939.035" width="77.924" height="77.924" fill="#1E78FF"/>
<rect x="261.332" y="861.111" width="77.924" height="77.924" fill="#4590FF"/>
<rect x="417.18" y="1016.96" width="77.924" height="77.924" fill="#1F78FF"/>
<rect x="417.18" y="861.111" width="77.924" height="77.924" fill="#0066FF"/>
</svg>
