<svg width="2000" height="2000" viewBox="0 0 2000 2000" fill="none" xmlns="http://www.w3.org/2000/svg">
<rect width="2000" height="2000" fill="#F5F5F5"/>
<path d="M1093.31 1082.88C1080.89 1082.88 1071.03 1079.45 1063.72 1072.58C1056.42 1065.57 1052.77 1056.44 1052.77 1045.19C1052.77 1037.74 1054.45 1031.24 1057.81 1025.69C1061.17 1020.13 1065.84 1015.82 1071.83 1012.76C1077.82 1009.54 1084.69 1007.94 1092.43 1007.94H1129.68V998.513C1129.68 990.624 1127.57 984.78 1123.33 980.981C1119.09 977.037 1112.66 975.065 1104.04 975.065C1096.45 975.065 1090.31 976.452 1085.64 979.228C1080.96 982.004 1078.48 985.875 1078.19 990.843H1058.46C1059.19 981.347 1063.58 973.531 1071.61 967.395C1079.79 961.113 1090.6 957.972 1104.04 957.972C1118.65 957.972 1129.83 961.478 1137.57 968.49C1145.46 975.503 1149.41 985.291 1149.41 997.855V1080.69H1129.9V1058.78H1126.62L1129.68 1054.39C1129.68 1060.24 1128.22 1065.28 1125.3 1069.51C1122.38 1073.75 1118.22 1077.04 1112.81 1079.38C1107.4 1081.71 1100.9 1082.88 1093.31 1082.88ZM1098.13 1066.23C1107.77 1066.23 1115.44 1063.89 1121.14 1059.21C1126.83 1054.54 1129.68 1048.18 1129.68 1040.15V1023.28H1094.62C1088.19 1023.28 1082.93 1025.25 1078.84 1029.19C1074.9 1032.99 1072.93 1038.1 1072.93 1044.53C1072.93 1051.25 1075.12 1056.58 1079.5 1060.53C1084.03 1064.33 1090.24 1066.23 1098.13 1066.23Z" fill="#000D16"/>
<path d="M999.819 1080.69C989.885 1080.69 981.923 1077.84 975.933 1072.14C969.943 1066.3 966.948 1058.55 966.948 1048.91V978.13H932.324V960.16H966.948V926.193H986.671V960.16H1035.98V978.13H986.671V1048.91C986.671 1053 987.84 1056.36 990.177 1058.99C992.661 1061.48 995.875 1062.72 999.819 1062.72H1034.88V1080.69H999.819Z" fill="#000D16"/>
<path d="M866.326 1082.88C853.908 1082.88 844.047 1079.45 836.742 1072.58C829.437 1065.57 825.785 1056.44 825.785 1045.19C825.785 1037.74 827.465 1031.24 830.825 1025.69C834.186 1020.13 838.861 1015.82 844.85 1012.76C850.84 1009.54 857.707 1007.94 865.45 1007.94H902.703V998.513C902.703 990.624 900.585 984.78 896.348 980.981C892.112 977.037 885.683 975.065 877.064 975.065C869.467 975.065 863.331 976.452 858.656 979.228C853.981 982.004 851.498 985.875 851.205 990.843H831.483C832.213 981.347 836.596 973.531 844.631 967.395C852.812 961.113 863.623 957.972 877.064 957.972C891.673 957.972 902.849 961.478 910.592 968.49C918.481 975.503 922.426 985.291 922.426 997.855V1080.69H902.922V1058.78H899.635L902.703 1054.39C902.703 1060.24 901.242 1065.28 898.321 1069.51C895.399 1073.75 891.235 1077.04 885.83 1079.38C880.424 1081.71 873.923 1082.88 866.326 1082.88ZM871.147 1066.23C880.789 1066.23 888.459 1063.89 894.157 1059.21C899.854 1054.54 902.703 1048.18 902.703 1040.15V1023.28H867.641C861.213 1023.28 855.953 1025.25 851.863 1029.19C847.918 1032.99 845.946 1038.1 845.946 1044.53C845.946 1051.25 848.137 1056.58 852.52 1060.53C857.049 1064.33 863.258 1066.23 871.147 1066.23Z" fill="#000D16"/>
<path d="M715.203 1080.69V920.716H756.621C766.993 920.716 775.905 922.688 783.356 926.633C790.953 930.577 796.796 936.129 800.887 943.287C805.124 950.446 807.242 958.919 807.242 968.707V1032.48C807.242 1042.27 805.124 1050.81 800.887 1058.12C796.796 1065.28 790.953 1070.83 783.356 1074.77C775.905 1078.72 766.993 1080.69 756.621 1080.69H715.203ZM734.926 1063.16H756.621C766.263 1063.16 773.787 1060.45 779.192 1055.05C784.744 1049.64 787.519 1042.12 787.519 1032.48V968.707C787.519 959.211 784.744 951.761 779.192 946.355C773.787 940.95 766.263 938.247 756.621 938.247H734.926V1063.16Z" fill="#000D16"/>
<path d="M1599.72 1082.88C1590.22 1082.88 1581.9 1080.98 1574.74 1077.18C1567.73 1073.24 1562.25 1067.69 1558.3 1060.53C1554.36 1053.22 1552.39 1044.61 1552.39 1034.67V1006.18C1552.39 996.102 1554.36 987.483 1558.3 980.324C1562.25 973.165 1567.73 967.687 1574.74 963.888C1581.9 959.944 1590.22 957.972 1599.72 957.972C1609.22 957.972 1617.47 959.871 1624.48 963.669C1631.64 967.468 1637.19 972.8 1641.14 979.667C1645.08 986.533 1647.06 994.641 1647.06 1003.99V1025.47H1571.67V1036.86C1571.67 1045.77 1574.23 1052.86 1579.34 1058.12C1584.45 1063.23 1591.25 1065.79 1599.72 1065.79C1607.03 1065.79 1613.02 1064.4 1617.69 1061.62C1622.51 1058.7 1625.43 1054.83 1626.46 1050.01H1646.18C1644.86 1060.09 1639.97 1068.13 1631.5 1074.12C1623.02 1079.96 1612.43 1082.88 1599.72 1082.88ZM1627.77 1012.1V1003.99C1627.77 994.495 1625.29 987.19 1620.32 982.077C1615.5 976.818 1608.63 974.188 1599.72 974.188C1590.81 974.188 1583.87 976.818 1578.9 982.077C1574.08 987.19 1571.67 994.495 1571.67 1003.99V1010.13H1629.3L1627.77 1012.1Z" fill="#000D16"/>
<path d="M1475.94 1080.69L1434.96 960.163H1456.21L1482.51 1041.24C1484.12 1046.07 1485.51 1050.74 1486.67 1055.27C1487.84 1059.65 1488.72 1063.09 1489.3 1065.57C1490.03 1063.09 1490.91 1059.65 1491.93 1055.27C1492.96 1050.74 1494.2 1046.07 1495.66 1041.24L1521.96 960.163H1542.77L1501.79 1080.69H1475.94Z" fill="#000D16"/>
<path d="M1370.92 1082.88C1358.5 1082.88 1348.64 1079.45 1341.33 1072.58C1334.03 1065.57 1330.38 1056.44 1330.38 1045.19C1330.38 1037.74 1332.06 1031.24 1335.42 1025.69C1338.78 1020.13 1343.45 1015.82 1349.44 1012.76C1355.43 1009.54 1362.3 1007.94 1370.04 1007.94H1407.3V998.513C1407.3 990.624 1405.18 984.78 1400.94 980.981C1396.7 977.037 1390.28 975.065 1381.66 975.065C1374.06 975.065 1367.92 976.452 1363.25 979.228C1358.57 982.004 1356.09 985.875 1355.8 990.843H1336.07C1336.81 981.347 1341.19 973.531 1349.22 967.395C1357.4 961.113 1368.22 957.972 1381.66 957.972C1396.27 957.972 1407.44 961.478 1415.18 968.49C1423.07 975.503 1427.02 985.291 1427.02 997.855V1080.69H1407.51V1058.78H1404.23L1407.3 1054.39C1407.3 1060.24 1405.83 1065.28 1402.91 1069.51C1399.99 1073.75 1395.83 1077.04 1390.42 1079.38C1385.02 1081.71 1378.51 1082.88 1370.92 1082.88ZM1375.74 1066.23C1385.38 1066.23 1393.05 1063.89 1398.75 1059.21C1404.45 1054.54 1407.3 1048.18 1407.3 1040.15V1023.28H1372.23C1365.8 1023.28 1360.55 1025.25 1356.45 1029.19C1352.51 1032.99 1350.54 1038.1 1350.54 1044.53C1350.54 1051.25 1352.73 1056.58 1357.11 1060.53C1361.64 1064.33 1367.85 1066.23 1375.74 1066.23Z" fill="#000D16"/>
<path d="M1218.02 1080.69L1198.95 920.716H1217.14L1229.63 1039.05C1230.07 1042.27 1230.36 1045.63 1230.51 1049.13C1230.8 1052.49 1231.02 1055.71 1231.17 1058.77C1231.46 1061.84 1231.6 1064.4 1231.6 1066.44C1231.9 1064.4 1232.12 1061.84 1232.26 1058.77C1232.55 1055.71 1232.85 1052.49 1233.14 1049.13C1233.58 1045.63 1234.02 1042.27 1234.45 1039.05L1250.23 920.716H1271.49L1285.95 1039.05C1286.39 1042.27 1286.76 1045.63 1287.05 1049.13C1287.49 1052.49 1287.85 1055.71 1288.14 1058.77C1288.58 1061.84 1288.87 1064.4 1289.02 1066.44C1289.17 1064.4 1289.31 1061.84 1289.46 1058.77C1289.75 1055.71 1290.04 1052.49 1290.33 1049.13C1290.77 1045.63 1291.14 1042.27 1291.43 1039.05L1304.36 920.716H1321.67L1302.17 1080.69H1277.41L1262.94 960.161C1262.65 956.801 1262.36 953.514 1262.07 950.3C1261.77 947.086 1261.48 944.091 1261.19 941.315C1261.04 938.539 1260.9 936.275 1260.75 934.522C1260.6 936.275 1260.39 938.539 1260.09 941.315C1259.95 944.091 1259.73 947.086 1259.44 950.3C1259.14 953.514 1258.78 956.801 1258.34 960.161L1242.78 1080.69H1218.02Z" fill="#000D16"/>
<rect width="255.093" height="255.093" transform="translate(355.676 872.776)" fill="url(#paint0_linear_246_5)"/>
<defs>
<linearGradient id="paint0_linear_246_5" x1="114.706" y1="4.842e-07" x2="221.708" y2="267.077" gradientUnits="userSpaceOnUse">
<stop stop-color="#5DBBFF"/>
<stop offset="0.302083" stop-color="#0094FF"/>
<stop offset="0.645833" stop-color="#005DA0"/>
<stop offset="1" stop-color="#002A48"/>
</linearGradient>
</defs>
</svg>
