<svg width="2000" height="2000" viewBox="0 0 2000 2000" fill="none" xmlns="http://www.w3.org/2000/svg">
<rect width="2000" height="2000" fill="#F5F5F5"/>
<path d="M1646.88 1108.02V872.536H1680.06V1108.02H1646.88Z" fill="#222222"/>
<path d="M1416.6 1108.02L1499.38 872.536H1547.19L1629.96 1108.02H1594.64L1525.42 900.009H1521.14L1451.92 1108.02H1416.6ZM1455.85 1055.21V1030.24H1594.64V1055.21H1455.85Z" fill="#222222"/>
<path d="M1337.94 1112.65C1325.09 1112.65 1313.67 1111.23 1303.68 1108.37C1293.69 1105.76 1285.37 1101.95 1278.71 1096.96C1272.05 1091.72 1266.93 1085.54 1263.37 1078.4C1259.8 1071.27 1257.9 1063.42 1257.66 1054.85L1285.13 1047.72C1284.66 1055.57 1286.56 1062.47 1290.84 1068.41C1295.36 1074.12 1301.66 1078.52 1309.75 1081.61C1318.07 1084.71 1328.06 1086.25 1339.72 1086.25C1353.75 1086.25 1364.58 1083.87 1372.19 1079.12C1380.04 1074.36 1383.96 1067.82 1383.96 1059.49C1383.96 1052.83 1381.82 1047.72 1377.54 1044.15C1373.26 1040.35 1367.31 1037.37 1359.7 1035.23C1352.33 1032.85 1343.53 1030.71 1333.3 1028.81C1324.73 1026.91 1316.17 1024.77 1307.61 1022.39C1299.05 1020.01 1291.2 1016.92 1284.06 1013.11C1277.16 1009.07 1271.57 1003.83 1267.29 997.412C1263.01 990.989 1260.87 983.021 1260.87 973.507C1260.87 962.327 1263.84 952.694 1269.79 944.607C1275.74 936.52 1284.18 930.216 1295.12 925.697C1306.06 921.178 1319.14 918.918 1334.37 918.918C1349.59 918.918 1362.55 921.297 1373.26 926.054C1383.96 930.573 1392.41 936.995 1398.59 945.32C1404.77 953.645 1408.22 963.398 1408.94 974.577L1380.75 981.713C1380.51 973.864 1378.37 967.203 1374.33 961.733C1370.52 956.262 1365.05 952.218 1357.92 949.602C1350.78 946.748 1342.46 945.32 1332.94 945.32C1320.33 945.32 1310.34 947.699 1302.97 952.456C1295.6 957.213 1291.91 963.755 1291.91 972.08C1291.91 978.264 1294.05 983.259 1298.33 987.065C1302.85 990.871 1308.92 993.844 1316.53 995.985C1324.14 998.125 1332.58 1000.27 1341.86 1002.41C1351.37 1004.31 1360.41 1006.45 1368.98 1008.83C1377.78 1011.21 1385.63 1014.3 1392.52 1018.11C1399.42 1021.91 1404.89 1027.03 1408.94 1033.45C1412.98 1039.63 1415 1047.6 1415 1057.35C1415 1069.48 1411.79 1079.71 1405.37 1088.04C1398.95 1096.12 1389.91 1102.31 1378.25 1106.59C1366.84 1110.63 1353.4 1112.65 1337.94 1112.65Z" fill="#222222"/>
<path d="M1169.7 1112.65C1153.53 1112.65 1139.73 1110.04 1128.31 1104.81C1117.13 1099.57 1107.98 1092.56 1100.84 1083.75C1093.94 1074.95 1088.83 1064.84 1085.5 1053.43C1082.41 1042.01 1080.86 1030.12 1080.86 1017.75C1080.86 1004.19 1082.64 991.465 1086.21 979.572C1089.78 967.679 1095.13 957.213 1102.27 948.175C1109.64 938.898 1118.68 931.762 1129.38 926.767C1140.32 921.534 1153.05 918.918 1167.56 918.918C1181.59 918.918 1193.96 921.415 1204.67 926.411C1215.37 931.168 1224.05 937.947 1230.71 946.748C1237.61 955.548 1242.01 966.014 1243.91 978.145L1212.87 986.708C1212.4 980.048 1210.37 973.626 1206.81 967.441C1203.48 961.257 1198.48 956.262 1191.82 952.456C1185.16 948.413 1176.95 946.391 1167.2 946.391C1157.93 946.391 1149.96 948.175 1143.3 951.743C1136.88 955.311 1131.4 960.306 1126.89 966.728C1122.6 973.15 1119.27 980.643 1116.9 989.206C1114.75 997.768 1113.68 1007.05 1113.68 1017.04C1113.68 1030.83 1115.59 1042.84 1119.39 1053.07C1123.44 1063.3 1129.62 1071.27 1137.95 1076.98C1146.27 1082.68 1156.97 1085.54 1170.06 1085.54C1179.81 1085.54 1188.13 1083.87 1195.03 1080.54C1201.93 1076.98 1207.4 1072.1 1211.44 1065.92C1215.49 1059.49 1218.1 1052 1219.29 1043.44L1249.26 1050.22C1247.6 1060.44 1244.51 1069.48 1239.99 1077.33C1235.47 1085.18 1229.76 1091.72 1222.86 1096.96C1215.96 1101.95 1208 1105.76 1198.96 1108.37C1190.16 1111.23 1180.4 1112.65 1169.7 1112.65Z" fill="#222222"/>
<path d="M982.401 1112.65C964.799 1112.65 949.219 1108.85 935.661 1101.24C922.341 1093.39 911.875 1082.21 904.264 1067.7C896.89 1053.19 893.203 1035.59 893.203 1014.89C893.203 993.487 897.128 975.766 904.977 961.733C913.064 947.461 923.768 936.757 937.088 929.622C950.408 922.486 965.275 918.918 981.687 918.918C998.813 918.918 1014.04 922.724 1027.36 930.335C1040.91 937.709 1051.62 948.65 1059.47 963.16C1067.32 977.431 1071.24 995.152 1071.24 1016.32C1071.24 1037.49 1067.32 1055.21 1059.47 1069.48C1051.86 1083.75 1041.27 1094.58 1027.71 1101.95C1014.39 1109.09 999.289 1112.65 982.401 1112.65ZM983.828 1085.9C995.245 1085.9 1005 1083.16 1013.08 1077.69C1021.41 1071.98 1027.71 1064.01 1031.99 1053.78C1036.51 1043.56 1038.77 1031.43 1038.77 1017.39C1038.77 1002.88 1036.39 990.395 1031.64 979.929C1027.12 969.225 1020.58 961.019 1012.01 955.311C1003.45 949.364 993.104 946.391 980.973 946.391C970.032 946.391 960.399 949.007 952.073 954.24C943.748 959.473 937.326 967.203 932.807 977.431C928.287 987.422 926.028 999.671 926.028 1014.18C926.028 1036.54 931.142 1054.14 941.37 1066.99C951.836 1079.59 965.988 1085.9 983.828 1085.9Z" fill="#222222"/>
<path d="M708.698 1108.02V1079.83H778.272C794.446 1079.83 807.766 1076.14 818.232 1068.77C828.698 1061.16 836.428 1050.69 841.423 1037.37C846.656 1024.05 849.273 1008.59 849.273 990.99C849.273 975.529 847.608 962.09 844.278 950.673C841.185 939.256 836.309 929.979 829.649 922.843C822.989 915.47 814.545 909.999 804.317 906.431C794.327 902.625 782.434 900.723 768.638 900.723H708.698V872.536H767.925C794.565 872.536 816.329 877.174 833.217 886.451C850.105 895.727 862.593 909.048 870.68 926.411C878.767 943.775 882.811 964.469 882.811 988.493C882.811 1004.43 881.027 1018.82 877.459 1031.66C874.129 1044.51 869.253 1055.69 862.831 1065.2C856.646 1074.72 849.273 1082.69 840.71 1089.11C832.147 1095.29 822.632 1100.05 812.167 1103.38C801.701 1106.47 790.759 1108.02 779.342 1108.02H708.698ZM691.215 1108.02V872.536H724.039V1108.02H691.215Z" fill="#222222"/>
<g filter="url(#filter0_i_296_1020)">
<path d="M298.186 1123.4V814H501.355L562.99 869.975V1123.4C562.99 1135.72 553.007 1145.7 540.691 1145.7H320.485C308.169 1145.7 298.186 1135.72 298.186 1123.4Z" fill="url(#paint0_linear_296_1020)"/>
</g>
<defs>
<filter id="filter0_i_296_1020" x="298.186" y="814" width="264.805" height="371.005" filterUnits="userSpaceOnUse" color-interpolation-filters="sRGB">
<feFlood flood-opacity="0" result="BackgroundImageFix"/>
<feBlend mode="normal" in="SourceGraphic" in2="BackgroundImageFix" result="shape"/>
<feColorMatrix in="SourceAlpha" type="matrix" values="0 0 0 0 0 0 0 0 0 0 0 0 0 0 0 0 0 0 127 0" result="hardAlpha"/>
<feOffset dy="52.961"/>
<feGaussianBlur stdDeviation="19.6513"/>
<feComposite in2="hardAlpha" operator="arithmetic" k2="-1" k3="1"/>
<feColorMatrix type="matrix" values="0 0 0 0 1 0 0 0 0 1 0 0 0 0 1 0 0 0 0.25 0"/>
<feBlend mode="normal" in2="shape" result="effect1_innerShadow_296_1020"/>
</filter>
<linearGradient id="paint0_linear_296_1020" x1="348.739" y1="880.341" x2="567.683" y2="1209.82" gradientUnits="userSpaceOnUse">
<stop stop-color="#00B3FF"/>
<stop offset="1" stop-color="#2AFFF2"/>
</linearGradient>
</defs>
</svg>
