<svg width="2000" height="2000" viewBox="0 0 2000 2000" fill="none" xmlns="http://www.w3.org/2000/svg">
<rect width="2000" height="2000" fill="#030616"/>
<path d="M709.678 898.511V804.301H1140.23V898.511H709.678ZM797.888 1259.88V805.707C797.888 794.458 797.888 781.1 798.588 766.336C798.588 751.572 801.388 736.808 805.589 722.043C809.789 707.279 816.79 693.921 827.991 681.266C841.993 665.798 857.395 654.549 873.496 648.925C889.598 643.3 905.7 639.785 921.102 639.785C936.504 639.785 949.805 639.785 960.306 639.785H1016.31V732.589H964.507C946.305 732.589 933.003 736.808 924.602 745.947C916.201 755.087 911.301 766.336 911.301 778.991V1259.88H797.188H797.888Z" fill="#CBD9EF"/>
<path d="M957.078 1462.37V1355.5H977.381C1003.28 1355.5 1021.49 1349.88 1031.29 1337.92C1041.09 1325.97 1045.99 1309.1 1045.99 1287.3V804.301H1160.1V1342.85C1160.1 1379.4 1148.9 1408.23 1126.5 1430.03C1104.1 1451.82 1073.29 1462.37 1034.79 1462.37H957.078Z" fill="#CBD9EF"/>
<path d="M1208 828.511C1242.02 828.511 1269.6 800.811 1269.6 766.642C1269.6 732.472 1242.02 704.772 1208 704.772C1173.97 704.772 1146.39 732.472 1146.39 766.642C1146.39 800.811 1173.97 828.511 1208 828.511Z" fill="#CBD9EF"/>
</svg>
