<svg width="2000" height="2000" viewBox="0 0 2000 2000" fill="none" xmlns="http://www.w3.org/2000/svg">
<rect width="2000" height="2000" fill="#444444"/>
<path d="M683.365 1379.24C678.762 1379.24 675.031 1375.51 675.031 1370.9V884.529C675.031 832.371 686.703 784.71 710.047 741.545C734.29 697.481 768.857 662.41 813.749 636.331C857.502 610.554 909.043 597.091 968.37 595.944C972.972 595.855 976.71 599.595 976.71 604.198V772.33C976.71 776.932 972.974 780.631 968.38 780.923C942.672 782.556 922.105 791.912 906.677 808.99C889.618 827.875 881.088 850.806 881.088 877.784V1370.9C881.088 1375.51 877.357 1379.24 872.755 1379.24H683.365ZM731.769 1109.79C727.166 1109.79 723.435 1106.06 723.435 1101.46V942.772C723.435 938.169 727.166 934.438 731.769 934.438H1170.39C1175 934.438 1178.73 938.169 1178.73 942.772V1101.46C1178.73 1106.06 1175 1109.79 1170.39 1109.79H731.769ZM1098.17 1379.24C1093.57 1379.24 1089.84 1375.51 1089.84 1370.9V619.036C1089.84 614.433 1093.57 610.702 1098.17 610.702H1287.56C1292.16 610.702 1295.9 614.433 1295.9 619.036V1370.9C1295.9 1375.51 1292.16 1379.24 1287.56 1379.24H1098.17Z" fill="white"/>
</svg>
