<svg width="2000" height="2000" viewBox="0 0 2000 2000" fill="none" xmlns="http://www.w3.org/2000/svg">
<rect width="2000" height="2000" fill="#111111"/>
<path d="M1228.08 796.694V1018.67L1312.1 936.864H1421.76L1308.12 1041.66L1428.39 1163.7H1316.08L1228.08 1071.29V1163.7H1148.05V796.694H1228.08Z" fill="#24FF00"/>
<path d="M1495.42 796.694V1018.67L1579.43 936.864H1689.09L1575.45 1041.66L1695.72 1163.7H1583.41L1495.42 1071.29V1163.7H1415.38V796.694H1495.42Z" fill="#24FF00"/>
<path d="M893.035 936.034H973.069V964.775C983.976 951.51 995.03 942.666 1006.23 938.245C1017.43 933.528 1030.55 931.17 1045.59 931.17C1061.5 931.17 1075.06 933.823 1086.27 939.129C1097.76 944.14 1107.49 951.363 1115.45 960.796C1121.93 968.46 1126.36 977.009 1128.71 986.442C1131.07 995.875 1132.25 1006.63 1132.25 1018.72V1162.87H1052.22V1048.35C1052.22 1037.14 1051.33 1028.15 1049.57 1021.37C1048.09 1014.3 1045.29 1008.7 1041.16 1004.57C1037.63 1001.03 1033.65 998.528 1029.23 997.054C1024.8 995.58 1020.09 994.843 1015.08 994.843C1001.52 994.843 991.051 998.97 983.681 1007.22C976.606 1015.18 973.069 1026.68 973.069 1041.71V1162.87H893.035V936.034Z" fill="#24FF00"/>
<path d="M695.143 1048.79C695.143 1056.16 696.469 1063.08 699.122 1069.57C701.775 1075.76 705.313 1081.21 709.734 1085.93C714.451 1090.65 719.904 1094.33 726.095 1096.98C732.58 1099.64 739.508 1100.96 746.877 1100.96C753.952 1100.96 760.585 1099.64 766.775 1096.98C773.26 1094.33 778.714 1090.65 783.135 1085.93C787.852 1081.21 791.537 1075.76 794.19 1069.57C797.138 1063.38 798.612 1056.75 798.612 1049.67C798.612 1042.6 797.138 1035.96 794.19 1029.77C791.537 1023.29 787.852 1017.69 783.135 1012.97C778.714 1008.25 773.26 1004.57 766.775 1001.92C760.585 999.263 753.952 997.936 746.877 997.936C739.508 997.936 732.58 999.263 726.095 1001.92C719.904 1004.57 714.451 1008.25 709.734 1012.97C705.313 1017.69 701.775 1023.14 699.122 1029.33C696.469 1035.23 695.143 1041.71 695.143 1048.79ZM795.959 936.032H876.434V1162.87H795.959V1137.66C778.861 1159.18 755.721 1169.94 726.537 1169.94C710.029 1169.94 694.848 1166.99 680.993 1161.1C667.138 1154.91 655.052 1146.36 644.735 1135.45C634.417 1124.55 626.311 1111.72 620.415 1096.98C614.814 1082.24 612.014 1066.18 612.014 1048.79C612.014 1032.57 614.814 1017.24 620.415 1002.8C626.016 988.061 633.828 975.238 643.85 964.331C653.873 953.424 665.812 944.875 679.666 938.685C693.521 932.2 708.85 928.957 725.653 928.957C753.952 928.957 777.387 938.832 795.959 958.583V936.032Z" fill="#24FF00"/>
<path d="M470.879 936.034H550.913V973.177C559.461 959.617 569.926 949.299 582.307 942.224C594.688 934.855 609.132 931.17 625.64 931.17C627.704 931.17 629.915 931.17 632.273 931.17C634.926 931.17 637.874 931.465 641.116 932.054V1008.55C630.504 1003.24 619.008 1000.59 606.627 1000.59C588.055 1000.59 574.053 1006.19 564.62 1017.39C555.482 1028.3 550.913 1044.37 550.913 1065.59V1162.87H470.879V936.034Z" fill="#24FF00"/>
<path d="M415.775 1002.8V1162.87H335.741V1002.8H307V936.033H335.741V901.986C335.741 883.12 337.51 868.086 341.047 856.884C343.995 847.451 348.712 838.755 355.197 830.796C361.682 822.542 369.199 815.467 377.748 809.571C386.592 803.676 396.025 799.107 406.047 795.864C416.07 792.621 425.945 791 435.673 791C442.453 791 448.643 791.737 454.244 793.211C460.14 794.685 466.036 796.748 471.931 799.401V869.265C466.625 866.612 461.614 864.696 456.897 863.517C452.476 862.043 447.759 861.306 442.748 861.306C439.505 861.306 436.115 861.895 432.578 863.075C429.335 863.959 426.24 866.022 423.292 869.265C420.344 872.508 418.281 877.224 417.102 883.415C416.217 889.31 415.775 897.417 415.775 907.734V936.033H471.931V1002.8H415.775Z" fill="#24FF00"/>
</svg>
