<svg width="2000" height="2000" viewBox="0 0 2000 2000" fill="none" xmlns="http://www.w3.org/2000/svg">
<rect width="2000" height="2000" fill="#000C00"/>
<path d="M666.483 843.776C660.49 859.259 653.708 874.899 646.138 890.698C638.883 906.496 630.997 921.979 622.481 937.146H865.201V1193.56H791.391V1169.86H620.115V1195.93H550.091V1036.2C541.574 1045.05 532.742 1053.58 523.595 1061.8C514.447 1070.01 504.827 1077.6 494.733 1084.55C490.948 1079.18 486.059 1073.17 480.066 1066.54C474.388 1059.9 468.553 1053.42 462.56 1047.1C456.567 1040.47 451.047 1035.1 446 1030.99C468.08 1016.77 487.952 999.55 505.616 979.328C523.595 959.106 539.366 937.304 552.929 913.922C566.493 890.224 577.69 866.842 586.522 843.776H469.184V776H891.224V843.776H666.483ZM791.391 1003.03H620.115V1103.51H791.391V1003.03Z" fill="#FF7A00"/>
<path d="M1484.05 874.86V813.139H1554V874.86H1484.05ZM1484.05 1191.18V913.435H1554V1191.18H1484.05Z" fill="white"/>
<path d="M1414.91 1190.85V1059.69C1414.91 1053.35 1414.57 1045.29 1413.88 1035.52C1413.2 1025.57 1411.05 1015.63 1407.45 1005.69C1403.85 995.742 1397.94 987.427 1389.71 980.74C1381.65 974.054 1370.16 970.711 1355.25 970.711C1349.25 970.711 1342.82 971.654 1335.96 973.54C1329.1 975.426 1322.67 979.112 1316.67 984.598C1310.67 989.913 1305.7 997.799 1301.76 1008.26C1297.99 1018.72 1296.1 1032.6 1296.1 1049.92L1255.98 1030.89C1255.98 1008.94 1260.44 988.37 1269.35 969.168C1278.27 949.966 1291.64 934.45 1309.47 922.62C1327.47 910.79 1350.11 904.875 1377.37 904.875C1399.14 904.875 1416.88 908.562 1430.6 915.934C1444.31 923.306 1454.94 932.65 1462.49 943.965C1470.2 955.281 1475.69 967.11 1478.95 979.454C1482.2 991.627 1484.18 1002.77 1484.86 1012.89C1485.55 1023 1485.89 1030.37 1485.89 1035V1190.85H1414.91ZM1225.12 1190.85V820.524H1287.36V1010.83H1296.1V1190.85H1225.12Z" fill="white"/>
<path d="M1160.72 1192.63C1126.93 1201.68 1097.57 1201.39 1072.62 1191.74C1047.79 1181.89 1029.39 1163.56 1017.42 1136.78L1083.69 1107.84C1089.87 1119.67 1098.72 1127.86 1110.24 1132.41C1121.92 1136.91 1135.21 1137.17 1150.11 1133.17C1162.37 1129.89 1171.18 1125.04 1176.57 1118.63C1181.9 1112.05 1183.44 1104.54 1181.18 1096.09C1179.76 1090.79 1177.3 1086.93 1173.81 1084.49C1170.27 1081.89 1163.44 1080.26 1153.33 1079.59C1143.38 1078.89 1128.02 1078.56 1107.27 1078.62C1083.9 1078.85 1064.75 1077.24 1049.8 1073.79C1034.85 1070.34 1023.2 1064.59 1014.83 1056.53C1006.41 1048.32 1000.36 1037.34 996.681 1023.59C992.066 1006.37 992.461 990.287 997.865 975.35C1003.23 960.246 1012.94 947.17 1027.02 936.12C1041.22 924.861 1059.17 916.324 1080.86 910.511C1101.9 904.876 1121.39 903.113 1139.35 905.223C1157.31 907.333 1172.86 913.019 1185.99 922.28C1199.29 931.497 1209.27 943.909 1215.93 959.517L1150.21 990.441C1146.38 980.815 1139.97 974.103 1130.96 970.303C1121.96 966.504 1110.95 965.816 1097.93 968.239C1085.29 970.739 1075.71 975.08 1069.2 981.261C1062.86 987.398 1060.73 994.358 1062.82 1002.14C1064.06 1006.78 1066.68 1010.25 1070.67 1012.55C1074.82 1014.81 1082.39 1016.24 1093.38 1016.85C1104.54 1017.41 1121.26 1017.54 1143.54 1017.25C1165.33 1017.09 1183.31 1018.93 1197.47 1022.77C1211.76 1026.4 1223.05 1032.43 1231.34 1040.85C1239.59 1049.11 1245.57 1060.2 1249.3 1074.11C1256.67 1101.6 1252.52 1125.88 1236.87 1146.93C1221.21 1167.99 1195.83 1183.22 1160.72 1192.63Z" fill="white"/>
<path d="M933.67 874.86V813.139H1003.62V874.86H933.67ZM933.67 1191.18V913.435H1003.62V1191.18H933.67Z" fill="white"/>
</svg>
