<svg width="2000" height="2000" viewBox="0 0 2000 2000" fill="none" xmlns="http://www.w3.org/2000/svg">
<rect width="2000" height="2000" fill="#1C1917"/>
<path d="M931.182 1297.66C940.468 1295.33 949.754 1299.98 961.362 1299.98C962.91 1303.85 966.005 1299.98 966.005 1253.52C966.005 1195.46 956.719 1174.55 947.433 1165.26C938.147 1155.97 907.967 1151.33 894.038 1149C880.109 1146.68 863.858 1097.9 852.25 1074.68C840.642 1051.45 863.858 807.568 863.858 795.955C863.858 784.341 863.858 770.405 880.109 768.082C896.359 765.76 901.002 777.373 901.002 782.019V1028.22C901.002 1063.06 914.931 1058.42 928.861 1083.97C940.004 1104.41 950.528 1092.48 954.397 1083.97C950.528 917.509 943.254 580.874 945.111 566.009C947.433 547.427 966.005 531.168 986.899 524.2C1007.79 517.232 1010.11 542.782 1012.44 545.104C1014.76 547.427 1000.83 1135.07 998.507 1144.36C996.185 1153.65 998.507 1155.97 1014.76 1162.94C1031.01 1169.91 1035.65 1128.1 1037.97 1125.78C1040.29 1123.45 1035.65 788.987 1035.65 782.019C1035.65 775.05 1037.97 772.728 1061.19 763.437C1079.76 756.004 1082.86 867.184 1086.72 923.703C1086.72 988.738 1085.8 1129.03 1082.08 1169.91C1078.37 1210.79 1037.2 1234.94 1017.08 1241.91C1017.08 1258.94 1018.01 1293.01 1021.72 1293.01C1026.36 1293.01 1102.98 1293.01 1114.58 1297.66C1126.19 1302.3 1116.9 1313.91 1107.62 1311.59C1098.33 1309.27 1056.54 1316.24 1056.54 1320.88C1056.54 1325.53 1047.26 1339.46 1040.29 1341.79C1033.33 1344.11 991.542 1351.08 975.291 1344.11C959.041 1337.14 938.147 1332.5 928.861 1330.17C919.575 1327.85 898.681 1346.43 880.109 1351.08C861.536 1355.72 859.215 1341.79 863.858 1332.5C868.501 1323.21 921.896 1299.98 931.182 1297.66Z" fill="#E7E5E4"/>
<path d="M684 1537.18V1468.06H698.784V1537.18H684ZM690.912 1537.18V1525.85H732V1537.18H690.912Z" fill="white"/>
<path d="M728.06 1537.18L752.828 1468.06H765.5L742.748 1537.18H728.06ZM778.748 1537.18L756.092 1468.06H769.34L794.108 1537.18H778.748ZM741.116 1510.39H779.9V1521.91H741.116V1510.39Z" fill="white"/>
<path d="M816.497 1538.04C807.537 1538.04 800.369 1536.06 794.993 1532.09C789.617 1528.06 786.481 1522.39 785.585 1515.1H799.793C800.241 1518.81 802.033 1521.75 805.169 1523.93C808.305 1526.04 812.305 1527.1 817.169 1527.1C821.137 1527.1 824.177 1526.39 826.289 1524.98C828.465 1523.58 829.553 1521.69 829.553 1519.32C829.553 1517.08 828.913 1515.29 827.633 1513.94C826.353 1512.54 824.145 1511.42 821.009 1510.58L808.145 1507.03C801.553 1505.18 796.721 1502.65 793.649 1499.45C790.641 1496.18 789.137 1492.12 789.137 1487.26C789.137 1483.1 790.193 1479.51 792.305 1476.5C794.481 1473.43 797.521 1471.1 801.425 1469.5C805.329 1467.83 809.905 1467 815.153 1467C823.217 1467 829.649 1468.92 834.449 1472.76C839.249 1476.54 841.969 1481.56 842.609 1487.83H828.401C827.761 1484.44 826.193 1481.94 823.697 1480.34C821.265 1478.74 818.129 1477.94 814.289 1477.94C810.961 1477.94 808.305 1478.58 806.321 1479.86C804.337 1481.14 803.345 1482.87 803.345 1485.05C803.345 1486.71 803.889 1488.25 804.977 1489.66C806.065 1491 808.337 1492.15 811.793 1493.11L824.657 1496.66C831.441 1498.52 836.305 1501.08 839.249 1504.34C842.257 1507.54 843.761 1511.61 843.761 1516.54C843.761 1523.45 841.361 1528.76 836.561 1532.47C831.761 1536.18 825.073 1538.04 816.497 1538.04Z" fill="white"/>
<path d="M869.522 1538.04C860.562 1538.04 853.394 1536.06 848.018 1532.09C842.642 1528.06 839.506 1522.39 838.61 1515.1H852.818C853.266 1518.81 855.058 1521.75 858.194 1523.93C861.33 1526.04 865.33 1527.1 870.194 1527.1C874.162 1527.1 877.202 1526.39 879.314 1524.98C881.49 1523.58 882.578 1521.69 882.578 1519.32C882.578 1517.08 881.938 1515.29 880.658 1513.94C879.378 1512.54 877.17 1511.42 874.034 1510.58L861.17 1507.03C854.578 1505.18 849.746 1502.65 846.674 1499.45C843.666 1496.18 842.162 1492.12 842.162 1487.26C842.162 1483.1 843.218 1479.51 845.33 1476.5C847.506 1473.43 850.546 1471.1 854.45 1469.5C858.354 1467.83 862.93 1467 868.178 1467C876.242 1467 882.674 1468.92 887.474 1472.76C892.274 1476.54 894.994 1481.56 895.634 1487.83H881.426C880.786 1484.44 879.218 1481.94 876.722 1480.34C874.29 1478.74 871.154 1477.94 867.314 1477.94C863.986 1477.94 861.33 1478.58 859.346 1479.86C857.362 1481.14 856.37 1482.87 856.37 1485.05C856.37 1486.71 856.914 1488.25 858.002 1489.66C859.09 1491 861.362 1492.15 864.818 1493.11L877.682 1496.66C884.466 1498.52 889.33 1501.08 892.274 1504.34C895.282 1507.54 896.786 1511.61 896.786 1516.54C896.786 1523.45 894.386 1528.76 889.586 1532.47C884.786 1536.18 878.098 1538.04 869.522 1538.04Z" fill="white"/>
<path d="M927.635 1538.14C922.515 1538.14 917.779 1537.27 913.427 1535.54C909.139 1533.82 905.395 1531.38 902.195 1528.25C899.059 1525.05 896.595 1521.27 894.803 1516.92C893.075 1512.5 892.211 1507.64 892.211 1502.33C892.211 1495.29 893.715 1489.14 896.723 1483.9C899.731 1478.58 903.891 1474.46 909.203 1471.51C914.579 1468.57 920.691 1467.1 927.539 1467.1C934.515 1467.1 940.659 1468.57 945.971 1471.51C951.283 1474.46 955.443 1478.58 958.451 1483.9C961.523 1489.21 963.059 1495.38 963.059 1502.42C963.059 1507.67 962.163 1512.5 960.371 1516.92C958.643 1521.27 956.179 1525.05 952.979 1528.25C949.843 1531.38 946.099 1533.82 941.747 1535.54C937.459 1537.27 932.755 1538.14 927.635 1538.14ZM927.539 1526.42C931.571 1526.42 935.123 1525.4 938.195 1523.35C941.267 1521.3 943.667 1518.49 945.395 1514.9C947.187 1511.26 948.083 1507.03 948.083 1502.23C948.083 1497.5 947.219 1493.37 945.491 1489.85C943.763 1486.33 941.363 1483.61 938.291 1481.69C935.219 1479.77 931.635 1478.81 927.539 1478.81C923.507 1478.81 919.955 1479.77 916.883 1481.69C913.811 1483.61 911.411 1486.33 909.683 1489.85C908.019 1493.3 907.187 1497.43 907.187 1502.23C907.187 1507.1 908.051 1511.35 909.779 1515C911.507 1518.58 913.907 1521.4 916.979 1523.45C920.051 1525.43 923.571 1526.42 927.539 1526.42Z" fill="white"/>
<path d="M1011.22 1538.14C1006.23 1538.14 1001.62 1537.27 997.4 1535.54C993.176 1533.75 989.495 1531.26 986.359 1528.06C983.288 1524.86 980.888 1521.08 979.16 1516.73C977.432 1512.31 976.568 1507.51 976.568 1502.33C976.568 1497.14 977.4 1492.41 979.064 1488.12C980.792 1483.83 983.191 1480.12 986.263 1476.98C989.399 1473.78 993.079 1471.35 997.303 1469.69C1001.53 1467.96 1006.17 1467.1 1011.22 1467.1C1016.92 1467.1 1022.04 1468.22 1026.58 1470.46C1031.19 1472.63 1034.94 1475.74 1037.82 1479.77C1040.76 1483.74 1042.55 1488.41 1043.19 1493.78H1028.79C1027.96 1488.86 1025.94 1485.14 1022.74 1482.65C1019.54 1480.09 1015.74 1478.81 1011.32 1478.81C1007.42 1478.81 1003.96 1479.74 1000.95 1481.59C998.008 1483.45 995.703 1486.14 994.039 1489.66C992.375 1493.11 991.543 1497.3 991.543 1502.23C991.543 1507.22 992.375 1511.54 994.039 1515.19C995.767 1518.78 998.135 1521.56 1001.14 1523.54C1004.15 1525.46 1007.61 1526.42 1011.51 1526.42C1015.67 1526.42 1019.35 1525.18 1022.55 1522.68C1025.75 1520.18 1027.83 1516.47 1028.79 1511.54H1043.38C1042.55 1516.92 1040.66 1521.62 1037.72 1525.66C1034.78 1529.62 1031.03 1532.7 1026.49 1534.87C1021.94 1537.05 1016.86 1538.14 1011.22 1538.14Z" fill="white"/>
<path d="M1033.74 1537.18L1058.5 1468.06H1071.18L1048.42 1537.18H1033.74ZM1084.42 1537.18L1061.77 1468.06H1075.02L1099.78 1537.18H1084.42ZM1046.79 1510.39H1083.58V1521.91H1046.79V1510.39Z" fill="white"/>
<path d="M1123.37 1538.14C1118.38 1538.14 1113.77 1537.27 1109.54 1535.54C1105.32 1533.75 1101.64 1531.26 1098.5 1528.06C1095.43 1524.86 1093.03 1521.08 1091.3 1516.73C1089.58 1512.31 1088.71 1507.51 1088.71 1502.33C1088.71 1497.14 1089.54 1492.41 1091.21 1488.12C1092.94 1483.83 1095.34 1480.12 1098.41 1476.98C1101.54 1473.78 1105.22 1471.35 1109.45 1469.69C1113.67 1467.96 1118.31 1467.1 1123.37 1467.1C1129.06 1467.1 1134.18 1468.22 1138.73 1470.46C1143.34 1472.63 1147.08 1475.74 1149.96 1479.77C1152.9 1483.74 1154.7 1488.41 1155.34 1493.78H1140.94C1140.1 1488.86 1138.09 1485.14 1134.89 1482.65C1131.69 1480.09 1127.88 1478.81 1123.46 1478.81C1119.56 1478.81 1116.1 1479.74 1113.1 1481.59C1110.15 1483.45 1107.85 1486.14 1106.18 1489.66C1104.52 1493.11 1103.69 1497.3 1103.69 1502.23C1103.69 1507.22 1104.52 1511.54 1106.18 1515.19C1107.91 1518.78 1110.28 1521.56 1113.29 1523.54C1116.3 1525.46 1119.75 1526.42 1123.66 1526.42C1127.82 1526.42 1131.5 1525.18 1134.7 1522.68C1137.9 1520.18 1139.98 1516.47 1140.94 1511.54H1155.53C1154.7 1516.92 1152.81 1521.62 1149.86 1525.66C1146.92 1529.62 1143.18 1532.7 1138.63 1534.87C1134.09 1537.05 1129 1538.14 1123.37 1538.14Z" fill="white"/>
<path d="M1169.25 1537.18V1479.38H1146.69V1468.06H1206.6V1479.38H1184.04V1537.18H1169.25Z" fill="white"/>
<path d="M1232.79 1538.14C1222.94 1538.14 1215.54 1535.45 1210.62 1530.07C1205.75 1524.63 1203.32 1516.73 1203.32 1506.36V1468.06H1218.1V1508.95C1218.1 1514.97 1219.42 1519.38 1222.04 1522.2C1224.66 1525.02 1228.28 1526.42 1232.89 1526.42C1237.5 1526.42 1241.11 1525.02 1243.74 1522.2C1246.36 1519.38 1247.67 1515 1247.67 1509.05V1468.06H1262.46V1506.55C1262.46 1516.79 1259.99 1524.63 1255.06 1530.07C1250.14 1535.45 1242.71 1538.14 1232.79 1538.14Z" fill="white"/>
<path d="M1289.65 1538.04C1280.69 1538.04 1273.53 1536.06 1268.15 1532.09C1262.77 1528.06 1259.64 1522.39 1258.74 1515.1H1272.95C1273.4 1518.81 1275.19 1521.75 1278.33 1523.93C1281.46 1526.04 1285.46 1527.1 1290.33 1527.1C1294.29 1527.1 1297.33 1526.39 1299.45 1524.98C1301.62 1523.58 1302.71 1521.69 1302.71 1519.32C1302.71 1517.08 1302.07 1515.29 1300.79 1513.94C1299.51 1512.54 1297.3 1511.42 1294.17 1510.58L1281.3 1507.03C1274.71 1505.18 1269.88 1502.65 1266.81 1499.45C1263.8 1496.18 1262.29 1492.12 1262.29 1487.26C1262.29 1483.1 1263.35 1479.51 1265.46 1476.5C1267.64 1473.43 1270.68 1471.1 1274.58 1469.5C1278.49 1467.83 1283.06 1467 1288.31 1467C1296.37 1467 1302.81 1468.92 1307.61 1472.76C1312.41 1476.54 1315.13 1481.56 1315.77 1487.83H1301.56C1300.92 1484.44 1299.35 1481.94 1296.85 1480.34C1294.42 1478.74 1291.29 1477.94 1287.45 1477.94C1284.12 1477.94 1281.46 1478.58 1279.48 1479.86C1277.49 1481.14 1276.5 1482.87 1276.5 1485.05C1276.5 1486.71 1277.05 1488.25 1278.13 1489.66C1279.22 1491 1281.49 1492.15 1284.95 1493.11L1297.81 1496.66C1304.6 1498.52 1309.46 1501.08 1312.41 1504.34C1315.41 1507.54 1316.92 1511.61 1316.92 1516.54C1316.92 1523.45 1314.52 1528.76 1309.72 1532.47C1304.92 1536.18 1298.23 1538.04 1289.65 1538.04Z" fill="white"/>
<circle cx="1176.5" cy="604.5" r="98.5" fill="#E7E5E4"/>
</svg>
