<svg width="2000" height="2000" viewBox="0 0 2000 2000" fill="none" xmlns="http://www.w3.org/2000/svg">
<rect width="2000" height="2000" fill="#B9C7AE"/>
<path d="M993.828 845.337C1026.2 846.535 1060.98 850.134 1089.76 870.518C1120.94 893.303 1142.52 923.282 1149.72 961.653C1154.51 990.433 1143.72 1014.42 1128.13 1038.4C1112.54 1062.38 1098.15 1085.17 1071.77 1098.36C1048.99 1109.15 1027.41 1122.34 1002.22 1121.14C981.837 1121.14 963.849 1110.35 950.655 1092.36C923.072 1052.79 920.676 1010.82 942.262 970.048C957.853 941.267 979.435 931.677 1015.41 937.673C1019.01 937.673 1022.6 940.069 1023.8 935.276C1026.2 930.478 1023.8 926.883 1020.2 924.482C1013.01 919.685 1004.61 918.487 997.418 918.487C948.254 919.685 897.886 947.267 890.694 1006.03C883.499 1063.59 912.28 1116.35 971.035 1139.13C995.018 1148.73 1016.6 1139.13 1039.38 1133.14C1068.16 1125.94 1089.75 1109.15 1113.73 1092.36C1131.72 1079.17 1143.71 1062.39 1158.1 1045.6C1162.89 1039.6 1170.09 1037.2 1176.08 1040.8C1182.08 1043.2 1182.08 1050.39 1180.88 1057.59C1177.28 1081.57 1162.89 1098.36 1149.7 1117.55C1134.11 1139.13 1122.12 1160.71 1100.54 1178.7C1076.56 1197.89 1048.97 1203.88 1021.4 1208.68C983.026 1215.87 948.25 1208.68 913.473 1190.69C895.486 1182.3 884.693 1169.11 875.102 1153.52C845.124 1106.75 833.132 1055.19 839.128 998.83C841.525 974.847 843.925 950.864 855.917 930.48C883.502 878.912 927.874 845.338 993.829 845.338L993.828 845.337ZM1038.19 1024.01C1025.01 1028.81 1013.01 1027.61 1002.22 1020.41C998.621 1018.01 996.224 1015.61 992.625 1018.01C989.026 1021.61 990.229 1025.21 992.625 1028.81C998.621 1042 1009.41 1040.8 1021.41 1040.8C1033.4 1040.8 1037 1034.8 1038.19 1024.01Z" fill="#282E27"/>
<path d="M716.827 998.825C716.827 1020.41 698.84 1034.8 673.659 1038.4C631.689 1043.2 590.916 1031.2 550.146 1027.61C517.771 1025.21 486.589 1014.42 454.214 1016.81H450.615C441.02 1015.61 427.83 1015.61 426.632 1002.42C425.434 990.433 437.425 988.037 445.818 984.437C478.193 970.049 514.167 967.648 547.745 955.657C571.728 947.264 596.91 944.863 620.893 947.264C642.479 949.661 665.259 946.066 685.648 955.657C702.441 962.851 716.829 982.04 716.829 998.825H716.827Z" fill="#282E27"/>
<path d="M971.044 1353.77C967.445 1323.79 980.639 1302.21 1008.22 1287.82C1028.6 1278.23 1058.58 1289.02 1060.98 1310.61C1064.58 1340.58 1069.37 1369.36 1065.78 1400.54C1060.98 1431.72 1051.39 1461.7 1045.39 1491.68C1043 1501.27 1044.2 1510.86 1044.2 1520.46C1044.2 1533.65 1035.8 1538.44 1023.81 1532.45C1008.22 1525.25 1005.83 1509.66 1003.43 1495.28C998.632 1468.9 986.64 1444.91 983.045 1418.53C978.24 1398.14 968.646 1377.76 971.046 1353.77H971.044Z" fill="#282E27"/>
<path d="M1029.8 733.814C1017.81 733.814 1011.81 729.016 1005.82 718.223C995.024 697.839 984.231 679.852 985.434 655.869C987.831 611.502 993.826 567.131 1001.02 522.763C1002.22 513.168 1003.42 502.38 1002.22 492.785C999.826 481.991 1008.22 475.995 1011.82 468.801C1016.61 461.607 1028.6 465.202 1032.2 474.797C1044.19 505.974 1053.79 538.354 1060.98 570.729C1065.78 593.514 1071.77 616.299 1075.37 639.079C1081.36 671.454 1076.57 701.433 1048.99 725.416C1044.19 731.415 1038.19 735.011 1029.8 733.812L1029.8 733.814Z" fill="#282E27"/>
<path d="M794.779 794.971C777.99 790.173 762.404 780.583 748.012 769.79C732.421 756.6 721.632 739.811 712.037 721.824C692.852 688.245 673.666 654.672 650.881 623.495C646.084 616.301 636.494 609.107 646.084 598.314C654.476 588.719 671.265 587.521 682.058 595.917C692.852 604.31 703.645 613.905 714.434 622.297C715.632 623.495 718.033 625.896 719.231 625.896C739.615 615.102 738.416 636.689 745.61 643.883C768.395 666.668 793.576 685.853 813.96 711.034C827.15 729.022 833.145 748.207 835.547 768.596C836.745 779.389 827.154 784.187 817.559 787.781C810.369 790.178 803.174 792.575 794.778 794.971L794.779 794.971Z" fill="#282E27"/>
<path d="M1291.22 1034.8C1291.22 1014.42 1302.01 1004.82 1320 997.629C1345.18 988.034 1369.16 995.232 1393.15 1000.03C1419.53 1004.82 1445.91 1014.41 1472.29 1020.41C1487.88 1024.01 1504.66 1028.8 1521.45 1024.01C1523.85 1022.81 1526.25 1022.81 1528.65 1025.21C1535.84 1032.4 1544.24 1036 1555.03 1038.4C1559.82 1039.59 1565.82 1043.19 1565.82 1049.19C1565.82 1056.38 1558.63 1056.38 1553.83 1056.38C1498.67 1062.38 1444.71 1077.97 1390.74 1089.96C1367.96 1094.76 1347.58 1088.76 1329.59 1076.77C1319.99 1070.78 1309.2 1063.58 1300.81 1055.19C1293.62 1049.19 1294.82 1040.8 1291.22 1034.8L1291.22 1034.8Z" fill="#282E27"/>
<path d="M614.9 1359.77C614.9 1356.17 618.499 1350.18 622.095 1344.18C648.474 1290.22 689.246 1248.25 731.217 1206.28C750.403 1187.09 771.989 1183.49 797.171 1194.29C807.964 1199.08 816.356 1212.27 812.762 1224.26C806.766 1243.45 797.171 1260.24 779.183 1274.63C759.998 1290.22 739.609 1303.41 725.221 1323.79C716.829 1335.78 700.04 1338.18 688.049 1346.58C672.458 1358.57 656.872 1370.56 638.885 1378.95C625.695 1383.75 616.104 1377.76 614.902 1359.77L614.9 1359.77Z" fill="#282E27"/>
<path d="M1423.13 681.05H1441.12C1449.51 681.05 1451.91 687.046 1454.31 693.042C1456.71 699.037 1450.71 702.636 1448.31 705.033C1412.34 738.611 1365.57 757.797 1328.4 790.172C1312.81 804.56 1292.42 810.555 1278.04 824.948C1268.44 834.543 1238.46 835.742 1227.67 828.547C1216.88 822.551 1214.48 804.564 1219.28 792.573C1228.88 763.792 1255.25 750.602 1276.84 733.813C1305.62 712.227 1338 699.037 1371.58 690.645C1389.56 688.248 1406.34 677.455 1423.13 681.05H1423.13Z" fill="#282E27"/>
<path d="M1419.53 1371.76C1402.74 1372.96 1390.75 1360.97 1376.36 1353.77C1340.39 1336.98 1303.22 1323.79 1268.44 1303.41C1249.25 1291.42 1230.07 1279.43 1224.07 1255.44C1216.88 1224.27 1238.46 1201.48 1270.84 1201.48C1299.62 1201.48 1312.81 1218.27 1328.4 1237.46C1349.99 1263.84 1367.98 1293.82 1396.75 1314.2C1409.94 1323.8 1418.34 1340.58 1433.93 1348.98C1439.92 1352.58 1437.52 1360.97 1436.32 1365.77C1433.92 1374.16 1425.53 1370.56 1419.53 1371.76L1419.53 1371.76Z" fill="#282E27"/>
</svg>
