<svg width="2000" height="2000" viewBox="0 0 2000 2000" fill="none" xmlns="http://www.w3.org/2000/svg">
<rect width="2000" height="2000" fill="#0029FE"/>
<path fill-rule="evenodd" clip-rule="evenodd" d="M612.023 1057C612.023 1063.86 616.703 1067.3 626.062 1067.3H780.706C774.844 1083.66 771.913 1101.76 771.913 1121.58C771.913 1156.52 782.52 1189.58 803.734 1220.78C824.948 1251.35 858.64 1283.18 904.812 1316.24C946.615 1347.44 976.876 1378.95 995.595 1410.77C1014.94 1442.59 1024.61 1476.91 1024.61 1513.72C1024.61 1551.78 1015.25 1581.42 996.53 1602.63C978.436 1623.22 953.791 1633.52 922.594 1633.52C864.568 1633.52 824.948 1588.9 803.734 1499.68L795.311 1464.12C792.815 1452.89 788.135 1447.27 781.272 1447.27C773.161 1447.27 769.105 1453.51 769.105 1465.99L773.785 1612.93C773.785 1619.79 774.721 1624.78 776.592 1627.9C779.088 1630.4 782.52 1632.89 786.887 1635.39C794.375 1639.76 804.67 1643.81 817.772 1647.55C831.499 1651.3 845.85 1654.42 860.824 1656.91C876.422 1659.41 890.461 1660.66 902.94 1660.66C937.88 1660.66 968.765 1653.48 995.595 1639.13C1023.05 1624.16 1044.57 1603.57 1060.17 1577.36C1075.77 1551.16 1083.57 1520.58 1083.57 1485.64C1083.57 1445.71 1072.65 1408.27 1050.81 1373.33C1040.54 1356.11 1027.26 1338.58 1010.98 1320.77H1148.3C1157.66 1320.77 1162.34 1317.03 1162.34 1309.54C1162.34 1303.92 1158.91 1300.49 1152.04 1299.24L1126.77 1295.5C1113.67 1293.63 1104.93 1290.2 1100.57 1285.2C1096.82 1280.21 1094.95 1271.17 1094.95 1258.06V998.818C1094.95 990.083 1099.32 985.715 1108.05 985.715H1293.36C1302.1 985.715 1306.47 990.083 1306.47 998.818V1258.06C1306.47 1271.17 1304.28 1280.21 1299.92 1285.2C1296.17 1290.2 1287.75 1293.63 1274.65 1295.5L1249.38 1299.24C1242.51 1300.49 1239.08 1303.92 1239.08 1309.54C1239.08 1317.03 1243.76 1320.77 1253.12 1320.77H1424.39C1433.75 1320.77 1438.43 1317.34 1438.43 1310.47C1438.43 1304.86 1434.37 1301.12 1426.26 1299.24L1404.74 1295.5C1391.63 1293 1382.9 1289.57 1378.53 1285.2C1374.79 1280.84 1372.92 1272.1 1372.92 1259V708.687C1372.92 695.584 1374.79 686.849 1378.53 682.481C1382.9 678.114 1391.63 674.682 1404.74 672.186L1426.26 668.443C1434.37 666.571 1438.43 662.827 1438.43 657.212C1438.43 650.349 1433.75 646.917 1424.39 646.917H1253.12C1243.76 646.917 1239.08 650.661 1239.08 658.148C1239.08 663.763 1242.51 667.195 1249.38 668.443L1274.65 672.186C1287.75 674.058 1296.17 677.49 1299.92 682.481C1304.28 687.473 1306.47 696.52 1306.47 709.623V944.535C1306.47 953.27 1302.1 957.638 1293.36 957.638H1108.05C1099.32 957.638 1094.95 953.27 1094.95 944.535V709.623C1094.95 696.52 1096.82 687.473 1100.57 682.481C1104.93 677.49 1113.67 674.058 1126.77 672.186L1152.04 668.443C1158.91 667.195 1162.34 663.763 1162.34 658.148C1162.34 650.661 1157.66 646.917 1148.3 646.917H997.315C1004.38 626.656 1007.91 604.559 1007.91 580.624C1007.91 543.812 1000.11 511.367 984.514 483.29C968.916 455.213 947.078 433.375 919.001 417.776C890.923 401.554 858.479 393.443 821.666 393.443H626.062C616.703 393.443 612.023 396.875 612.023 403.738C612.023 409.353 616.079 413.097 624.19 414.969L645.716 418.712C658.819 421.208 667.242 424.64 670.986 429.007C675.353 433.375 677.537 442.11 677.537 455.213V1005.53C677.537 1018.63 675.353 1027.36 670.986 1031.73C667.242 1036.1 658.819 1039.53 645.716 1042.03L624.19 1045.77C616.079 1047.64 612.023 1051.38 612.023 1057ZM987.055 670.512C986.232 672.071 985.385 673.617 984.514 675.151C968.916 702.604 947.39 724.13 919.937 739.728C892.483 754.703 860.663 762.19 824.474 762.19H757.089C748.354 762.19 743.986 766.558 743.986 775.293V1001.78C743.986 1014.88 746.482 1023.93 751.473 1028.92C756.465 1033.29 767.696 1037.03 785.166 1040.15L793.279 1041.47C800.325 1030.33 809.113 1020.22 819.644 1011.14C852.089 983.061 893.269 969.023 943.184 969.023C961.902 969.023 979.996 971.206 997.466 975.574C1009.22 978.513 1019.57 982.301 1028.5 986.937V708.687C1028.5 695.584 1026.32 686.849 1021.95 682.481C1018.21 678.114 1009.78 674.682 996.681 672.186L987.055 670.512ZM806.692 738.792C764.888 738.792 743.986 721.634 743.986 687.317V454.277C743.986 429.319 763.016 416.841 801.076 416.841C844.752 416.841 878.445 430.879 902.154 458.956C925.864 487.033 937.719 526.654 937.719 577.816C937.719 627.731 925.864 667.039 902.154 695.741C879.069 724.442 847.248 738.792 806.692 738.792ZM948.799 1262.9C962.94 1274.4 975.913 1285.79 987.718 1297.06L996.681 1295.5C1009.78 1293 1018.21 1289.57 1021.95 1285.2C1026.32 1280.84 1028.5 1272.1 1028.5 1259V1149.52L1024.61 1135.61C1010.88 1087.57 996.53 1052.63 981.556 1030.79C967.205 1008.33 946.303 997.1 918.85 997.1C892.021 997.1 870.495 1005.83 854.273 1023.31C838.674 1040.78 830.875 1065.42 830.875 1097.24C830.875 1124.07 839.61 1149.65 857.08 1173.99C874.551 1198.32 905.124 1227.96 948.799 1262.9Z" fill="white"/>
</svg>
