<svg width="2000" height="2000" viewBox="0 0 2000 2000" fill="none" xmlns="http://www.w3.org/2000/svg">
<rect width="2000" height="2000" fill="#FDFBEF"/>
<circle cx="1000.15" cy="1000.27" r="704.154" fill="#FDFBEF"/>
<path d="M1591.92 956.019C1583.14 839.006 1539.85 727.224 1467.55 634.809C1395.24 542.393 1297.15 473.495 1185.68 436.826C1074.22 400.157 954.38 397.364 841.327 428.8C728.274 460.237 627.081 524.49 550.545 613.437C476.532 699.462 428.741 804.909 412.84 917.272C396.939 1029.64 413.595 1144.2 460.832 1247.39C508.07 1350.57 583.907 1438.04 679.352 1499.43C774.796 1560.82 885.844 1593.55 999.327 1593.75C1014.38 1593.75 1029.49 1593.19 1044.65 1592.07C1122.39 1586.44 1198.25 1565.45 1267.83 1530.32C1337.41 1495.18 1399.33 1446.6 1450.01 1387.38L1452.12 1384.92L1453.49 1383.27L1454.8 1381.75C1554.67 1263.37 1603.93 1110.43 1591.92 956.019ZM1043.13 1571.66C1028.46 1572.76 1013.89 1573.31 999.389 1573.31C862.497 1573.45 730.145 1524.21 626.633 1434.63C591.343 1404.32 559.851 1369.86 532.845 1331.98C789.541 1439.17 908.743 1402.69 1034.79 1364.11C1085.59 1348.56 1138.03 1332.54 1200.78 1326.78C1278.54 1391.92 1370.59 1396.46 1416.69 1393.73C1318.9 1497.8 1185.56 1561.31 1043.13 1571.66ZM733.237 1373.01C830.042 1373.72 906.815 1344.7 971.922 1320.13C1050 1290.61 1112.9 1266.84 1177.38 1308.9C1121.95 1316.15 1074.73 1330.67 1028.82 1344.61C942.774 1370.89 860.496 1396.06 733.237 1373.01ZM1232.94 1325.6C1304.49 1327.03 1371.34 1354.94 1408.45 1373.69C1367.79 1375.19 1297.12 1369.84 1232.94 1325.6ZM1440.02 1367.47C1414.79 1353.01 1323.8 1305.1 1226.6 1305.1C1220.37 1305.1 1213.9 1305.29 1207.53 1305.72C1127.77 1239.28 1051.99 1267.87 964.705 1300.93C856.235 1341.93 721.323 1392.95 512.19 1300.78C456.888 1210.99 427.438 1107.67 427.082 1002.22C426.727 896.759 455.48 793.25 510.175 703.085C564.87 612.921 643.386 539.599 737.077 491.193C830.768 442.786 936.001 421.174 1041.19 428.735C1146.37 436.296 1247.43 472.737 1333.24 534.045C1419.04 595.354 1486.26 679.152 1527.5 776.212C1568.74 873.272 1582.39 979.83 1566.96 1084.15C1551.52 1188.47 1507.6 1286.51 1440.02 1367.47Z" fill="#03274B"/>
<path d="M727.157 882.048C736.409 882.048 743.74 884.361 749.152 888.987C754.651 893.613 757.4 899.853 757.4 907.708C757.4 915.825 754.651 922.11 749.152 926.561C743.74 930.925 736.409 933.107 727.157 933.107L725.848 933.892H705.817V968.456H691.939V882.048H727.157ZM726.11 922.241C731.783 922.241 735.972 921.106 738.678 918.837C741.471 916.48 742.868 912.902 742.868 908.101C742.868 903.388 741.471 899.853 738.678 897.496C735.972 895.14 731.783 893.962 726.11 893.962H705.817V922.241H726.11ZM734.358 925.121L762.506 968.456H746.402L722.313 930.619L734.358 925.121Z" fill="#03274B"/>
<path d="M771.701 968.456V882.048H834.281V894.093H785.71V918.968H823.677V930.75H785.71V956.411H836.114V968.456H771.701Z" fill="#03274B"/>
<path d="M936.922 882.048V968.456H923.961V918.444L925.008 894.616H924.877L898.562 968.456H886.91L860.595 894.616H860.464L861.512 918.444V968.456H848.551V882.048H869.367L886.779 932.06L892.802 952.614H893.064L899.217 932.06L916.498 882.048H936.922Z" fill="#03274B"/>
<path d="M980.131 968.456V882.048H1014.17C1024.56 882.048 1032.15 884.143 1036.95 888.332C1041.75 892.522 1044.15 898.326 1044.15 905.745C1044.15 910.283 1042.84 914.342 1040.22 917.92C1037.61 921.411 1033.76 923.637 1028.7 924.597V924.728C1034.29 925.601 1038.61 927.914 1041.66 931.667C1044.81 935.333 1046.38 939.609 1046.38 944.497C1046.38 951.916 1043.67 957.764 1038.26 962.04C1032.85 966.317 1024.99 968.456 1014.69 968.456H980.131ZM993.878 956.804H1015.35C1020.85 956.804 1024.95 955.669 1027.66 953.4C1030.45 951.13 1031.84 947.945 1031.84 943.842C1031.84 939.74 1030.45 936.555 1027.66 934.285C1024.95 932.016 1020.85 930.881 1015.35 930.881H993.878V956.804ZM993.878 919.229H1013.12C1024.12 919.229 1029.62 914.996 1029.62 906.53C1029.62 898.064 1024.12 893.831 1013.12 893.831H993.878V919.229Z" fill="#03274B"/>
<path d="M1070.35 956.411H1121.45L1118 968.456H1056.34V882.048H1070.35V956.411Z" fill="#03274B"/>
<path d="M1114.03 968.456L1146.63 882.048H1163.39L1195.99 968.456H1181.19L1158.94 906.661L1155.01 894.223H1154.61L1150.95 906.399L1128.43 968.456H1114.03ZM1131.44 945.806V934.416H1178.18V945.806H1131.44Z" fill="#03274B"/>
<path d="M1222.57 882.048V968.456H1208.56V882.048H1222.57Z" fill="#03274B"/>
<path d="M1272.94 882.048C1282.19 882.048 1289.52 884.361 1294.94 888.987C1300.43 893.613 1303.18 899.853 1303.18 907.708C1303.18 915.825 1300.43 922.11 1294.94 926.561C1289.52 930.925 1282.19 933.107 1272.94 933.107L1271.63 933.892H1251.6V968.456H1237.72V882.048H1272.94ZM1271.89 922.241C1277.57 922.241 1281.76 921.106 1284.46 918.837C1287.26 916.48 1288.65 912.902 1288.65 908.101C1288.65 903.388 1287.26 899.853 1284.46 897.496C1281.76 895.14 1277.57 893.962 1271.89 893.962H1251.6V922.241H1271.89ZM1280.14 925.121L1308.29 968.456H1292.19L1268.1 930.619L1280.14 925.121Z" fill="#03274B"/>
</svg>
