<svg width="2000" height="2000" viewBox="0 0 2000 2000" fill="none" xmlns="http://www.w3.org/2000/svg">
<rect width="2000" height="2000" fill="#1C1917"/>
<path fill-rule="evenodd" clip-rule="evenodd" d="M1600.86 1070.05C1603.48 1047.2 1604.82 1023.97 1604.82 1000.41C1604.82 975.476 1603.31 950.892 1600.38 926.746H1168.1L1472.23 622.617C1442.26 585.234 1407.93 551.489 1370.03 522.151L1072.07 820.112V400.203C1048.64 397.436 1024.81 396.009 1000.65 396L1000.18 396C976.012 396.009 952.18 397.436 928.759 400.203V825.413L627.817 524.471C590.101 554.039 555.987 587.994 526.244 625.566L827.425 926.746H400.442C397.565 950.426 396.057 974.528 396 998.97L396 1001.86C396.054 1024.92 397.399 1047.67 399.967 1070.05H822.125L522.15 1370.03C529.376 1379.37 536.87 1388.49 544.619 1397.38L603.448 1456.2C609.725 1461.68 616.115 1467.02 622.616 1472.23L928.759 1166.09V1600.62C952.079 1603.38 975.806 1604.8 999.862 1604.83H1000.96C1025.02 1604.8 1048.75 1603.38 1072.07 1600.62V1171.39L1374.48 1473.8L1475.81 1372.47L1173.4 1070.05H1600.86ZM1048.75 419.313V843.425L1048.75 843.425V419.313L1048.75 419.313Z" fill="white"/>
</svg>
