<svg width="2000" height="2000" viewBox="0 0 2000 2000" fill="none" xmlns="http://www.w3.org/2000/svg">
<rect width="2000" height="2000" fill="#35465C"/>
<path d="M863.896 1192.94H844.568V1028.99H940.432V1046.42H863.896V1103.79H934.248V1121.34H863.896V1192.94Z" fill="white"/>
<path d="M1067.61 1175.51V1192.94H971.745V1028.99H991.072V1175.51H1067.61Z" fill="white"/>
<path d="M1113.39 1192.94H1094.06V1028.99H1113.39V1192.94Z" fill="white"/>
<path d="M1276.02 1078.64H1257.13C1255.66 1066.65 1251.06 1057.71 1243.33 1051.83C1235.67 1045.94 1226.5 1043 1215.83 1043C1202.5 1043 1191.57 1047.64 1183.03 1056.9C1174.56 1066.17 1170.33 1080.22 1170.33 1099.05V1122C1170.33 1140.02 1174.19 1154.03 1181.92 1164.03C1189.65 1173.96 1200.81 1178.93 1215.39 1178.93C1227.61 1178.93 1237.73 1175.51 1245.76 1168.67C1253.86 1161.75 1257.91 1152.85 1257.91 1141.97V1125.42H1213.95V1107.99H1276.46V1141.97C1276.46 1146.38 1275.83 1150.94 1274.58 1155.65C1273.4 1160.28 1271.31 1165.1 1268.29 1170.1C1265.34 1175.1 1261.59 1179.52 1257.02 1183.34C1252.53 1187.16 1246.71 1190.29 1239.57 1192.72C1232.43 1195.15 1224.44 1196.36 1215.61 1196.36C1194.62 1196.36 1178.65 1189.81 1167.67 1176.72C1156.7 1163.63 1151.22 1145.39 1151.22 1122V1099.05C1151.22 1075.88 1157.11 1057.86 1168.89 1044.99C1180.67 1032.04 1196.46 1025.57 1216.27 1025.57C1234.16 1025.57 1248.33 1030.61 1258.79 1040.69C1269.24 1050.76 1274.99 1063.41 1276.02 1078.64Z" fill="white"/>
<path d="M1437.43 1192.94H1418.33V1116.48H1333.51V1192.94H1314.18V1028.99H1333.51V1099.27H1418.33V1028.99H1437.43V1192.94Z" fill="white"/>
<path d="M1533.57 1192.94H1514.47V1046.2H1464.11V1028.99H1583.83V1046.2H1533.57V1192.94Z" fill="white"/>
<path d="M1597.91 1149.03H1617.24C1618.12 1157.78 1622.17 1164.95 1629.39 1170.54C1636.6 1176.13 1646.39 1178.93 1658.76 1178.93C1670.4 1178.93 1679.75 1176.24 1686.82 1170.87C1693.88 1165.5 1697.42 1158.22 1697.42 1149.03C1697.42 1142.19 1695.21 1136.63 1690.79 1132.37C1686.45 1128.03 1679.6 1124.65 1670.25 1122.22L1640.87 1114.38C1629.83 1111.52 1620.73 1106.62 1613.59 1099.71C1606.52 1092.8 1602.99 1083.53 1602.99 1071.91C1602.99 1062.13 1605.68 1053.59 1611.05 1046.31C1616.5 1039.03 1623.38 1033.7 1631.7 1030.31C1640.1 1026.86 1649.19 1025.13 1658.98 1025.13C1666.05 1025.13 1672.75 1026.05 1679.08 1027.89C1685.49 1029.73 1691.42 1032.45 1696.87 1036.05C1702.31 1039.58 1706.66 1044.44 1709.9 1050.61C1713.21 1056.72 1715.02 1063.67 1715.31 1071.47H1695.98C1695.1 1062.86 1691.45 1055.91 1685.05 1050.61C1678.72 1045.25 1669.88 1042.56 1658.54 1042.56C1647.87 1042.56 1639.18 1045.02 1632.48 1049.95C1625.78 1054.81 1622.43 1061.68 1622.43 1070.58C1622.43 1083.24 1630.2 1091.58 1645.73 1095.63L1674.45 1103.35C1688.21 1107.18 1698.74 1112.51 1706.03 1119.35C1713.32 1126.19 1716.97 1135.64 1716.97 1147.7C1716.97 1163.3 1711.26 1175.32 1699.85 1183.78C1688.44 1192.17 1673.89 1196.36 1656.22 1196.36C1646.14 1196.36 1637.19 1194.92 1629.39 1192.06C1621.58 1189.11 1615.51 1185.29 1611.16 1180.58C1606.89 1175.8 1603.65 1170.76 1601.44 1165.47C1599.23 1160.17 1598.06 1154.69 1597.91 1149.03Z" fill="white"/>
<path d="M1227.15 927.853H1212.22L1214.29 889.074L1181.4 910.206L1173.88 897.243L1208.85 879.379L1173.88 861.514L1181.4 848.551L1214.29 869.902L1212.22 830.904H1227.15L1225.4 869.902L1258.08 848.551L1265.49 861.514L1230.85 879.379L1265.49 897.243L1258.08 910.206L1225.4 889.074L1227.15 927.853Z" fill="white"/>
<path d="M1338.22 867.515V891.262C1338.22 909.563 1342.18 923.252 1350.09 932.329C1358.01 941.407 1368.94 945.946 1382.88 945.946C1395.37 945.946 1405.1 942.678 1412.07 936.142C1419.05 929.533 1422.53 921.473 1422.53 911.959H1441.16C1441.16 917.696 1439.96 923.47 1437.56 929.279C1435.24 935.089 1431.79 940.608 1427.21 945.837C1422.71 951.065 1416.54 955.277 1408.7 958.473C1400.85 961.596 1391.92 963.157 1381.9 963.157C1362.58 963.157 1347.33 957.02 1336.15 944.747C1324.96 932.402 1319.37 914.682 1319.37 891.589V867.079C1319.37 844.204 1325.04 826.412 1336.37 813.703C1347.7 800.922 1362.95 794.531 1382.12 794.531C1391.7 794.531 1400.35 796.129 1408.04 799.324C1415.74 802.447 1421.91 806.659 1426.56 811.96C1431.28 817.262 1434.88 823.071 1437.35 829.389C1439.89 835.635 1441.16 842.062 1441.16 848.67H1422.53C1422.53 839.012 1418.9 830.442 1411.64 822.962C1404.38 815.482 1394.54 811.742 1382.12 811.742C1368.83 811.742 1358.19 816.535 1350.2 826.121C1342.21 835.707 1338.22 849.505 1338.22 867.515Z" fill="white"/>
<path d="M1480.21 959.78H1460.71L1518.99 797.908H1537.4L1595.46 959.78H1574.98L1558.21 909.889H1496.99L1480.21 959.78ZM1528.03 821.219H1527.38L1502.43 894.53H1552.98L1528.03 821.219Z" fill="white"/>
<path d="M1717.09 942.569V959.78H1622.53V797.908H1641.6V942.569H1717.09Z" fill="white"/>
<path d="M844.852 917.889H863.915C864.786 926.531 868.78 933.612 875.897 939.131C883.014 944.65 892.672 947.41 904.873 947.41C916.347 947.41 925.57 944.759 932.541 939.458C939.513 934.156 942.999 926.967 942.999 917.889C942.999 911.136 940.82 905.653 936.463 901.441C932.178 897.156 925.424 893.816 916.202 891.419L887.226 883.685C876.333 880.853 867.364 876.023 860.32 869.197C853.348 862.371 849.862 853.221 849.862 841.746C849.862 832.088 852.513 823.664 857.814 816.474C863.188 809.285 869.978 804.02 878.185 800.679C886.463 797.266 895.432 795.56 905.091 795.56C912.062 795.56 918.671 796.467 924.916 798.283C931.234 800.098 937.08 802.785 942.454 806.344C947.828 809.83 952.113 814.623 955.308 820.723C958.576 826.75 960.355 833.613 960.645 841.311H941.583C940.711 832.814 937.116 825.951 930.798 820.723C924.553 815.421 915.838 812.771 904.655 812.771C894.125 812.771 885.556 815.204 878.947 820.069C872.339 824.862 869.034 831.652 869.034 840.439C869.034 852.93 876.696 861.172 892.019 865.167L920.341 872.792C933.921 876.568 944.306 881.833 951.495 888.587C958.685 895.341 962.279 904.672 962.279 916.582C962.279 931.978 956.651 943.851 945.395 952.203C934.139 960.481 919.796 964.621 902.367 964.621C892.418 964.621 883.595 963.205 875.897 960.373C868.199 957.468 862.208 953.691 857.923 949.044C853.711 944.323 850.516 939.349 848.337 934.12C846.159 928.891 844.997 923.481 844.852 917.889Z" fill="white"/>
<path d="M1009.83 868.979V893.271C1009.83 902.276 1010.99 910.3 1013.32 917.345C1015.64 924.389 1018.84 930.09 1022.9 934.447C1027.04 938.732 1031.76 941.963 1037.06 944.142C1042.44 946.32 1048.39 947.41 1054.93 947.41C1061.39 947.41 1067.35 946.32 1072.79 944.142C1078.24 941.963 1083.03 938.732 1087.17 934.447C1091.38 930.09 1094.61 924.389 1096.87 917.345C1099.12 910.3 1100.24 902.276 1100.24 893.271V868.979C1100.24 851.115 1096.03 837.353 1087.61 827.694C1079.26 818.036 1068.36 813.206 1054.93 813.206C1041.64 813.206 1030.78 817.999 1022.36 827.585C1014.01 837.171 1009.83 850.969 1009.83 868.979ZM990.985 893.271V868.979C990.985 846.322 996.795 828.493 1008.41 815.494C1020.03 802.495 1035.57 795.995 1055.04 795.995C1074.57 795.995 1090.11 802.459 1101.66 815.385C1113.28 828.312 1119.09 846.176 1119.09 868.979V893.271C1119.09 915.929 1113.24 933.503 1101.55 945.994C1089.93 958.412 1074.32 964.621 1054.71 964.621C1035.03 964.621 1019.49 958.412 1008.09 945.994C996.686 933.503 990.985 915.929 990.985 893.271Z" fill="white"/>
<rect x="284.768" y="774.834" width="449.102" height="449.102" fill="white"/>
<path d="M371.436 1011.09C372.664 1016.18 373.481 1020.72 375.261 1025.4C378.711 1034.16 383.99 1035.71 391.045 1029.75C401.956 1020.91 413.224 1012.32 423.421 1002.99C436.318 991.29 451.08 983.009 466.144 974.673C484.872 964.116 502.116 952.262 519.197 939.501C519.748 939.089 519.997 938.732 520.548 938.32C532.088 931.243 543.326 924.221 555.418 916.733C555.52 920.777 553.068 922.781 551.276 924.979C540.77 937.807 530.21 950.333 519.704 963.162C507.708 978.134 496.07 993.354 484.129 1008.63C474.725 1020.63 464.607 1032.14 455.203 1044.15C445.303 1056.87 436.172 1070.39 426.38 1083.71C429.915 1091.2 429.842 1101.22 442.356 1103.03C482.515 1048.3 523.225 993.157 564.237 937.961C564.085 945.801 561.542 952.51 559.053 959.521C550.671 984.156 541.629 1008.6 533.659 1033.78C525.689 1058.97 519.039 1084.54 511.729 1109.92C509.016 1119.16 509.881 1127.45 515.093 1135.57C516.437 1137.83 518.689 1139.92 520.723 1140.81C525.863 1143.32 529.278 1141.46 531.131 1136.12C532.985 1130.79 534.123 1124.96 535.674 1119.68C542.487 1095.01 548.998 1070.4 556.472 1045.93C565.968 1013.59 576.07 981.149 586.172 948.704C587.722 943.424 589.878 938.036 593.602 932.678C594.232 934.44 595.164 936.147 595.134 937.715C595.35 954.553 596.172 971.282 595.123 988.035C593.874 1008.89 594.744 1029.36 595.971 1050.08C597.253 1071.1 597.572 1091.98 598.248 1113.11C598.405 1117.46 599.222 1122 599.736 1126.59C600.662 1131.74 604.7 1135.08 609.072 1136.79C616.246 1140.19 621.314 1137.09 621.66 1128.59C622.042 1115.08 622.122 1101.63 621.9 1088.23C621.193 1068.67 619.881 1049.21 618.871 1029.7C618.636 1023.18 619.309 1016.5 619.073 1009.98C618.772 994.406 619.076 978.725 617.261 963.425C614.714 942.319 613.735 921.243 614.984 900.391C615.839 884.298 612.316 869.93 598.882 859.533C576.008 866.149 553.436 872.71 530.506 879.023C525.717 880.197 520.462 880.517 515.455 880.481C506.706 880.492 498.229 882.017 489.971 884.753C479.95 888.118 469.712 890.273 459.582 893.033C453.031 894.836 446.534 896.943 439.68 898.801C434.34 900.387 428.285 901.476 422.588 902.814C412.955 904.859 403.268 906.602 393.744 909.253C386.036 911.577 384.625 915.894 388.711 922.972C389.698 924.983 391.593 926.829 392.882 928.785C395.461 932.697 399.118 933.914 403.659 933.097C423.336 929.557 442.796 924.806 461.245 916.173C466.725 913.625 473.494 913.032 478.973 910.484C501.909 900.732 526.563 898.797 550.455 892.623C551.06 892.514 552.078 892.956 553.04 893.096C552.846 893.756 553.01 894.664 552.762 895.021C541.299 904.271 531.321 914.817 517.855 921.615C506.096 927.481 495.379 935.66 484.087 942.38C474.502 948.167 464.56 953.706 454.672 959.548C448.999 962.756 442.968 965.716 437.706 969.476C423.574 979.519 407.795 987.358 392.731 995.694C385.404 1000.14 378.901 1005.68 371.436 1011.09Z" fill="#DE5F5B"/>
</svg>
