<svg width="2000" height="2000" viewBox="0 0 2000 2000" fill="none" xmlns="http://www.w3.org/2000/svg">
<rect width="2000" height="2000" fill="#222222"/>
<path d="M1659.04 993.851V1098.8H1743.24V1120.53H1633V993.851H1659.04Z" fill="white"/>
<path d="M1519.45 1067.67V1098.8H1617.15V1120.53H1493.41V993.851H1616.96V1015.59H1519.45V1047.11H1599.34V1067.67H1519.45Z" fill="white"/>
<path d="M1456.23 1094.69L1448.01 1098.02V993.851H1474.05V1120.53H1448.01L1345.61 1020.48L1353.83 1017.15V1120.53H1327.79V993.851H1353.83L1456.23 1094.69Z" fill="white"/>
<path d="M1290.64 1094.69L1282.42 1098.02V993.851H1308.46V1120.53H1282.42L1180.01 1020.48L1188.24 1017.15V1120.53H1162.19V993.851H1188.24L1290.64 1094.69Z" fill="white"/>
<path d="M1116.89 1064.54V993.851H1142.93V1067.28C1142.93 1075.63 1141.69 1082.94 1139.21 1089.21C1136.86 1095.47 1133.47 1100.76 1129.03 1105.07C1124.59 1109.37 1119.37 1112.9 1113.37 1115.64C1107.49 1118.25 1101.03 1120.14 1093.98 1121.32C1087.07 1122.49 1079.76 1123.08 1072.05 1123.08C1064.09 1123.08 1056.52 1122.49 1049.34 1121.32C1042.16 1120.14 1035.57 1118.25 1029.56 1115.64C1023.69 1112.9 1018.6 1109.37 1014.29 1105.07C1009.98 1100.76 1006.59 1095.47 1004.11 1089.21C1001.76 1082.94 1000.59 1075.63 1000.59 1067.28V993.851H1026.63V1064.54C1026.63 1074.46 1028.59 1082.03 1032.5 1087.25C1036.42 1092.34 1041.77 1095.86 1048.56 1097.82C1055.48 1099.65 1063.31 1100.56 1072.05 1100.56C1080.54 1100.56 1088.11 1099.65 1094.77 1097.82C1101.55 1095.86 1106.91 1092.34 1110.82 1087.25C1114.87 1082.03 1116.89 1074.46 1116.89 1064.54Z" fill="white"/>
<path d="M984.436 993.851V1015.59H886.926V1049.65H966.814V1070.02H886.926V1120.53H860.885V993.851H984.436Z" fill="white"/>
<path d="M1439.46 951.926V825.242H1525.42C1535.21 825.242 1543.69 826.613 1550.87 829.354C1558.18 831.965 1563.86 836.142 1567.91 841.885C1571.95 847.498 1573.97 854.743 1573.97 863.619C1573.97 869.624 1572.93 874.715 1570.84 878.892C1568.75 883.069 1565.82 886.463 1562.03 889.074C1558.38 891.684 1554.13 893.708 1549.3 895.143C1544.47 896.449 1539.32 897.297 1533.84 897.689L1531.09 896.122C1540.23 896.253 1547.74 897.036 1553.61 898.472C1559.49 899.777 1563.86 902.258 1566.73 905.913C1569.73 909.437 1571.23 914.724 1571.23 921.773V951.926H1545.19V923.535C1545.19 918.705 1544.34 914.985 1542.65 912.374C1540.95 909.633 1537.88 907.74 1533.44 906.696C1529.14 905.652 1522.87 905.129 1514.65 905.129H1465.5V951.926H1439.46ZM1465.5 884.766H1525.42C1532.73 884.766 1538.27 883.004 1542.06 879.479C1545.98 875.955 1547.93 871.19 1547.93 865.186C1547.93 859.442 1545.98 855.069 1542.06 852.067C1538.27 849.065 1532.73 847.564 1525.42 847.564H1465.5V884.766Z" fill="white"/>
<path d="M1310.19 924.318V902.584H1394V924.318H1310.19ZM1278.67 951.926L1338.19 825.242H1366.39L1426.5 951.926H1398.11L1346.02 837.774H1358.56L1306.86 951.926H1278.67Z" fill="white"/>
<path d="M1182.03 825.242V930.192H1266.23V951.926H1155.99V825.242H1182.03Z" fill="white"/>
<path d="M1061.35 954.47C1044.51 954.47 1030.09 951.859 1018.08 946.638C1006.2 941.286 997.06 933.715 990.664 923.925C984.398 914.135 981.266 902.387 981.266 888.681C981.266 874.844 984.398 863.031 990.664 853.24C997.06 843.45 1006.2 835.945 1018.08 830.723C1030.09 825.371 1044.51 822.695 1061.35 822.695C1078.32 822.695 1092.74 825.371 1104.62 830.723C1116.5 835.945 1125.57 843.45 1131.84 853.24C1138.23 863.031 1141.43 874.844 1141.43 888.681C1141.43 902.387 1138.23 914.135 1131.84 923.925C1125.57 933.715 1116.5 941.286 1104.62 946.638C1092.74 951.859 1078.32 954.47 1061.35 954.47ZM1061.35 931.953C1071.79 931.953 1080.93 930.386 1088.76 927.254C1096.72 924.121 1102.92 919.356 1107.36 912.96C1111.93 906.564 1114.22 898.471 1114.22 888.681C1114.22 878.89 1111.93 870.797 1107.36 864.401C1102.92 858.005 1096.72 853.24 1088.76 850.108C1080.93 846.844 1071.79 845.213 1061.35 845.213C1051.04 845.213 1041.83 846.844 1033.74 850.108C1025.65 853.24 1019.32 858.005 1014.75 864.401C1010.18 870.797 1007.89 878.89 1007.89 888.681C1007.89 898.471 1010.18 906.564 1014.75 912.96C1019.32 919.356 1025.65 924.121 1033.74 927.254C1041.83 930.386 1051.04 931.953 1061.35 931.953Z" fill="white"/>
<path d="M852.477 909.24H878.911C879.433 913.678 881.456 917.725 884.98 921.379C888.635 924.904 893.4 927.71 899.274 929.799C905.148 931.757 911.74 932.736 919.05 932.736C925.707 932.736 931.19 932.018 935.497 930.582C939.805 929.146 943.003 927.123 945.092 924.512C947.18 921.902 948.225 918.769 948.225 915.114C948.225 911.589 946.919 908.913 944.308 907.086C941.698 905.128 937.586 903.561 931.973 902.387C926.36 901.081 918.985 899.776 909.847 898.471C902.668 897.426 895.88 895.99 889.484 894.163C883.088 892.205 877.409 889.725 872.449 886.723C867.619 883.72 863.769 880.065 860.897 875.758C858.156 871.319 856.785 866.098 856.785 860.093C856.785 852.653 858.874 846.126 863.051 840.513C867.358 834.9 873.689 830.527 882.043 827.395C890.398 824.262 900.645 822.695 912.784 822.695C931.059 822.695 945.092 826.611 954.882 834.443C964.802 842.145 969.632 852.784 969.371 866.359H943.917C943.395 858.658 940.131 853.11 934.127 849.716C928.253 846.322 920.812 844.625 911.805 844.625C903.451 844.625 896.533 845.865 891.05 848.345C885.698 850.826 883.022 855.068 883.022 861.072C883.022 863.422 883.675 865.511 884.98 867.338C886.286 869.035 888.505 870.536 891.638 871.842C894.771 873.147 899.013 874.387 904.365 875.562C909.717 876.737 916.374 877.911 924.337 879.086C931.777 880.131 938.5 881.566 944.504 883.394C950.639 885.091 955.861 887.375 960.168 890.247C964.607 892.988 968.001 896.513 970.35 900.82C972.7 905.128 973.875 910.415 973.875 916.68C973.875 924.382 971.851 931.104 967.805 936.848C963.889 942.461 957.754 946.834 949.399 949.967C941.176 953.099 930.472 954.666 917.288 954.666C907.889 954.666 899.6 953.687 892.421 951.729C885.242 949.64 879.041 946.899 873.82 943.505C868.598 940.111 864.356 936.391 861.093 932.344C857.829 928.298 855.48 924.251 854.044 920.205C852.738 916.158 852.216 912.503 852.477 909.24Z" fill="white"/>
<path fill-rule="evenodd" clip-rule="evenodd" d="M482.558 659.528C356.396 659.528 254.122 761.802 254.122 887.964C254.122 1014.13 356.396 1116.4 482.558 1116.4C608.719 1116.4 710.993 1014.13 710.993 887.964C710.993 761.802 608.719 659.528 482.558 659.528ZM482.558 648.651C350.388 648.651 243.244 755.795 243.244 887.964C243.244 1020.13 350.389 1127.28 482.558 1127.28C614.727 1127.28 721.871 1020.13 721.871 887.964C721.871 755.795 614.727 648.651 482.558 648.651Z" fill="#823000"/>
<path fill-rule="evenodd" clip-rule="evenodd" d="M482.558 703.038C356.396 703.038 254.122 805.312 254.122 931.474C254.122 1057.64 356.396 1159.91 482.558 1159.91C608.719 1159.91 710.993 1057.64 710.993 931.474C710.993 805.312 608.719 703.038 482.558 703.038ZM482.558 692.16C350.388 692.16 243.244 799.305 243.244 931.474C243.244 1063.64 350.389 1170.79 482.558 1170.79C614.727 1170.79 721.871 1063.64 721.871 931.474C721.871 799.305 614.727 692.16 482.558 692.16Z" fill="#C24A00"/>
<path fill-rule="evenodd" clip-rule="evenodd" d="M482.558 746.548C356.396 746.548 254.122 848.822 254.122 974.983C254.122 1101.14 356.396 1203.42 482.558 1203.42C608.719 1203.42 710.993 1101.14 710.993 974.983C710.993 848.822 608.719 746.548 482.558 746.548ZM482.558 735.67C350.388 735.67 243.244 842.814 243.244 974.983C243.244 1107.15 350.389 1214.3 482.558 1214.3C614.727 1214.3 721.871 1107.15 721.871 974.983C721.871 842.814 614.727 735.67 482.558 735.67Z" fill="#FF9800"/>
<path fill-rule="evenodd" clip-rule="evenodd" d="M482.558 790.064C356.396 790.064 254.122 892.338 254.122 1018.5C254.122 1144.66 356.396 1246.94 482.558 1246.94C608.719 1246.94 710.993 1144.66 710.993 1018.5C710.993 892.338 608.719 790.064 482.558 790.064ZM482.558 779.186C350.388 779.186 243.244 886.331 243.244 1018.5C243.244 1150.67 350.389 1257.81 482.558 1257.81C614.727 1257.81 721.871 1150.67 721.871 1018.5C721.871 886.331 614.727 779.186 482.558 779.186Z" fill="#FFD21E"/>
<path fill-rule="evenodd" clip-rule="evenodd" d="M482.558 833.574C356.396 833.574 254.122 935.848 254.122 1062.01C254.122 1188.17 356.396 1290.45 482.558 1290.45C608.719 1290.45 710.993 1188.17 710.993 1062.01C710.993 935.848 608.719 833.574 482.558 833.574ZM482.558 822.696C350.388 822.696 243.244 929.841 243.244 1062.01C243.244 1194.18 350.389 1301.32 482.558 1301.32C614.727 1301.32 721.871 1194.18 721.871 1062.01C721.871 929.841 614.727 822.696 482.558 822.696Z" fill="#FFE57A"/>
<path fill-rule="evenodd" clip-rule="evenodd" d="M482.558 877.084C356.396 877.084 254.122 979.358 254.122 1105.52C254.122 1231.68 356.396 1333.96 482.558 1333.96C608.719 1333.96 710.993 1231.68 710.993 1105.52C710.993 979.358 608.719 877.084 482.558 877.084ZM482.558 866.206C350.388 866.206 243.244 973.35 243.244 1105.52C243.244 1237.69 350.389 1344.83 482.558 1344.83C614.727 1344.83 721.871 1237.69 721.871 1105.52C721.871 973.35 614.727 866.206 482.558 866.206Z" fill="#FFF3C2"/>
<path d="M1659.04 993.851V1098.8H1743.24V1120.53H1633V993.851H1659.04Z" fill="white"/>
<path d="M1519.45 1067.67V1098.8H1617.15V1120.53H1493.41V993.851H1616.96V1015.58H1519.45V1047.11H1599.34V1067.67H1519.45Z" fill="white"/>
<path d="M1456.23 1094.69L1448.01 1098.02V993.851H1474.05V1120.53H1448.01L1345.61 1020.48L1353.83 1017.15V1120.53H1327.79V993.851H1353.83L1456.23 1094.69Z" fill="white"/>
<path d="M1290.64 1094.69L1282.42 1098.02V993.851H1308.46V1120.53H1282.42L1180.01 1020.48L1188.24 1017.15V1120.53H1162.19V993.851H1188.24L1290.64 1094.69Z" fill="white"/>
<path d="M1116.89 1064.54V993.851H1142.93V1067.28C1142.93 1075.63 1141.69 1082.94 1139.21 1089.21C1136.86 1095.47 1133.47 1100.76 1129.03 1105.07C1124.59 1109.37 1119.37 1112.9 1113.37 1115.64C1107.49 1118.25 1101.03 1120.14 1093.98 1121.32C1087.07 1122.49 1079.76 1123.08 1072.05 1123.08C1064.09 1123.08 1056.52 1122.49 1049.34 1121.32C1042.16 1120.14 1035.57 1118.25 1029.56 1115.64C1023.69 1112.9 1018.6 1109.37 1014.29 1105.07C1009.98 1100.76 1006.59 1095.47 1004.11 1089.21C1001.76 1082.94 1000.59 1075.63 1000.59 1067.28V993.851H1026.63V1064.54C1026.63 1074.46 1028.59 1082.03 1032.5 1087.25C1036.42 1092.34 1041.77 1095.86 1048.56 1097.82C1055.48 1099.65 1063.31 1100.56 1072.05 1100.56C1080.54 1100.56 1088.11 1099.65 1094.77 1097.82C1101.55 1095.86 1106.91 1092.34 1110.82 1087.25C1114.87 1082.03 1116.89 1074.46 1116.89 1064.54Z" fill="white"/>
<path d="M984.436 993.851V1015.58H886.926V1049.65H966.814V1070.02H886.926V1120.53H860.885V993.851H984.436Z" fill="white"/>
<path d="M1439.46 951.926V825.242H1525.42C1535.21 825.242 1543.69 826.612 1550.87 829.354C1558.18 831.964 1563.86 836.141 1567.91 841.885C1571.95 847.498 1573.97 854.743 1573.97 863.619C1573.97 869.623 1572.93 874.714 1570.84 878.891C1568.75 883.069 1565.82 886.462 1562.03 889.073C1558.38 891.684 1554.13 893.707 1549.3 895.143C1544.47 896.448 1539.32 897.297 1533.84 897.688L1531.09 896.122C1540.23 896.253 1547.74 897.036 1553.61 898.472C1559.49 899.777 1563.86 902.257 1566.73 905.912C1569.73 909.437 1571.23 914.723 1571.23 921.772V951.926H1545.19V923.534C1545.19 918.704 1544.34 914.984 1542.65 912.374C1540.95 909.632 1537.88 907.74 1533.44 906.695C1529.14 905.651 1522.87 905.129 1514.65 905.129H1465.5V951.926H1439.46ZM1465.5 884.765H1525.42C1532.73 884.765 1538.27 883.003 1542.06 879.479C1545.98 875.954 1547.93 871.19 1547.93 865.185C1547.93 859.442 1545.98 855.069 1542.06 852.067C1538.27 849.064 1532.73 847.563 1525.42 847.563H1465.5V884.765Z" fill="white"/>
<path d="M1310.19 924.317V902.583H1394V924.317H1310.19ZM1278.67 951.926L1338.19 825.242H1366.39L1426.5 951.926H1398.11L1346.02 837.773H1358.56L1306.86 951.926H1278.67Z" fill="white"/>
<path d="M1182.03 825.242V930.192H1266.23V951.926H1155.99V825.242H1182.03Z" fill="white"/>
<path d="M1061.35 954.47C1044.51 954.47 1030.09 951.859 1018.08 946.637C1006.2 941.286 997.06 933.715 990.664 923.924C984.398 914.134 981.266 902.386 981.266 888.68C981.266 874.843 984.398 863.03 990.664 853.24C997.06 843.45 1006.2 835.944 1018.08 830.723C1030.09 825.371 1044.51 822.695 1061.35 822.695C1078.32 822.695 1092.74 825.371 1104.62 830.723C1116.5 835.944 1125.57 843.45 1131.84 853.24C1138.23 863.03 1141.43 874.843 1141.43 888.68C1141.43 902.386 1138.23 914.134 1131.84 923.924C1125.57 933.715 1116.5 941.286 1104.62 946.637C1092.74 951.859 1078.32 954.47 1061.35 954.47ZM1061.35 931.952C1071.79 931.952 1080.93 930.386 1088.76 927.253C1096.72 924.12 1102.92 919.356 1107.36 912.959C1111.93 906.563 1114.22 898.47 1114.22 888.68C1114.22 878.89 1111.93 870.797 1107.36 864.401C1102.92 858.004 1096.72 853.24 1088.76 850.107C1080.93 846.844 1071.79 845.212 1061.35 845.212C1051.04 845.212 1041.83 846.844 1033.74 850.107C1025.65 853.24 1019.32 858.004 1014.75 864.401C1010.18 870.797 1007.89 878.89 1007.89 888.68C1007.89 898.47 1010.18 906.563 1014.75 912.959C1019.32 919.356 1025.65 924.12 1033.74 927.253C1041.83 930.386 1051.04 931.952 1061.35 931.952Z" fill="white"/>
<path d="M852.477 909.239H878.911C879.433 913.677 881.456 917.724 884.98 921.379C888.635 924.903 893.4 927.71 899.274 929.798C905.148 931.756 911.74 932.735 919.05 932.735C925.707 932.735 931.19 932.018 935.497 930.582C939.805 929.146 943.003 927.122 945.092 924.512C947.18 921.901 948.225 918.768 948.225 915.113C948.225 911.589 946.919 908.913 944.308 907.085C941.698 905.127 937.586 903.561 931.973 902.386C926.36 901.081 918.985 899.776 909.847 898.47C902.668 897.426 895.88 895.99 889.484 894.163C883.088 892.205 877.409 889.724 872.449 886.722C867.619 883.72 863.769 880.065 860.897 875.757C858.156 871.319 856.785 866.098 856.785 860.093C856.785 852.653 858.874 846.126 863.051 840.513C867.358 834.9 873.689 830.527 882.043 827.394C890.398 824.261 900.645 822.695 912.784 822.695C931.059 822.695 945.092 826.611 954.882 834.443C964.802 842.144 969.632 852.783 969.371 866.359H943.917C943.395 858.657 940.131 853.109 934.127 849.715C928.253 846.322 920.812 844.625 911.805 844.625C903.451 844.625 896.533 845.865 891.05 848.345C885.698 850.825 883.022 855.067 883.022 861.072C883.022 863.422 883.675 865.51 884.98 867.338C886.286 869.035 888.505 870.536 891.638 871.841C894.771 873.146 899.013 874.387 904.365 875.561C909.717 876.736 916.374 877.911 924.337 879.086C931.777 880.13 938.5 881.566 944.504 883.393C950.639 885.09 955.861 887.375 960.168 890.246C964.607 892.988 968.001 896.512 970.35 900.82C972.7 905.127 973.875 910.414 973.875 916.68C973.875 924.381 971.851 931.104 967.805 936.847C963.889 942.46 957.754 946.833 949.399 949.966C941.176 953.099 930.472 954.665 917.288 954.665C907.889 954.665 899.6 953.686 892.421 951.728C885.242 949.64 879.041 946.898 873.82 943.505C868.598 940.111 864.356 936.39 861.093 932.344C857.829 928.297 855.48 924.251 854.044 920.204C852.738 916.158 852.216 912.503 852.477 909.239Z" fill="white"/>
</svg>
