<svg width="2000" height="2000" viewBox="0 0 2000 2000" fill="none" xmlns="http://www.w3.org/2000/svg">
<rect width="2000" height="2000" fill="#762030"/>
<path d="M1525.35 1127.24V868.982H1700.58C1720.53 868.982 1737.83 871.777 1752.47 877.365C1767.37 882.687 1778.94 891.202 1787.19 902.911C1795.44 914.353 1799.57 929.122 1799.57 947.217C1799.57 959.458 1797.44 969.836 1793.18 978.352C1788.92 986.867 1782.94 993.786 1775.22 999.108C1767.77 1004.43 1759.12 1008.55 1749.27 1011.48C1739.43 1014.14 1728.92 1015.87 1717.74 1016.67L1712.15 1013.48C1730.78 1013.74 1746.08 1015.34 1758.05 1018.27C1770.03 1020.93 1778.94 1025.98 1784.8 1033.44C1790.92 1040.62 1793.98 1051.4 1793.98 1065.77V1127.24H1740.89V1069.36C1740.89 1059.51 1739.16 1051.93 1735.7 1046.61C1732.24 1041.02 1725.99 1037.16 1716.94 1035.03C1708.16 1032.9 1695.39 1031.84 1678.62 1031.84H1578.43V1127.24H1525.35ZM1578.43 990.326H1700.58C1715.48 990.326 1726.79 986.734 1734.5 979.549C1742.49 972.364 1746.48 962.651 1746.48 950.411C1746.48 938.702 1742.49 929.787 1734.5 923.667C1726.79 917.547 1715.48 914.486 1700.58 914.486H1578.43V990.326Z" fill="#FBDFC0"/>
<path d="M1334.58 868.982C1363.59 868.982 1387.8 872.442 1407.23 879.361C1426.65 886.279 1442.09 895.726 1453.53 907.701C1465.24 919.409 1473.49 932.981 1478.28 948.415C1483.33 963.849 1485.86 980.081 1485.86 997.112C1485.86 1014.14 1483.07 1030.51 1477.48 1046.21C1472.16 1061.91 1463.51 1075.88 1451.53 1088.12C1439.83 1100.09 1424.26 1109.67 1404.83 1116.86C1385.67 1123.78 1362.26 1127.24 1334.58 1127.24H1186.89V868.982H1334.58ZM1239.98 1081.73H1333.38C1352.54 1081.73 1368.38 1079.47 1380.88 1074.95C1393.66 1070.16 1403.77 1063.77 1411.22 1055.79C1418.67 1047.81 1423.99 1038.76 1427.19 1028.65C1430.38 1018.53 1431.98 1008.02 1431.98 997.112C1431.98 986.202 1430.38 975.824 1427.19 965.978C1423.99 956.132 1418.67 947.35 1411.22 939.633C1403.77 931.916 1393.66 925.796 1380.88 921.272C1368.38 916.748 1352.54 914.486 1333.38 914.486H1239.98V1081.73Z" fill="#F2CFA9"/>
<path d="M1101.32 1074.55L1084.56 1081.33V868.982H1137.65V1127.24H1084.56L875.8 923.268L892.565 916.482V1127.24H839.477V868.982H892.565L1101.32 1074.55Z" fill="#F3C088"/>
<path d="M639.244 1132.43C604.916 1132.43 575.512 1127.1 551.03 1116.46C526.814 1105.55 508.187 1090.12 495.148 1070.16C482.375 1050.2 475.988 1026.25 475.988 998.31C475.988 970.103 482.375 946.02 495.148 926.063C508.187 906.105 526.814 890.804 551.03 880.159C575.512 869.249 604.916 863.794 639.244 863.794C673.837 863.794 703.242 869.249 727.458 880.159C751.673 890.804 770.168 906.105 782.941 926.063C795.98 946.02 802.499 970.103 802.499 998.31C802.499 1026.25 795.98 1050.2 782.941 1070.16C770.168 1090.12 751.673 1105.55 727.458 1116.46C703.242 1127.1 673.837 1132.43 639.244 1132.43ZM639.244 1086.52C660.532 1086.52 679.16 1083.33 695.126 1076.94C711.358 1070.56 723.998 1060.84 733.046 1047.81C742.36 1034.77 747.016 1018.27 747.016 998.31C747.016 978.352 742.36 961.854 733.046 948.815C723.998 935.775 711.358 926.063 695.126 919.676C679.16 913.023 660.532 909.697 639.244 909.697C618.221 909.697 599.461 913.023 582.963 919.676C566.464 926.063 553.558 935.775 544.244 948.815C534.931 961.854 530.274 978.352 530.274 998.31C530.274 1018.27 534.931 1034.77 544.244 1047.81C553.558 1060.84 566.464 1070.56 582.963 1076.94C599.461 1083.33 618.221 1086.52 639.244 1086.52Z" fill="#E9A254"/>
<path d="M200.084 1040.22H253.971C255.035 1049.27 259.16 1057.52 266.344 1064.97C273.795 1072.15 283.508 1077.88 295.483 1082.13C307.458 1086.12 320.896 1088.12 335.798 1088.12C349.369 1088.12 360.546 1086.66 369.327 1083.73C378.109 1080.8 384.628 1076.68 388.886 1071.36C393.143 1066.03 395.272 1059.65 395.272 1052.2C395.272 1045.01 392.611 1039.56 387.289 1035.83C381.967 1031.84 373.585 1028.65 362.142 1026.25C350.7 1023.59 335.665 1020.93 317.037 1018.27C302.402 1016.14 288.564 1013.21 275.525 1009.49C262.486 1005.49 250.91 1000.44 240.798 994.319C230.952 988.198 223.102 980.747 217.248 971.966C211.66 962.918 208.866 952.274 208.866 940.033C208.866 924.865 213.123 911.56 221.639 900.117C230.42 888.675 243.326 879.76 260.357 873.374C277.388 866.987 298.277 863.794 323.025 863.794C360.28 863.794 388.886 871.777 408.844 887.743C429.068 903.444 438.914 925.131 438.381 952.806H386.491C385.426 937.106 378.774 925.796 366.533 918.878C354.558 911.959 339.39 908.5 321.029 908.5C303.998 908.5 289.895 911.028 278.718 916.084C267.808 921.14 262.353 929.788 262.353 942.029C262.353 946.819 263.683 951.076 266.344 954.802C269.005 958.261 273.529 961.321 279.916 963.983C286.302 966.644 294.951 969.172 305.861 971.567C316.771 973.961 330.343 976.356 346.575 978.751C361.743 980.88 375.447 983.807 387.688 987.533C400.195 990.992 410.839 995.649 419.621 1001.5C428.669 1007.09 435.587 1014.28 440.377 1023.06C445.167 1031.84 447.562 1042.62 447.562 1055.39C447.562 1071.09 443.437 1084.79 435.188 1096.5C427.205 1107.95 414.698 1116.86 397.667 1123.25C380.903 1129.63 359.082 1132.83 332.205 1132.83C313.046 1132.83 296.148 1130.83 281.512 1126.84C266.877 1122.58 254.237 1116.99 243.592 1110.07C232.948 1103.16 224.3 1095.57 217.647 1087.32C210.995 1079.07 206.205 1070.82 203.277 1062.57C200.616 1054.33 199.552 1046.87 200.084 1040.22Z" fill="#EB993F"/>
</svg>
