<svg width="2000" height="2000" viewBox="0 0 2000 2000" fill="none" xmlns="http://www.w3.org/2000/svg">
<rect width="2000" height="2000" fill="#444444"/>
<path d="M946.297 1346.78C946.297 1372.95 925.204 1394.05 899.028 1394.05L888.862 1394.05L888.862 1368.63L899.028 1368.63C910.972 1368.63 920.883 1358.72 920.883 1346.78L920.883 1329.75C920.883 1316.79 912.751 1307.64 901.569 1307.64C866.498 1307.64 858.874 1391.51 810.589 1391.51C785.684 1391.51 768.402 1371.94 768.402 1344.24L768.402 1332.29C768.402 1306.12 789.496 1284.77 815.671 1284.77L823.295 1284.77L823.295 1310.18L815.671 1310.18C803.473 1310.18 793.816 1320.09 793.816 1332.29L793.816 1344.24C793.816 1357.96 800.169 1366.09 810.589 1366.09C837.527 1366.09 847.947 1282.23 901.569 1282.23C926.982 1282.23 946.297 1302.81 946.297 1329.75L946.297 1346.78Z" fill="white"/>
<path d="M946.297 1229.84L793.816 1229.84L793.816 1273.04L768.402 1273.04L768.402 1161.22L793.816 1161.22L793.816 1204.43L946.297 1204.43L946.297 1229.84Z" fill="white"/>
<path d="M946.297 1095.28C946.297 1120.7 925.458 1141.03 900.298 1141.03L768.402 1141.03L768.402 1115.61L900.298 1115.61C911.48 1115.61 920.629 1106.47 920.629 1095.28L920.629 1072.41C920.629 1061.23 911.48 1052.08 900.298 1052.08L768.402 1052.08L768.402 1026.67L900.298 1026.67C925.458 1026.67 946.297 1047.25 946.297 1072.41L946.297 1095.28Z" fill="white"/>
<path d="M946.297 995.825L768.402 995.825L768.402 929.75C768.402 904.591 788.733 884.006 814.147 884.006L900.298 884.006C925.458 884.006 946.297 904.591 946.297 929.75L946.297 995.825ZM920.629 970.412L920.629 929.75C920.629 918.568 911.48 909.42 900.298 909.42L814.147 909.42C802.965 909.42 793.816 918.314 793.816 929.75L793.816 970.412L920.629 970.412Z" fill="white"/>
<path d="M946.297 862.236L920.883 862.236L920.883 819.033L793.816 819.033L793.816 862.236L768.402 862.236L768.402 750.417L793.816 750.417L793.816 793.619L920.883 793.619L920.883 750.417L946.297 750.417L946.297 862.236Z" fill="white"/>
<path d="M946.297 680.807C946.297 706.983 925.458 728.585 900.298 728.585L814.147 728.585C788.733 728.585 768.402 706.983 768.402 680.807L768.402 659.46C768.402 633.03 788.733 611.683 814.147 611.683L900.298 611.683C925.458 611.683 946.297 633.03 946.297 659.46L946.297 680.807ZM900.298 703.425C911.48 703.425 920.629 693.006 920.629 680.807L920.629 659.46C920.629 647.262 911.48 636.842 900.298 636.842L814.147 636.842C802.711 636.842 793.816 646.753 793.816 659.46L793.816 680.807C793.816 693.514 802.965 703.425 814.147 703.425L900.298 703.425Z" fill="white"/>
<path d="M1052.78 619.994L1230.68 619.994L1230.68 645.408L1154.44 645.408L1154.44 657.606L1230.68 707.162L1230.68 736.896L1141.73 679.208L1052.78 736.896L1052.78 707.162L1129.02 657.606L1129.02 645.408L1052.78 645.408L1052.78 619.994Z" fill="white"/>
<path d="M1052.78 748.396L1111.23 748.396L1230.68 792.869L1230.68 818.283L1111.23 862.756L1052.78 862.756L1052.78 837.343L1093.95 837.343L1093.95 773.809L1052.78 773.809L1052.78 748.396ZM1119.36 778.638L1119.36 832.514L1190.52 805.83L1190.52 805.322L1119.36 778.638Z" fill="white"/>
<path d="M1052.78 880.155L1078.19 880.155L1078.19 923.358L1205.26 923.358L1205.26 880.155L1230.68 880.155L1230.68 991.974L1205.26 991.974L1205.26 948.771L1078.19 948.771L1078.19 991.974L1052.78 991.974L1052.78 880.155Z" fill="white"/>
<path d="M1078.19 1008.98L1205.26 1086.49L1205.26 1008.98L1230.68 1008.98L1230.68 1115.71L1205.26 1115.71L1078.19 1038.46L1078.19 1115.71L1052.78 1115.71L1052.78 1008.98L1078.19 1008.98Z" fill="white"/>
<path d="M1052.78 1140.42L1230.68 1140.42L1230.68 1242.08L1205.26 1242.08L1205.26 1165.84L1158.76 1165.84L1158.76 1232.17L1133.34 1232.17L1133.34 1165.84L1078.19 1165.84L1078.19 1242.08L1052.78 1242.08L1052.78 1140.42Z" fill="white"/>
<path d="M1052.78 1267.49L1230.68 1267.49L1230.68 1305.87L1089.89 1361.52L1230.68 1361.52L1230.68 1386.94L1052.78 1386.94L1052.78 1348.56L1193.57 1292.91L1052.78 1292.91L1052.78 1267.49Z" fill="white"/>
</svg>
