<svg width="2000" height="2000" viewBox="0 0 2000 2000" fill="none" xmlns="http://www.w3.org/2000/svg">
<rect width="2000" height="2000" fill="#FFB800"/>
<path d="M809.804 903.864C808.165 900.122 805.472 895.445 801.726 889.832C797.979 884.219 794.701 879.893 791.891 876.853C811.795 870.305 829.122 861.769 843.874 851.245C858.861 840.721 871.622 828.677 882.16 815.113C872.793 800.848 864.949 785.764 858.627 769.861C852.538 753.959 848.089 737.355 845.279 720.049C841.065 728 836.615 735.718 831.932 743.201C827.483 750.451 822.917 757.116 818.234 763.196C815.892 760.858 811.912 758.168 806.292 755.128C800.672 751.854 795.872 749.399 791.891 747.761C799.852 738.407 807.345 727.065 814.37 713.735C821.629 700.171 828.069 685.788 833.688 670.587C839.542 655.153 844.343 639.952 848.089 624.985C852.07 610.017 854.88 596.337 856.519 583.942L886.726 588.151C885.321 598.909 883.33 609.784 880.755 620.775C878.179 631.533 875.252 642.407 871.974 653.399H988.585V682.514H956.271C952.525 735.835 940.348 779.684 919.742 814.061C940.583 837.681 966.808 857.793 998.42 874.397C996.313 876.034 993.737 878.49 990.693 881.764C987.649 885.272 984.839 888.78 982.263 892.288C979.687 895.795 977.814 898.719 976.643 901.057C961.657 892.404 947.841 882.933 935.197 872.643C922.786 862.353 911.43 851.479 901.127 840.02C878.413 866.446 847.972 887.727 809.804 903.864ZM719.535 865.277C707.125 865.277 698.461 863.406 693.544 859.664C688.626 855.688 686.168 849.14 686.168 840.02V695.143H776.788V635.157H681.602V605.691H808.048V724.258H717.077V824.585C717.077 828.093 717.896 830.665 719.535 832.302C721.409 833.939 724.921 834.758 730.073 834.758H770.465C776.788 834.758 781.822 833.705 785.569 831.601C789.315 829.496 792.125 825.52 793.998 819.674C795.872 813.827 797.277 805.174 798.213 793.715C801.491 795.586 806.292 797.574 812.614 799.679C818.936 801.783 824.205 803.42 828.42 804.59C826.312 821.428 823.268 834.29 819.288 843.177C815.541 851.83 810.39 857.676 803.833 860.716C797.277 863.757 788.847 865.277 778.544 865.277H719.535ZM900.073 787.401C908.268 771.966 914.357 755.362 918.337 737.589C922.552 719.815 925.011 701.457 925.713 682.514H869.515C869.983 702.626 872.793 721.452 877.945 738.992C883.33 756.297 890.706 772.434 900.073 787.401Z" fill="#222222"/>
<path d="M1001.23 792.312V767.757H1081.31C1079.67 762.612 1077.57 756.999 1074.99 750.919C1072.41 744.604 1069.96 739.226 1067.61 734.782H1007.55V710.578H1144.18V689.881H1039.52V667.079H1144.18V646.734H1014.23V622.178H1104.14C1101.57 616.799 1098.41 610.836 1094.66 604.288C1090.91 597.506 1087.28 591.542 1083.77 586.397L1111.87 579.732C1116.32 586.047 1120.77 593.296 1125.22 601.481C1129.9 609.667 1133.41 616.566 1135.75 622.178H1187.39C1189.96 618.203 1192.66 613.642 1195.47 608.497C1198.51 603.119 1201.32 597.974 1203.9 593.062C1206.47 587.918 1208.46 583.708 1209.87 580.434L1240.07 588.853C1237.97 593.063 1235.04 598.207 1231.29 604.288C1227.55 610.368 1223.68 616.332 1219.7 622.178H1306.11V646.734H1176.15V667.079H1276.6V689.881H1176.15V710.578H1312.43V734.782H1254.12C1252.48 739.226 1250.38 744.604 1247.8 750.919C1245.22 756.999 1242.65 762.612 1240.07 767.757H1318.75V792.312H1001.23ZM1059.54 900.005V808.799H1261.15V900.005H1059.54ZM1091.5 875.45H1229.18V833.705H1091.5V875.45ZM1176.15 767.757H1208.81C1211.15 762.846 1213.61 757.35 1216.19 751.269C1218.76 744.955 1220.87 739.459 1222.51 734.782H1176.15V767.757ZM1112.57 767.757H1144.18V734.782H1099.58C1101.68 739.693 1103.91 745.189 1106.25 751.269C1108.83 757.35 1110.93 762.846 1112.57 767.757Z" fill="#222222"/>
<path d="M479.103 1389.83C479.585 1395.26 480.942 1399.42 483.173 1402.31C487.273 1407.56 494.387 1410.18 504.516 1410.18C510.545 1410.18 515.851 1408.89 520.433 1406.29C525.016 1403.64 527.307 1399.57 527.307 1394.08C527.307 1389.92 525.468 1386.76 521.79 1384.59C519.439 1383.26 514.796 1381.72 507.862 1379.98L494.93 1376.72C486.67 1374.67 480.58 1372.38 476.661 1369.85C469.667 1365.45 466.17 1359.36 466.17 1351.58C466.17 1342.41 469.456 1335 476.028 1329.33C482.66 1323.66 491.553 1320.83 502.707 1320.83C517.298 1320.83 527.819 1325.11 534.27 1333.67C538.31 1339.1 540.27 1344.95 540.149 1351.22H524.774C524.473 1347.54 523.177 1344.19 520.886 1341.18C517.147 1336.9 510.666 1334.76 501.441 1334.76C495.292 1334.76 490.619 1335.93 487.423 1338.28C484.288 1340.63 482.721 1343.74 482.721 1347.6C482.721 1351.82 484.801 1355.2 488.961 1357.73C491.373 1359.24 494.93 1360.56 499.633 1361.71L510.395 1364.33C522.091 1367.16 529.929 1369.91 533.909 1372.56C540.239 1376.72 543.405 1383.26 543.405 1392.18C543.405 1400.81 540.119 1408.25 533.547 1414.52C527.035 1420.79 517.087 1423.93 503.702 1423.93C489.292 1423.93 479.073 1420.67 473.044 1414.16C467.075 1407.59 463.879 1399.48 463.457 1389.83H479.103ZM565.291 1296.32H581.751V1323.36H597.216V1336.66H581.751V1399.87C581.751 1403.25 582.896 1405.51 585.187 1406.65C586.453 1407.32 588.564 1407.65 591.518 1407.65C592.302 1407.65 593.146 1407.65 594.05 1407.65C594.955 1407.59 596.01 1407.5 597.216 1407.38V1420.22C595.347 1420.76 593.387 1421.16 591.337 1421.4C589.347 1421.64 587.177 1421.76 584.826 1421.76C577.229 1421.76 572.074 1419.83 569.361 1415.97C566.647 1412.05 565.291 1406.99 565.291 1400.78V1336.66H552.177V1323.36H565.291V1296.32ZM629.864 1323.36V1387.66C629.864 1392.61 630.648 1396.65 632.215 1399.78C635.109 1405.57 640.505 1408.46 648.404 1408.46C659.739 1408.46 667.456 1403.4 671.556 1393.27C673.787 1387.84 674.902 1380.4 674.902 1370.93V1323.36H691.181V1420.22H675.807L675.987 1405.93C673.877 1409.61 671.255 1412.71 668.119 1415.25C661.909 1420.31 654.373 1422.84 645.51 1422.84C631.703 1422.84 622.297 1418.23 617.293 1409.01C614.58 1404.06 613.223 1397.46 613.223 1389.2V1323.36H629.864ZM726.995 1372.92C726.995 1383.29 729.195 1391.97 733.597 1398.97C737.998 1405.96 745.052 1409.46 754.759 1409.46C762.296 1409.46 768.476 1406.23 773.299 1399.78C778.183 1393.27 780.625 1383.95 780.625 1371.84C780.625 1359.6 778.123 1350.55 773.118 1344.7C768.114 1338.8 761.934 1335.84 754.578 1335.84C746.379 1335.84 739.716 1338.98 734.592 1345.25C729.527 1351.52 726.995 1360.74 726.995 1372.92ZM751.504 1321.64C758.919 1321.64 765.13 1323.21 770.134 1326.35C773.028 1328.15 776.314 1331.32 779.992 1335.84V1286.91H795.637V1420.22H780.986V1406.75C777.188 1412.71 772.696 1417.03 767.511 1419.68C762.326 1422.33 756.387 1423.66 749.695 1423.66C738.902 1423.66 729.557 1419.14 721.659 1410.09C713.761 1400.99 709.811 1388.9 709.811 1373.83C709.811 1359.72 713.399 1347.51 720.574 1337.2C727.809 1326.83 738.119 1321.64 751.504 1321.64ZM819.785 1323.81H836.335V1420.22H819.785V1323.81ZM819.785 1287.37H836.335V1305.82H819.785V1287.37ZM899.461 1409.73C910.253 1409.73 917.639 1405.66 921.618 1397.52C925.658 1389.32 927.678 1380.22 927.678 1370.21C927.678 1361.16 926.231 1353.81 923.336 1348.14C918.754 1339.22 910.856 1334.76 899.642 1334.76C889.693 1334.76 882.458 1338.55 877.936 1346.15C873.414 1353.75 871.154 1362.91 871.154 1373.64C871.154 1383.95 873.414 1392.55 877.936 1399.42C882.458 1406.29 889.633 1409.73 899.461 1409.73ZM900.094 1320.56C912.574 1320.56 923.125 1324.72 931.747 1333.04C940.369 1341.36 944.68 1353.6 944.68 1369.76C944.68 1385.37 940.882 1398.27 933.285 1408.46C925.688 1418.65 913.901 1423.75 897.923 1423.75C884.599 1423.75 874.017 1419.26 866.179 1410.27C858.341 1401.23 854.422 1389.11 854.422 1373.92C854.422 1357.64 858.552 1344.67 866.812 1335.03C875.073 1325.38 886.166 1320.56 900.094 1320.56ZM1015.31 1287.37H1030.96V1364.51L1072.74 1323.36H1093.54L1056.46 1359.63L1095.62 1420.22H1074.82L1044.61 1371.38L1030.96 1383.86V1420.22H1015.31V1287.37ZM1120.76 1394.45C1120.76 1399.15 1122.48 1402.86 1125.92 1405.57C1129.36 1408.28 1133.42 1409.64 1138.13 1409.64C1143.86 1409.64 1149.4 1408.31 1154.77 1405.66C1163.81 1401.26 1168.33 1394.05 1168.33 1384.05V1370.93C1166.34 1372.2 1163.78 1373.25 1160.65 1374.1C1157.51 1374.94 1154.44 1375.54 1151.42 1375.91L1141.56 1377.17C1135.66 1377.96 1131.22 1379.19 1128.27 1380.88C1123.27 1383.71 1120.76 1388.24 1120.76 1394.45ZM1160.19 1361.53C1163.93 1361.04 1166.43 1359.48 1167.7 1356.82C1168.42 1355.38 1168.79 1353.3 1168.79 1350.58C1168.79 1345.04 1166.8 1341.03 1162.82 1338.55C1158.9 1336.02 1153.26 1334.76 1145.91 1334.76C1137.4 1334.76 1131.37 1337.05 1127.82 1341.63C1125.83 1344.16 1124.53 1347.93 1123.93 1352.93H1108.74C1109.04 1341 1112.9 1332.71 1120.31 1328.06C1127.79 1323.36 1136.44 1321.01 1146.27 1321.01C1157.66 1321.01 1166.92 1323.18 1174.03 1327.52C1181.09 1331.86 1184.61 1338.62 1184.61 1347.78V1403.58C1184.61 1405.27 1184.94 1406.62 1185.61 1407.65C1186.33 1408.67 1187.81 1409.19 1190.04 1409.19C1190.76 1409.19 1191.58 1409.16 1192.48 1409.1C1193.39 1408.98 1194.35 1408.83 1195.38 1408.64V1420.67C1192.84 1421.4 1190.91 1421.85 1189.59 1422.03C1188.26 1422.21 1186.45 1422.3 1184.16 1422.3C1178.55 1422.3 1174.48 1420.31 1171.95 1416.33C1170.63 1414.22 1169.69 1411.24 1169.15 1407.38C1165.83 1411.72 1161.07 1415.49 1154.86 1418.68C1148.65 1421.88 1141.81 1423.48 1134.33 1423.48C1125.35 1423.48 1117.99 1420.76 1112.26 1415.34C1106.59 1409.85 1103.76 1403.01 1103.76 1394.81C1103.76 1385.82 1106.56 1378.86 1112.17 1373.92C1117.78 1368.97 1125.13 1365.93 1134.24 1364.78L1160.19 1361.53ZM1211.38 1323.81H1227.93V1420.22H1211.38V1323.81ZM1211.38 1287.37H1227.93V1305.82H1211.38V1287.37ZM1245.39 1407.38L1302.82 1337.92H1249.64V1323.36H1324.7V1336.66L1267.64 1405.66H1326.42V1420.22H1245.39V1407.38ZM1385.57 1321.19C1392.44 1321.19 1399.1 1322.82 1405.55 1326.07C1412.01 1329.27 1416.92 1333.43 1420.3 1338.55C1423.55 1343.44 1425.72 1349.14 1426.81 1355.65C1427.77 1360.11 1428.25 1367.22 1428.25 1376.99H1357.26C1357.56 1386.82 1359.88 1394.72 1364.22 1400.69C1368.56 1406.59 1375.29 1409.55 1384.39 1409.55C1392.89 1409.55 1399.68 1406.75 1404.74 1401.14C1407.63 1397.88 1409.68 1394.11 1410.89 1389.83H1426.9C1426.48 1393.39 1425.06 1397.37 1422.65 1401.77C1420.3 1406.11 1417.64 1409.67 1414.69 1412.44C1409.74 1417.27 1403.62 1420.52 1396.33 1422.21C1392.41 1423.18 1387.98 1423.66 1383.03 1423.66C1370.98 1423.66 1360.76 1419.29 1352.38 1410.54C1344 1401.74 1339.81 1389.44 1339.81 1373.64C1339.81 1358.09 1344.03 1345.46 1352.47 1335.75C1360.91 1326.04 1371.94 1321.19 1385.57 1321.19ZM1411.52 1364.06C1410.86 1357 1409.32 1351.37 1406.91 1347.15C1402.45 1339.31 1395 1335.39 1384.57 1335.39C1377.1 1335.39 1370.83 1338.1 1365.76 1343.53C1360.7 1348.89 1358.01 1355.74 1357.71 1364.06H1411.52ZM1448.33 1323.36H1463.8V1337.11C1468.38 1331.44 1473.23 1327.37 1478.36 1324.9C1483.48 1322.43 1489.18 1321.19 1495.45 1321.19C1509.2 1321.19 1518.48 1325.98 1523.3 1335.57C1525.96 1340.82 1527.28 1348.32 1527.28 1358.09V1420.22H1510.73V1359.17C1510.73 1353.27 1509.86 1348.5 1508.11 1344.89C1505.22 1338.86 1499.97 1335.84 1492.37 1335.84C1488.52 1335.84 1485.35 1336.23 1482.88 1337.02C1478.42 1338.34 1474.5 1341 1471.12 1344.98C1468.41 1348.17 1466.63 1351.49 1465.79 1354.92C1465 1358.3 1464.61 1363.15 1464.61 1369.48V1420.22H1448.33V1323.36Z" fill="#444444"/>
</svg>
