<svg width="2000" height="2000" viewBox="0 0 2000 2000" fill="none" xmlns="http://www.w3.org/2000/svg">
<rect width="2000" height="2000" fill="#172554"/>
<path fill-rule="evenodd" clip-rule="evenodd" d="M1078.94 1177.77L1078.92 1177.75C1080.41 1177.76 1081.91 1177.77 1083.42 1177.77C1118.96 1177.77 1150.09 1172.8 1176.82 1162.85C1203.56 1152.59 1224.31 1138.45 1239.09 1120.42C1253.87 1102.08 1261.26 1080.63 1261.26 1056.07C1261.26 1036.17 1256.7 1019.54 1247.58 1006.17C1238.46 992.808 1223.84 982.394 1203.71 974.933C1183.59 967.162 1156.7 961.722 1123.05 958.613L1052.76 951.619C1032.63 949.754 1018.64 946.334 1010.78 941.36C1003.23 936.387 999.457 929.858 999.457 921.776C999.457 910.585 1005.9 902.192 1018.8 896.596C1031.69 890.69 1049.15 887.737 1071.16 887.737C1087.51 887.737 1101.51 889.446 1113.14 892.866C1124.78 895.975 1133.9 900.637 1140.5 906.855C1147.42 912.761 1151.51 919.911 1152.77 928.304H1251.83C1250.57 905.3 1242.08 885.094 1226.36 867.686C1210.95 850.278 1190.03 836.911 1163.62 827.585C1137.2 817.948 1107.01 813.13 1073.05 813.13C1038.45 813.13 1008.11 817.482 982.003 826.186C956.216 834.579 936.089 847.169 921.623 863.956C907.471 880.742 900.396 901.259 900.396 925.506C900.396 955.349 911.402 979.13 933.416 996.849C955.43 1014.26 990.809 1025.14 1039.55 1029.49L1105.59 1035.55C1127.92 1037.73 1143.02 1041.3 1150.88 1046.28C1158.74 1051.25 1162.67 1058.24 1162.67 1067.26C1162.67 1079.07 1155.75 1088.09 1141.92 1094.3C1130.26 1099.28 1115.75 1099.15 1097.17 1098.99H1097.16C1093.7 1098.96 1090.09 1098.93 1086.33 1098.93H1039.55H1017.35H1016.11L1016.11 1098.93H576.326L639.152 1177.77H1078.94ZM398.933 847.623H761.11L812.849 926.464H450.672L398.933 847.623ZM849.806 975.74H487.629L539.369 1049.65H901.546L849.806 975.74ZM1383.82 1055.92V1182.7H1285.9V827.912H1600V910.696H1383.82V973.138H1591.01V1055.92H1383.82Z" fill="white"/>
</svg>
