<svg width="2000" height="2000" viewBox="0 0 2000 2000" fill="none" xmlns="http://www.w3.org/2000/svg">
<rect width="2000" height="2000" fill="#FDFBEF"/>
<path d="M1507.26 911.997C1507.26 924.698 1502.07 935.86 1491.68 945.482C1481.48 955.104 1469.83 959.915 1456.75 959.915C1452.51 959.915 1449.72 958.952 1448.38 957.028C1447.03 954.911 1446.36 952.217 1446.36 948.946C1446.36 945.674 1446.74 942.499 1447.51 939.42C1440.58 941.729 1432.89 945.289 1424.42 950.1C1415.95 954.911 1405.56 962.032 1393.24 971.461C1380.93 980.891 1374.77 987.915 1374.77 992.533C1374.77 994.073 1376.98 994.843 1381.41 994.843C1386.03 994.843 1393.05 993.303 1402.48 990.224C1411.91 986.953 1418.45 985.317 1422.11 985.317C1425.96 985.317 1428.46 985.509 1429.61 985.894C1432.12 987.241 1434.81 990.224 1437.7 994.843C1440.58 999.269 1442.03 1002.83 1442.03 1005.52C1442.03 1008.02 1439.52 1011.39 1434.52 1015.63C1429.52 1019.86 1423.84 1023.13 1417.49 1025.44C1411.14 1027.56 1406.91 1029.19 1404.79 1030.35C1364.18 1053.06 1343.88 1068.64 1343.88 1077.11C1343.88 1092.12 1356.68 1099.63 1382.27 1099.63C1398.63 1099.63 1415.08 1094.43 1431.63 1084.04C1445.68 1075.19 1458.29 1066.24 1469.45 1057.19C1480.8 1047.96 1487.92 1042.28 1490.81 1040.16C1493.89 1038.05 1496.2 1036.99 1497.74 1036.99C1502.74 1036.99 1505.24 1042.57 1505.24 1053.73C1505.24 1064.89 1504.57 1072.3 1503.22 1075.96C1501.88 1079.42 1498.03 1083.75 1491.68 1088.95C1450.49 1122.43 1411.52 1139.17 1374.77 1139.17C1355.14 1139.17 1339.46 1136.48 1327.72 1131.09C1306.16 1121.28 1295.39 1106.27 1295.39 1086.06C1295.39 1059.5 1313.76 1039.39 1350.52 1025.73C1343.21 1022.46 1338.49 1018.32 1336.38 1013.32C1334.26 1008.12 1333.2 999.942 1333.2 988.781C1333.2 977.427 1338.4 965.495 1348.79 952.987C1359.37 940.286 1372.27 929.894 1387.47 921.811C1421.34 903.53 1451.55 894.389 1478.11 894.389C1484.46 894.389 1490.91 895.928 1497.45 899.007C1503.99 902.086 1507.26 906.416 1507.26 911.997Z" fill="#2B2D22"/>
<path d="M1395.55 694.636C1404.79 694.636 1412.87 697.426 1419.8 703.007C1426.92 708.395 1430.48 716.478 1430.48 727.254C1430.48 738.031 1424.52 754.966 1412.58 778.059C1400.65 800.959 1386.32 824.437 1369.57 848.492C1352.83 872.355 1333.88 897.757 1312.71 924.698C1279.22 967.42 1247.09 1005.81 1216.29 1039.87C1216.1 1042.18 1215.24 1046.51 1213.7 1052.86C1212.35 1059.02 1211.68 1065.28 1211.68 1071.63C1211.68 1077.98 1214.56 1083.75 1220.34 1088.95C1226.3 1093.95 1233.61 1096.45 1242.27 1096.45C1250.93 1096.45 1260.17 1093.37 1269.99 1087.21C1279.99 1081.06 1288.65 1074.22 1295.97 1066.72C1315.21 1046.9 1327.14 1036.99 1331.76 1036.99C1336.38 1036.99 1338.69 1044.01 1338.69 1058.06V1063.83C1338.69 1071.34 1337.34 1076.82 1334.65 1080.29C1318.48 1100.11 1300.3 1114.93 1280.09 1124.74C1259.88 1134.36 1240.73 1139.17 1222.65 1139.17C1204.56 1139.17 1190.8 1133.69 1181.37 1122.72C1171.94 1111.56 1167.22 1096.36 1167.22 1077.11C1167.22 1039.59 1177.23 995.517 1197.24 944.905C1217.45 894.1 1240.16 850.897 1265.37 815.296C1322.14 734.856 1365.53 694.636 1395.55 694.636ZM1382.56 742.553C1382.56 739.667 1381.6 738.224 1379.68 738.224C1372.94 738.224 1355.24 757.468 1326.56 795.956C1297.89 834.444 1277.11 865.138 1264.21 888.038C1251.51 910.939 1239.48 939.709 1228.13 974.348C1250.84 947.406 1282.21 905.454 1322.23 848.492C1362.45 791.337 1382.56 756.024 1382.56 742.553Z" fill="#2B2D22"/>
<path d="M998.354 936.244C1017.02 923.351 1035.3 913.44 1053.2 906.512C1071.1 899.584 1086.59 896.12 1099.67 896.12C1112.76 896.12 1121.13 899.873 1124.79 907.378C1132.29 898.718 1141.63 894.1 1152.79 893.523C1156.06 893.33 1160.1 893.234 1164.91 893.234C1169.72 893.234 1172.71 893.907 1173.86 895.255C1175.01 896.409 1176.07 898.718 1177.04 902.182C1178 905.646 1178.57 907.571 1178.77 907.956C1178.96 908.34 1179.06 909.014 1179.06 909.976C1179.06 910.746 1178.57 911.804 1177.61 913.151C1176.65 914.306 1175.5 915.461 1174.15 916.615C1172.99 917.77 1172.32 918.444 1172.13 918.636C1129.6 979.64 1086.11 1049.21 1041.65 1127.34C1087.45 1086.73 1128.44 1057.58 1164.62 1039.87C1166.93 1038.72 1169.15 1038.14 1171.26 1038.14C1174.34 1038.14 1176.36 1040.16 1177.32 1044.2C1178.29 1048.05 1178.77 1053.63 1178.77 1060.95C1178.77 1068.26 1178.29 1072.78 1177.32 1074.51C1176.55 1076.24 1172.13 1079.71 1164.05 1084.9C1155.96 1090.1 1145.48 1096.84 1132.58 1105.11C1119.69 1113.39 1106.02 1122.53 1091.59 1132.53C1056.95 1156.59 1028.47 1181.89 1006.15 1208.45C977.282 1243.28 956.595 1271.38 944.086 1292.74C939.468 1301.02 931.674 1305.15 920.705 1305.15C898.959 1305.15 888.086 1294.86 888.086 1274.27C888.086 1253.29 898.382 1231.83 918.973 1209.89C934.368 1193.54 948.512 1180.16 961.406 1169.77C974.299 1159.38 981.323 1153.51 982.478 1152.16C996.719 1130.8 1016.06 1100.49 1040.5 1061.23C1019.72 1082.98 999.509 1100.3 979.88 1113.19C960.444 1126.09 945.914 1132.53 936.292 1132.53C906.849 1132.53 892.127 1119.93 892.127 1094.72C892.127 1074.71 897.227 1054.5 907.426 1034.1C917.626 1013.7 930.712 995.516 946.684 979.543C962.657 963.378 979.88 948.945 998.354 936.244ZM1108.33 928.739C1086.01 933.55 1065.03 941.536 1045.41 952.698C1025.78 963.667 1009.61 975.502 996.911 988.203C984.21 1000.71 973.241 1013.61 964.004 1026.88C946.684 1051.71 938.024 1070.95 938.024 1084.62C938.024 1087.89 938.794 1089.52 940.334 1089.52C942.066 1089.52 945.722 1087.79 951.303 1084.33C957.076 1080.86 965.158 1074.99 975.55 1066.72C985.942 1058.25 997.488 1048.24 1010.19 1036.7C1039.63 1009.56 1072.35 973.578 1108.33 928.739Z" fill="#2B2D22"/>
<path d="M919.551 911.997C919.551 924.698 914.355 935.86 903.963 945.482C893.764 955.104 882.121 959.915 869.035 959.915C864.802 959.915 862.011 958.952 860.664 957.028C859.317 954.911 858.643 952.217 858.643 948.946C858.643 945.674 859.028 942.499 859.798 939.42C852.87 941.729 845.173 945.289 836.705 950.1C828.238 954.911 817.846 962.032 805.53 971.461C793.214 980.891 787.056 987.915 787.056 992.533C787.056 994.073 789.269 994.843 793.695 994.843C798.313 994.843 805.337 993.303 814.767 990.224C824.197 986.953 830.74 985.317 834.396 985.317C838.245 985.317 840.746 985.509 841.901 985.894C844.403 987.241 847.097 990.224 849.984 994.843C852.87 999.269 854.313 1002.83 854.313 1005.52C854.313 1008.02 851.812 1011.39 846.808 1015.63C841.805 1019.86 836.128 1023.13 829.777 1025.44C823.427 1027.56 819.193 1029.19 817.076 1030.35C776.471 1053.06 756.169 1068.64 756.169 1077.11C756.169 1092.12 768.966 1099.63 794.561 1099.63C810.918 1099.63 827.372 1094.43 843.922 1084.04C857.97 1075.19 870.575 1066.24 881.736 1057.19C893.09 1047.96 900.211 1042.28 903.097 1040.16C906.176 1038.05 908.486 1036.99 910.025 1036.99C915.028 1036.99 917.53 1042.57 917.53 1053.73C917.53 1064.89 916.857 1072.3 915.51 1075.96C914.162 1079.42 910.314 1083.75 903.963 1088.95C862.781 1122.43 823.812 1139.17 787.056 1139.17C767.427 1139.17 751.743 1136.48 740.004 1131.09C718.45 1121.28 707.674 1106.27 707.674 1086.06C707.674 1059.5 726.052 1039.39 762.808 1025.73C755.495 1022.46 750.781 1018.32 748.664 1013.32C746.547 1008.12 745.488 999.942 745.488 988.781C745.488 977.427 750.684 965.495 761.076 952.987C771.66 940.286 784.554 929.894 799.757 921.811C833.626 903.53 863.839 894.389 890.396 894.389C896.747 894.389 903.193 895.928 909.736 899.007C916.279 902.086 919.551 906.416 919.551 911.997Z" fill="#2B2D22"/>
<path d="M731.924 911.997C731.924 924.698 726.728 935.86 716.336 945.482C706.137 955.104 694.494 959.915 681.408 959.915C677.175 959.915 674.384 958.952 673.037 957.028C671.69 954.911 671.016 952.217 671.016 948.946C671.016 945.674 671.401 942.499 672.171 939.42C665.243 941.729 657.546 945.289 649.078 950.1C640.611 954.911 630.219 962.032 617.903 971.461C605.587 980.891 599.429 987.915 599.429 992.533C599.429 994.073 601.642 994.843 606.068 994.843C610.686 994.843 617.71 993.303 627.14 990.224C636.57 986.953 643.113 985.317 646.769 985.317C650.618 985.317 653.119 985.509 654.274 985.894C656.776 987.241 659.47 990.224 662.357 994.843C665.243 999.269 666.687 1002.83 666.687 1005.52C666.687 1008.02 664.185 1011.39 659.181 1015.63C654.178 1019.86 648.501 1023.13 642.15 1025.44C635.8 1027.56 631.566 1029.19 629.449 1030.35C588.844 1053.06 568.542 1068.64 568.542 1077.11C568.542 1092.12 581.339 1099.63 606.934 1099.63C623.291 1099.63 639.745 1094.43 656.295 1084.04C670.343 1075.19 682.948 1066.24 694.109 1057.19C705.463 1047.96 712.584 1042.28 715.47 1040.16C718.549 1038.05 720.859 1036.99 722.398 1036.99C727.402 1036.99 729.903 1042.57 729.903 1053.73C729.903 1064.89 729.23 1072.3 727.883 1075.96C726.536 1079.42 722.687 1083.75 716.336 1088.95C675.154 1122.43 636.185 1139.17 599.429 1139.17C579.8 1139.17 564.116 1136.48 552.377 1131.09C530.824 1121.28 520.047 1106.27 520.047 1086.06C520.047 1059.5 538.425 1039.39 575.181 1025.73C567.868 1022.46 563.154 1018.32 561.037 1013.32C558.92 1008.12 557.861 999.942 557.861 988.781C557.861 977.427 563.057 965.495 573.449 952.987C584.033 940.286 596.927 929.894 612.13 921.811C645.999 903.53 676.212 894.389 702.769 894.389C709.12 894.389 715.566 895.928 722.109 899.007C728.652 902.086 731.924 906.416 731.924 911.997Z" fill="#2B2D22"/>
<path d="M401.598 1036.12L400.155 1042.18C400.155 1043.34 400.636 1044.4 401.598 1045.36C402.753 1046.32 404.1 1046.8 405.639 1046.8C407.179 1046.8 408.43 1046.03 409.392 1044.49C438.066 1006.39 461.832 972.904 480.691 944.038C499.55 914.98 513.31 893.619 521.97 879.956C530.822 866.292 537.846 855.42 543.042 847.337C556.898 826.169 570.657 807.213 584.32 790.471C532.361 803.557 491.66 810.1 462.217 810.1C432.774 810.1 411.605 808.272 398.712 804.615C385.818 800.766 377.351 796.533 373.309 791.914C369.268 787.103 367.248 782.292 367.248 777.481C367.248 772.478 367.44 767.667 367.825 763.048C368.595 753.426 374.368 745.536 385.144 739.378C396.114 733.22 405.158 730.141 412.279 730.141C419.399 730.141 422.959 731.199 422.959 733.316C422.959 735.433 421.323 738.319 418.052 741.976C414.973 745.44 413.433 747.845 413.433 749.192C413.433 755.35 435.66 758.43 480.114 758.43C524.568 758.43 575.661 752.56 633.393 740.821C666.493 713.88 695.07 700.409 719.125 700.409C735.098 700.409 745.682 704.931 750.878 713.976C754.342 719.364 756.074 724.752 756.074 730.141C756.074 735.529 752.898 740.917 746.548 746.306C740.39 751.694 732.019 756.313 721.434 760.161C702.19 767.089 679.482 772.574 653.31 776.615C642.341 790.663 626.754 812.505 606.547 842.141C586.533 871.777 572.87 891.791 565.557 902.183C558.245 912.574 546.41 931.049 530.052 957.605C513.887 984.162 499.839 1007.16 487.908 1026.6C475.976 1045.84 463.275 1064.89 449.804 1083.75C422.285 1122.62 397.749 1142.06 376.196 1142.06C367.151 1142.06 359.357 1139.65 352.814 1134.84C346.271 1130.03 343 1122.24 343 1111.46C343 1100.49 348.966 1086.93 360.897 1070.76C373.021 1054.4 381.873 1043.92 387.454 1039.3C393.035 1034.68 396.787 1032.37 398.712 1032.37C400.636 1032.37 401.598 1033.62 401.598 1036.12Z" fill="#2B2D22"/>
<path d="M1657 844.775C1657 866.864 1650.52 886.72 1637.56 904.341C1630.61 913.779 1621.91 921.586 1611.46 927.761C1602.09 933.284 1593.05 936.045 1584.33 936.045C1581.22 936.045 1578.16 935.216 1575.16 933.56C1572.2 931.903 1569.61 929.769 1567.4 927.159C1565.18 924.548 1563.21 921.687 1561.48 918.574C1557.93 912.399 1556.16 906.55 1556.16 901.028C1556.16 895.455 1557.05 889.506 1558.82 883.18C1560.64 876.855 1563.01 871.031 1565.92 865.71C1568.83 860.338 1572.1 855.217 1575.75 850.347C1579.45 845.477 1583.14 841.336 1586.84 837.922C1594.82 830.542 1601.31 826.802 1606.28 826.701H1606.87C1607.37 826.701 1608.3 826.35 1609.68 825.647C1611.06 824.944 1612.62 824.166 1614.34 823.313C1618.93 821.053 1624.96 819.924 1632.45 819.924C1637.24 819.924 1642.36 821.932 1647.83 825.948C1650.44 827.906 1652.61 830.542 1654.34 833.855C1656.11 837.169 1657 840.809 1657 844.775ZM1589.21 921.059C1595.42 921.059 1601.82 919.026 1608.43 914.959C1615.08 910.843 1620.92 905.722 1625.95 899.597C1630.98 893.422 1635.12 886.569 1638.37 879.039C1641.62 871.458 1643.25 864.053 1643.25 856.823C1643.25 849.544 1641.55 843.319 1638.15 838.148C1634.8 832.977 1631.37 830.391 1627.87 830.391C1624.42 830.391 1620.7 831.195 1616.71 832.801C1612.72 834.408 1609.96 835.763 1608.43 836.868C1593 848.013 1582.43 858.003 1576.71 866.839C1572.87 872.864 1570.53 877.884 1569.69 881.9C1568.46 887.523 1567.84 893.397 1567.84 899.522C1567.84 902.333 1568.75 905.395 1570.57 908.709C1572.4 911.972 1575.01 914.859 1578.41 917.369C1581.81 919.829 1585.41 921.059 1589.21 921.059ZM1618.33 884.686C1619.17 883.733 1619.74 883.13 1620.03 882.879C1620.33 882.628 1620.82 882.503 1621.51 882.503C1622.2 882.503 1622.62 882.854 1622.77 883.557C1622.92 884.26 1622.99 885.515 1622.99 887.322C1622.99 889.129 1622.3 891.313 1620.92 893.874C1619.59 896.384 1617.89 898.543 1615.82 900.35C1613.75 902.107 1611.51 903.663 1609.09 905.019C1604.21 907.63 1599.9 908.935 1596.15 908.935C1590.34 908.935 1585.9 907.203 1582.85 903.739C1579.79 900.224 1578.26 895.631 1578.26 889.958C1578.26 882.578 1581.32 874.771 1587.43 866.538C1594.04 857.652 1601.35 851.452 1609.39 847.937C1613.87 845.929 1617.87 844.925 1621.37 844.925C1624.86 844.925 1627.67 845.703 1629.79 847.26C1631.91 848.816 1632.97 850.95 1632.97 853.661C1632.97 856.372 1631.64 859.635 1628.98 863.45C1626.37 867.216 1623.71 869.098 1621 869.098C1617.84 869.098 1616.26 867.567 1616.26 864.505C1616.26 863.701 1617 862.271 1618.48 860.212C1619.96 858.154 1620.7 856.773 1620.7 856.07C1620.7 855.317 1620.43 854.941 1619.89 854.941C1616.83 854.941 1613.48 856.196 1609.83 858.706C1606.18 861.166 1602.93 864.178 1600.07 867.743C1597.21 871.257 1594.8 875.022 1592.83 879.039C1590.91 883.055 1589.94 886.519 1589.94 889.431C1589.94 894.903 1592.16 897.639 1596.6 897.639C1603.25 897.639 1610.5 893.321 1618.33 884.686Z" fill="#2B2D22"/>
</svg>
