<svg width="2000" height="2000" viewBox="0 0 2000 2000" fill="none" xmlns="http://www.w3.org/2000/svg">
<rect width="2000" height="2000" fill="#1B1A16"/>
<path d="M563.701 1347.95C528.906 1347.95 461.993 1352.38 416.492 1352.38C406.678 1352.38 402.217 1350.61 402.217 1344.41C402.217 1339.09 406.678 1337.32 416.492 1337.32C485.189 1337.32 525.337 1323.15 525.337 1246.98V681.866C525.337 663.265 515.523 652.636 498.572 652.636H451.287C387.05 652.636 354.04 725.268 336.197 835.987C335.304 844.844 333.52 850.159 327.275 850.159C321.03 850.159 320.137 844.844 321.03 835.987C321.03 812.071 323.706 774.87 323.706 739.44C323.706 698.695 317.461 672.122 317.461 656.179C317.461 642.007 321.03 634.921 332.628 634.921C360.285 634.921 392.403 639.349 433.443 639.349H718.047C759.087 639.349 791.205 634.921 819.754 634.921C830.46 634.921 834.921 642.007 834.921 656.179C834.921 672.122 827.784 698.695 827.784 739.44C827.784 774.87 830.46 812.071 830.46 835.987C831.353 844.844 830.46 850.159 824.215 850.159C818.862 850.159 817.078 845.73 815.293 835.987C797.45 725.268 765.332 652.636 700.203 652.636H652.918C635.967 652.636 626.153 663.265 626.153 681.866V1246.98C625.261 1323.15 665.408 1337.32 734.998 1337.32C744.812 1337.32 748.38 1339.09 748.38 1344.41C748.38 1350.61 744.812 1352.38 734.106 1352.38C688.605 1352.38 622.584 1347.95 586.897 1347.95H563.701Z" fill="white"/>
<path d="M733.334 1347.29C733.334 1341.96 736.88 1340.18 744.859 1340.18C803.373 1340.18 844.156 1326.84 866.32 1253.91L1024.13 736.307C1046.3 663.38 1020.58 650.04 962.071 650.04C954.091 650.04 950.545 648.261 950.545 642.925C950.545 637.589 954.091 634.921 962.957 634.921C1001.08 634.921 1056.05 639.367 1086.19 639.367H1117.22C1146.48 639.367 1156.23 648.261 1155.34 673.163L1162.44 1203.22C1162.44 1222.78 1171.3 1225.45 1181.94 1208.55L1510.86 685.614C1531.25 651.818 1542.78 639.367 1564.94 639.367H1603.95C1636.75 639.367 1699.7 634.921 1742.26 634.921C1752.01 634.921 1755.56 636.699 1755.56 642.925C1755.56 648.261 1752.01 650.04 1743.14 650.04C1677.54 650.04 1632.32 663.38 1610.16 736.307L1452.35 1253.91C1430.18 1326.84 1460.33 1340.18 1525.93 1340.18C1535.69 1340.18 1538.34 1341.96 1538.34 1347.29C1538.34 1352.63 1535.69 1355.3 1525.05 1355.3C1482.49 1355.3 1419.54 1350.85 1386.74 1350.85H1361.92C1326.45 1350.85 1260.85 1355.3 1215.63 1355.3C1204.99 1355.3 1201.45 1353.52 1201.45 1347.29C1201.45 1341.96 1204.99 1340.18 1214.74 1340.18C1283.9 1340.18 1330.89 1326.84 1353.05 1253.91L1513.52 729.192C1518.84 710.516 1515.29 708.737 1504.66 724.745L1109.24 1358.85C1106.58 1362.41 1101.26 1365.08 1097.72 1365.08H1070.23C1065.8 1365.08 1062.25 1361.52 1062.25 1357.96L1050.73 737.196C1049.84 717.631 1045.41 716.741 1039.2 736.307L881.392 1253.91C859.228 1326.84 891.144 1340.18 960.297 1340.18C970.05 1340.18 973.596 1341.96 973.596 1347.29C973.596 1352.63 970.05 1355.3 959.411 1355.3C924.834 1355.3 879.619 1352.63 843.269 1351.74C814.012 1352.63 775.003 1355.3 745.746 1355.3C736.88 1355.3 733.334 1353.52 733.334 1347.29Z" fill="white"/>
</svg>
