<svg width="2000" height="2000" viewBox="0 0 2000 2000" fill="none" xmlns="http://www.w3.org/2000/svg">
<rect width="2000" height="2000" fill="#6792FF"/>
<path fill-rule="evenodd" clip-rule="evenodd" d="M613.332 753.024C613.332 675.875 675.874 613.333 753.023 613.333H1248.29C1325.44 613.333 1387.98 675.875 1387.98 753.024V1031.86C1387.98 1032.04 1387.98 1032.22 1387.98 1032.41H1387.98V1248.29C1387.98 1325.44 1325.44 1387.98 1248.29 1387.98H753.023C675.874 1387.98 613.332 1325.44 613.332 1248.29V994.307V753.024ZM1311.79 845.766C1263.38 796.371 1195.92 765.723 1121.3 765.723C974.014 765.723 854.616 885.121 854.616 1032.41L930.811 1032.41C930.811 927.202 1016.1 841.918 1121.3 841.918C1226.35 841.918 1311.54 926.952 1311.79 1031.94V1248.29C1311.79 1283.36 1283.36 1311.79 1248.29 1311.79H753.023C717.955 1311.79 689.527 1283.36 689.527 1248.29V1180.95C737.93 1230.34 805.393 1260.99 880.014 1260.99C1027.3 1260.99 1146.7 1141.59 1146.7 994.307H1070.5C1070.5 1099.51 985.217 1184.79 880.014 1184.79C774.811 1184.79 689.527 1099.51 689.527 994.307V753.024C689.527 717.956 717.955 689.528 753.023 689.528H1248.29C1283.36 689.528 1311.79 717.956 1311.79 753.024V845.766Z" fill="white"/>
</svg>
