<svg width="2000" height="2000" viewBox="0 0 2000 2000" fill="none" xmlns="http://www.w3.org/2000/svg">
<rect width="2000" height="2000" fill="white"/>
<path fill-rule="evenodd" clip-rule="evenodd" d="M806.068 1068.87C817.537 1076.84 831.289 1080.83 847.324 1080.83C863.465 1080.83 877.057 1076.84 888.101 1068.87C892.984 1065.3 897.338 1061.17 901.163 1056.5V1076.04H926.489V846.41H897.977V919.396C894.969 916.236 891.677 913.383 888.101 910.835C877.057 902.968 863.412 899.035 847.164 899.035C831.236 899.035 817.537 903.021 806.068 910.995C794.6 918.862 785.733 929.653 779.467 943.367C773.308 957.081 770.229 972.55 770.229 989.772C770.229 1006.99 773.308 1022.46 779.467 1036.18C785.733 1049.89 794.6 1060.79 806.068 1068.87ZM901.163 989.772C901.163 1002.32 899.357 1013.53 895.747 1023.42C892.243 1033.2 886.774 1040.91 879.34 1046.54C871.907 1052.07 862.403 1054.84 850.828 1054.84C839.572 1054.84 830.174 1051.97 822.634 1046.22C815.201 1040.48 809.626 1032.72 805.909 1022.94C802.192 1013.05 800.334 1002 800.334 989.772C800.334 977.653 802.139 966.702 805.75 956.922C809.466 947.141 815.095 939.38 822.634 933.639C830.28 927.898 839.943 925.028 851.624 925.028C862.881 925.028 872.172 927.792 879.5 933.32C886.827 938.742 892.243 946.344 895.747 956.124C899.357 965.799 901.163 977.015 901.163 989.772ZM719.222 1076.04V989.772C719.222 981.586 718.479 973.719 716.992 966.171C715.611 958.623 713.116 951.872 709.505 945.918C706.001 939.859 701.222 935.075 695.17 931.566C689.223 928.058 681.683 926.304 672.551 926.304C665.436 926.304 658.958 927.526 653.118 929.972C647.383 932.31 642.445 935.925 638.304 940.815C634.163 945.706 630.924 951.872 628.587 959.314C626.357 966.649 625.242 975.314 625.242 985.307V1076.04H596.571V903.819H622.057V926.021C627.215 919.069 633.481 913.423 640.853 909.081C651.79 902.596 664.639 899.354 679.4 899.354C690.55 899.354 700.054 901.108 707.913 904.616C715.771 908.124 722.301 912.802 727.505 918.649C732.708 924.39 736.797 930.875 739.77 938.104C742.743 945.227 744.814 952.51 745.982 959.952C747.256 967.287 747.894 974.251 747.894 980.842V1076.04H719.222ZM528.548 1076.04V903.819H550.019V876.709H578.372V906.051H556.901V1076.04H528.548ZM1042.16 1080.83C1026.02 1080.83 1012.43 1076.84 1001.38 1068.87C997.812 1066.26 994.521 1063.35 991.506 1060.15V1152.59H962.993V903.819H988.32V922.949C992.158 918.342 996.512 914.305 1001.38 910.835C1012.53 902.968 1026.18 899.035 1042.32 899.035C1058.25 899.035 1071.95 903.021 1083.41 910.995C1094.99 918.862 1103.86 929.653 1110.02 943.367C1116.17 957.081 1119.25 972.55 1119.25 989.772C1119.25 1006.99 1116.17 1022.46 1110.02 1036.18C1103.86 1049.89 1094.99 1060.79 1083.41 1068.87C1071.95 1076.84 1058.19 1080.83 1042.16 1080.83ZM993.736 956.124C990.125 965.799 988.32 977.015 988.32 989.772C988.32 1002.32 990.072 1013.53 993.577 1023.42C997.187 1033.2 1002.71 1040.91 1010.14 1046.54C1017.58 1052.07 1027.08 1054.84 1038.65 1054.84C1050.02 1054.84 1059.42 1051.97 1066.85 1046.22C1074.28 1040.48 1079.86 1032.72 1083.57 1022.94C1087.29 1013.05 1089.15 1002 1089.15 989.772C1089.15 977.653 1087.29 966.702 1083.57 956.922C1079.96 947.141 1074.34 939.38 1066.69 933.639C1059.15 927.898 1049.54 925.028 1037.86 925.028C1026.71 925.028 1017.47 927.792 1010.14 933.32C1002.82 938.742 997.346 946.344 993.736 956.124ZM1146.21 903.819V1076.04H1174.72V989.613C1174.72 982.809 1175.3 976.164 1176.47 969.679C1177.64 963.088 1179.71 956.975 1182.69 951.34C1185.76 945.706 1190.07 940.922 1195.59 936.988C1201.64 932.523 1208.22 929.918 1215.34 929.174C1222.45 928.43 1228.98 928.855 1234.93 930.45V903.819C1229.83 902.649 1224.37 902.277 1218.52 902.702C1212.68 903.021 1206.95 904.138 1201.32 906.051C1195.69 907.965 1190.65 910.729 1186.19 914.344C1182.15 917.214 1178.49 920.882 1175.2 925.347C1173.88 927.2 1172.66 929.125 1171.54 931.124V903.819H1146.21ZM1328.52 1080.83C1311.64 1080.83 1296.88 1077.11 1284.24 1069.67C1271.71 1062.12 1261.94 1051.65 1254.93 1038.25C1247.92 1024.75 1244.42 1009.01 1244.42 991.048C1244.42 972.231 1247.87 955.965 1254.77 942.251C1261.68 928.43 1271.29 917.799 1283.6 910.357C1296.03 902.809 1310.58 899.035 1327.25 899.035C1344.56 899.035 1359.27 903.021 1371.37 910.995C1383.58 918.968 1392.72 930.344 1398.77 945.121C1404.93 959.899 1407.58 977.493 1406.73 997.905H1392.08H1378.06H1274.77C1275.84 1014.4 1280.32 1027.48 1288.22 1037.13C1297.36 1048.3 1310.36 1053.88 1327.25 1053.88C1338.61 1053.88 1348.49 1051.27 1356.88 1046.06C1365.26 1040.86 1371.85 1033.36 1376.63 1023.58L1403.87 1032.99C1397.18 1048.19 1387.09 1059.99 1373.6 1068.39C1360.22 1076.68 1345.19 1080.83 1328.52 1080.83ZM1365.16 940.337C1371.71 948.571 1375.76 960.159 1377.34 975.101H1275.38C1277.08 961.129 1281.37 949.913 1288.22 941.453C1297.36 930.184 1310.68 924.55 1328.2 924.55C1344.56 924.55 1356.88 929.812 1365.16 940.337ZM1448.73 1067.27C1461.89 1076.2 1478.73 1080.67 1499.22 1080.67C1520.67 1080.67 1537.5 1075.94 1549.72 1066.48C1561.93 1056.91 1568.03 1043.83 1568.03 1027.25C1568.03 1018.32 1566.17 1010.82 1562.46 1004.76C1558.74 998.596 1552.48 993.281 1543.66 988.815C1534.95 984.244 1523.01 980.045 1507.82 976.217C1494.34 972.815 1484.04 969.786 1476.92 967.128C1469.91 964.47 1465.08 961.653 1462.43 958.676C1459.88 955.699 1458.6 952.138 1458.6 947.991C1458.6 940.55 1462.05 934.649 1468.96 930.29C1475.97 925.932 1485.04 923.965 1496.19 924.39C1507.98 924.709 1517.59 927.526 1525.03 932.842C1532.57 938.158 1537.03 945.44 1538.41 954.689L1567.4 949.427C1566.23 939.327 1562.46 930.503 1556.09 922.955C1549.82 915.3 1541.54 909.4 1531.24 905.254C1520.94 901.108 1509.26 899.035 1496.19 899.035C1483.03 899.035 1471.45 901.108 1461.47 905.254C1451.59 909.4 1443.9 915.3 1438.37 922.955C1432.85 930.503 1430.09 939.327 1430.09 949.427C1430.09 957.613 1431.95 964.576 1435.67 970.317C1439.38 976.058 1445.59 981.108 1454.3 985.467C1463.01 989.825 1474.96 994.025 1490.14 998.065C1504.16 1001.79 1514.62 1004.97 1521.52 1007.63C1528.53 1010.29 1533.15 1013.16 1535.38 1016.24C1537.61 1019.22 1538.72 1023.15 1538.72 1028.04C1538.72 1036.44 1535.38 1043.09 1528.69 1047.98C1522 1052.87 1512.76 1055.31 1500.97 1055.31C1488.55 1055.31 1478.14 1052.6 1469.75 1047.18C1461.36 1041.65 1456 1034.21 1453.67 1024.86L1424.67 1029.48C1427.65 1045.64 1435.67 1058.24 1448.73 1067.27ZM1660.19 1080.67C1639.69 1080.67 1622.86 1076.2 1609.69 1067.27C1596.63 1058.24 1588.62 1045.64 1585.64 1029.48L1614.63 1024.86C1616.97 1034.21 1622.33 1041.65 1630.72 1047.18C1639.11 1052.6 1649.52 1055.31 1661.94 1055.31C1673.73 1055.31 1682.97 1052.87 1689.66 1047.98C1696.35 1043.09 1699.69 1036.44 1699.69 1028.04C1699.69 1023.15 1698.58 1019.22 1696.35 1016.24C1694.12 1013.16 1689.5 1010.29 1682.49 1007.63C1675.59 1004.97 1665.13 1001.79 1651.11 998.065C1635.92 994.025 1623.98 989.825 1615.27 985.467C1606.56 981.108 1600.35 976.058 1596.63 970.317C1592.92 964.576 1591.06 957.613 1591.06 949.427C1591.06 939.327 1593.82 930.503 1599.34 922.955C1604.86 915.3 1612.56 909.4 1622.44 905.254C1632.42 901.108 1643.99 899.035 1657.16 899.035C1670.22 899.035 1681.9 901.108 1692.2 905.254C1702.51 909.4 1710.79 915.3 1717.05 922.955C1723.43 930.503 1727.19 939.327 1728.36 949.427L1699.37 954.689C1697.99 945.44 1693.53 938.158 1685.99 932.842C1678.56 927.526 1668.95 924.709 1657.16 924.39C1646.01 923.965 1636.93 925.932 1629.92 930.29C1623.02 934.649 1619.57 940.55 1619.57 947.991C1619.57 952.138 1620.84 955.699 1623.39 958.676C1626.05 961.653 1630.88 964.47 1637.89 967.128C1645 969.786 1655.3 972.815 1668.79 976.217C1683.98 980.045 1695.92 984.244 1704.63 988.815C1713.44 993.281 1719.71 998.596 1723.43 1004.76C1727.14 1010.82 1729 1018.32 1729 1027.25C1729 1043.83 1722.89 1056.91 1710.68 1066.48C1698.47 1075.94 1681.64 1080.67 1660.19 1080.67ZM323.565 1076.04L271 903.659L299.194 903.819L337.582 1029.8L376.289 903.819H401.297L439.844 1029.8L478.392 903.819H506.426L453.862 1076.04H430.287L388.713 945.121L347.139 1076.04H323.565Z" fill="url(#paint0_linear_300_218)"/>
<defs>
<linearGradient id="paint0_linear_300_218" x1="463.738" y1="846.808" x2="1411.33" y2="1121.98" gradientUnits="userSpaceOnUse">
<stop stop-color="#0085FF"/>
<stop offset="1" stop-color="#0038FF"/>
</linearGradient>
</defs>
</svg>
