<svg width="2000" height="2000" viewBox="0 0 2000 2000" fill="none" xmlns="http://www.w3.org/2000/svg">
<rect width="2000" height="2000" fill="black"/>
<rect x="1000" y="657.143" width="85.7143" height="85.7143" fill="white"/>
<rect x="1000" y="1085.71" width="85.7143" height="85.7143" fill="white"/>
<rect x="657.146" y="657.143" width="85.7143" height="85.7143" fill="white"/>
<rect x="1000" y="828.571" width="85.7143" height="85.7143" fill="white"/>
<rect x="1000" y="1257.14" width="85.7143" height="85.7143" fill="white"/>
<rect x="828.576" y="1257.14" width="85.7143" height="85.7143" fill="white"/>
<rect x="828.576" y="1085.71" width="85.7143" height="85.7143" fill="white"/>
<rect x="657.146" y="828.571" width="85.7143" height="85.7143" fill="white"/>
<rect x="1171.43" y="657.143" width="85.7143" height="85.7143" fill="white"/>
<rect x="1171.43" y="1000" width="85.7143" height="85.7143" fill="white"/>
<rect x="828.576" y="657.143" width="85.7143" height="85.7143" fill="white"/>
<rect x="1171.43" y="828.571" width="85.7143" height="85.7143" fill="white"/>
<rect x="1171.43" y="1171.43" width="85.7143" height="85.7143" fill="white"/>
<rect x="828.576" y="828.571" width="85.7143" height="85.7143" fill="white"/>
<rect x="1000" y="742.856" width="85.7143" height="85.7143" fill="white"/>
<rect x="1000" y="1171.43" width="85.7143" height="85.7143" fill="white"/>
<rect x="914.289" y="1171.43" width="85.7143" height="85.7143" fill="white"/>
<rect x="657.146" y="742.856" width="85.7143" height="85.7143" fill="white"/>
<rect x="1000" y="914.285" width="85.7143" height="85.7143" fill="white"/>
<rect x="914.289" y="1000" width="85.7143" height="85.7143" fill="white"/>
<rect x="657.146" y="1000" width="85.7143" height="85.7143" fill="white"/>
<rect x="1171.43" y="742.856" width="85.7143" height="85.7143" fill="white"/>
<rect x="1171.43" y="1085.71" width="85.7143" height="85.7143" fill="white"/>
<rect x="828.576" y="742.856" width="85.7143" height="85.7143" fill="white"/>
<rect x="1171.43" y="914.285" width="85.7143" height="85.7143" fill="white"/>
<rect x="1171.43" y="1257.14" width="85.7143" height="85.7143" fill="white"/>
<rect x="828.576" y="1000" width="85.7143" height="85.7143" fill="white"/>
<rect x="742.859" y="1085.71" width="85.7143" height="85.7143" fill="white"/>
<rect x="657.146" y="1171.43" width="85.7143" height="85.7143" fill="white"/>
<rect x="742.859" y="1257.14" width="85.7143" height="85.7143" fill="white"/>
<rect x="1085.72" y="657.143" width="85.7143" height="85.7143" fill="white"/>
<rect x="742.859" y="657.143" width="85.7143" height="85.7143" fill="white"/>
<rect x="1085.72" y="828.571" width="85.7143" height="85.7143" fill="white"/>
<rect x="742.859" y="828.571" width="85.7143" height="85.7143" fill="white"/>
<rect x="1257.15" y="657.143" width="85.7143" height="85.7143" fill="white"/>
<rect x="1257.15" y="1000" width="85.7143" height="85.7143" fill="white"/>
<rect x="914.289" y="657.143" width="85.7143" height="85.7143" fill="white"/>
<rect x="1257.15" y="828.571" width="85.7143" height="85.7143" fill="white"/>
<rect x="1257.15" y="1171.43" width="85.7143" height="85.7143" fill="white"/>
<rect x="914.289" y="828.571" width="85.7143" height="85.7143" fill="white"/>
<rect x="1085.72" y="742.856" width="85.7143" height="85.7143" fill="white"/>
<rect x="1085.72" y="1171.43" width="85.7143" height="85.7143" fill="white"/>
<rect x="742.859" y="742.856" width="85.7143" height="85.7143" fill="white"/>
<rect x="1085.72" y="914.285" width="85.7143" height="85.7143" fill="white"/>
<rect x="1085.72" y="1000" width="85.7143" height="85.7143" fill="white"/>
<rect x="742.859" y="914.285" width="85.7143" height="85.7143" fill="white"/>
<rect x="1257.15" y="742.856" width="85.7143" height="85.7143" fill="white"/>
<rect x="1257.15" y="1085.71" width="85.7143" height="85.7143" fill="white"/>
<rect x="914.289" y="742.856" width="85.7143" height="85.7143" fill="white"/>
<rect x="1257.15" y="914.285" width="85.7143" height="85.7143" fill="white"/>
<rect x="1257.15" y="1257.14" width="85.7143" height="85.7143" fill="white"/>
<rect x="914.289" y="914.285" width="85.7143" height="85.7143" fill="white"/>
</svg>
