<svg width="2000" height="2000" viewBox="0 0 2000 2000" fill="none" xmlns="http://www.w3.org/2000/svg">
<rect width="2000" height="2000" fill="#000C00"/>
<path fill-rule="evenodd" clip-rule="evenodd" d="M717.316 1529.23L940.799 1142.15L825.102 1573.94L863.739 1584.29L980 1150.39V1600H1020V1153.46L1135.68 1585.18L1174.32 1574.82L1058.05 1140.93L1282.68 1530L1317.33 1510L1092.77 1121.05L1410.86 1439.14L1439.14 1410.86L1121.03 1092.75L1510 1317.32L1530 1282.68L1140.95 1058.06L1574.82 1174.32L1585.18 1135.68L1153.45 1020H1600V980H1153.45L1585.18 864.318L1574.82 825.681L1140.96 941.936L1530 717.322L1510 682.68L1121.04 907.249L1439.14 589.141L1410.86 560.857L1092.74 878.976L1317.32 490L1282.67 470L1058.07 859.022L1174.32 425.177L1135.68 414.824L1020 846.564V400H980V849.629L863.733 415.713L825.096 426.066L940.78 857.804L717.325 470.77L682.684 490.77L906.209 877.927L590.613 562.33L562.328 590.614L877.908 906.194L490.77 682.68L470.77 717.321L857.829 940.789L426.064 825.098L415.711 863.735L849.616 980H400V1020H849.618L415.714 1136.26L426.067 1174.9L857.831 1059.21L470.77 1282.68L490.77 1317.32L877.911 1093.81L562.331 1409.39L590.616 1437.67L906.185 1122.1L682.675 1509.23L717.316 1529.23Z" fill="#FFE652"/>
</svg>
