<svg width="2000" height="2000" viewBox="0 0 2000 2000" fill="none" xmlns="http://www.w3.org/2000/svg">
<rect width="2000" height="2000" fill="#222222"/>
<g filter="url(#filter0_d_296_1017)">
<path d="M1273.34 1076.11C1273.34 1085.49 1265.74 1093.09 1256.37 1093.09H1233.16C1223.79 1093.09 1216.19 1085.49 1216.19 1076.11V1040.24C1216.19 1030.87 1208.59 1023.27 1199.21 1023.27H799.881C790.507 1023.27 782.907 1030.87 782.907 1040.24V1079.8C782.907 1089.17 775.308 1096.77 765.933 1096.77H741.931C732.557 1096.77 724.957 1089.17 724.957 1079.8V626.083C724.957 616.708 732.557 609.109 741.931 609.109H765.189C774.564 609.109 782.164 616.708 782.164 626.083V951.181C782.164 960.556 789.763 968.156 799.138 968.156H954.87C964.245 968.156 971.844 960.556 971.844 951.181V497.449C971.844 488.074 979.444 480.475 988.819 480.475H1012.49C1021.86 480.475 1029.46 488.074 1029.46 497.449V951.181C1029.46 960.556 1037.06 968.156 1046.44 968.156H1198.42C1207.79 968.156 1215.39 960.556 1215.39 951.181V626.083C1215.39 616.708 1222.99 609.109 1232.37 609.109H1256.37C1265.74 609.109 1273.34 616.708 1273.34 626.083V1076.11Z" fill="white"/>
</g>
<g filter="url(#filter1_d_296_1017)">
<path d="M584.037 1249.63C574.662 1249.63 567.062 1257.23 567.062 1266.61V1286.48C567.062 1295.85 574.662 1303.45 584.037 1303.45H713.144C722.519 1303.45 730.119 1311.05 730.119 1320.42V1358.07H767.764C777.139 1358.07 784.738 1350.47 784.738 1341.09V1266.61C784.738 1257.23 777.139 1249.63 767.764 1249.63H584.037ZM730.119 1358.07H693.276C683.902 1358.07 676.302 1365.67 676.302 1375.04V1394.91C676.302 1404.29 683.902 1411.89 693.276 1411.89H713.144C722.519 1411.89 730.119 1404.29 730.119 1394.91V1358.07ZM584.84 1411.89C575.465 1411.89 567.866 1419.49 567.866 1428.86V1503.35C567.866 1512.72 575.465 1520.32 584.84 1520.32H766.961C776.335 1520.32 783.935 1512.72 783.935 1503.35V1483.48C783.935 1474.1 776.335 1466.51 766.961 1466.51H638.656C629.282 1466.51 621.682 1458.91 621.682 1449.53V1428.86C621.682 1419.49 614.083 1411.89 604.708 1411.89H584.84Z" fill="white"/>
<path d="M819.025 1503.35C819.025 1512.72 826.625 1520.32 836 1520.32H856.52C865.895 1520.32 873.495 1512.72 873.495 1503.35V1266.71C873.495 1257.33 865.895 1249.73 856.52 1249.73H836C826.625 1249.73 819.025 1257.33 819.025 1266.71V1503.35Z" fill="white"/>
<path d="M1231.34 1249.73C1221.97 1249.73 1214.37 1257.33 1214.37 1266.71V1503.45C1214.37 1512.82 1221.97 1520.42 1231.34 1520.42H1252.01C1261.39 1520.42 1268.99 1512.82 1268.99 1503.45V1320.52C1268.99 1311.15 1276.59 1303.55 1285.96 1303.55H1360.45C1369.82 1303.55 1377.42 1311.15 1377.42 1320.52V1503.45C1377.42 1512.82 1385.02 1520.42 1394.4 1520.42H1414.27C1423.64 1520.42 1431.24 1512.82 1431.24 1503.45V1266.71C1431.24 1257.33 1423.64 1249.73 1414.27 1249.73H1231.34Z" fill="white"/>
<path d="M1044.38 1249.73C968.877 1249.73 908.635 1310.78 908.635 1385.48C908.635 1460.18 968.877 1520.42 1044.38 1520.42C1119.08 1520.42 1179.32 1460.18 1179.32 1385.48C1179.32 1310.78 1119.08 1249.73 1044.38 1249.73ZM1044.38 1303.55C1088.56 1303.55 1125.51 1340.5 1125.51 1385.48C1125.51 1430.46 1088.56 1466.6 1044.38 1466.6C999.4 1466.6 962.451 1430.46 962.451 1385.48C962.451 1340.5 999.4 1303.55 1044.38 1303.55Z" fill="white"/>
</g>
<defs>
<filter id="filter0_d_296_1017" x="356.616" y="326.009" width="945.583" height="1013.5" filterUnits="userSpaceOnUse" color-interpolation-filters="sRGB">
<feFlood flood-opacity="0" result="BackgroundImageFix"/>
<feColorMatrix in="SourceAlpha" type="matrix" values="0 0 0 0 0 0 0 0 0 0 0 0 0 0 0 0 0 0 127 0" result="hardAlpha"/>
<feOffset dx="-169.742" dy="44.133"/>
<feGaussianBlur stdDeviation="99.2992"/>
<feComposite in2="hardAlpha" operator="out"/>
<feColorMatrix type="matrix" values="0 0 0 0 0.780392 0 0 0 0 0.807843 0 0 0 0 1 0 0 0 0.2 0"/>
<feBlend mode="normal" in2="BackgroundImageFix" result="effect1_dropShadow_296_1017"/>
<feBlend mode="normal" in="SourceGraphic" in2="effect1_dropShadow_296_1017" result="shape"/>
</filter>
<filter id="filter1_d_296_1017" x="198.722" y="1095.17" width="1261.37" height="667.986" filterUnits="userSpaceOnUse" color-interpolation-filters="sRGB">
<feFlood flood-opacity="0" result="BackgroundImageFix"/>
<feColorMatrix in="SourceAlpha" type="matrix" values="0 0 0 0 0 0 0 0 0 0 0 0 0 0 0 0 0 0 127 0" result="hardAlpha"/>
<feOffset dx="-169.742" dy="44.133"/>
<feGaussianBlur stdDeviation="99.2992"/>
<feComposite in2="hardAlpha" operator="out"/>
<feColorMatrix type="matrix" values="0 0 0 0 0.780392 0 0 0 0 0.807843 0 0 0 0 1 0 0 0 0.2 0"/>
<feBlend mode="normal" in2="BackgroundImageFix" result="effect1_dropShadow_296_1017"/>
<feBlend mode="normal" in="SourceGraphic" in2="effect1_dropShadow_296_1017" result="shape"/>
</filter>
</defs>
</svg>
